<svg width="120" height="11" viewBox="0 0 120 11" fill="none" xmlns="http://www.w3.org/2000/svg">
<path d="M115.696 0.802541C115.909 0.436296 116.234 0.253174 116.671 0.253174C117.049 0.253174 117.309 0.40676 117.451 0.713933C117.498 0.820262 117.522 0.944313 117.522 1.08609V6.93419H118.567C118.721 6.93419 118.833 6.98144 118.904 7.07596C118.987 7.17047 119.028 7.2768 119.028 7.39495C119.028 7.51309 118.987 7.61942 118.904 7.71393C118.833 7.79663 118.721 7.83798 118.567 7.83798H117.522V9.45064C117.522 9.61604 117.48 9.73419 117.398 9.80507C117.256 9.93503 117.102 10 116.937 10C116.689 10 116.506 9.89368 116.387 9.68102C116.352 9.62195 116.334 9.54516 116.334 9.45064V7.83798H112.4C112.199 7.83798 112.04 7.77301 111.922 7.64305C111.803 7.51309 111.744 7.38904 111.744 7.2709C111.744 7.05824 111.786 6.88693 111.868 6.75697L115.696 0.802541ZM112.79 6.93419H116.334V1.36963L112.79 6.93419Z" fill="white"/>
<path d="M107.105 4.55949C107.708 4.55949 108.21 4.41771 108.612 4.13417C109.061 3.81518 109.285 3.38396 109.285 2.8405C109.285 2.33248 109.09 1.92489 108.7 1.61771C108.346 1.33417 107.897 1.1924 107.353 1.1924C106.964 1.1924 106.586 1.24556 106.219 1.35189C105.865 1.45822 105.611 1.53501 105.457 1.58227C105.315 1.62953 105.191 1.65316 105.085 1.65316C104.991 1.65316 104.896 1.59999 104.802 1.49366C104.719 1.38734 104.677 1.28101 104.677 1.17468C104.677 0.926575 104.784 0.761175 104.996 0.678474C105.764 0.335859 106.532 0.164551 107.3 0.164551C108.222 0.164551 108.972 0.383116 109.551 0.820247C110.201 1.29282 110.526 1.96033 110.526 2.82278C110.526 3.37805 110.337 3.85653 109.959 4.25822C109.604 4.63628 109.167 4.87257 108.647 4.96708V5.00253C109.261 5.12067 109.752 5.40421 110.118 5.85316C110.496 6.3021 110.685 6.80421 110.685 7.35949C110.685 7.90295 110.591 8.34599 110.402 8.6886C110.224 9.03122 109.982 9.31476 109.675 9.53923C109.12 9.94092 108.375 10.1418 107.442 10.1418C106.899 10.1418 106.343 10.0532 105.776 9.87594C105.386 9.7578 105.121 9.63375 104.979 9.50379C104.849 9.36202 104.784 9.23797 104.784 9.13164C104.784 9.0135 104.825 8.90717 104.908 8.81265C105.002 8.70632 105.103 8.65316 105.209 8.65316C105.315 8.65316 105.404 8.67088 105.475 8.70632C105.558 8.72995 105.67 8.7713 105.812 8.83037C105.965 8.88944 106.131 8.9367 106.308 8.97215C106.733 9.07847 107.099 9.13164 107.407 9.13164C107.726 9.13164 108.009 9.0962 108.257 9.02531C108.505 8.95442 108.718 8.84809 108.895 8.70632C109.25 8.41096 109.427 8.00337 109.427 7.48354C109.427 6.88101 109.202 6.39662 108.753 6.03037C108.352 5.68776 107.838 5.51645 107.212 5.51645H106.698C106.544 5.51645 106.426 5.46919 106.343 5.37468C106.272 5.26835 106.237 5.15611 106.237 5.03797C106.237 4.91982 106.272 4.8135 106.343 4.71898C106.426 4.62447 106.544 4.5713 106.698 4.55949H107.105Z" fill="white"/>
<path d="M97.7345 4.64811C98.3252 4.01014 99.0518 3.69115 99.9143 3.69115C100.8 3.69115 101.515 3.99832 102.059 4.61267C102.602 5.2152 102.874 5.97132 102.874 6.88102C102.874 7.82617 102.573 8.60592 101.97 9.22026C101.379 9.83461 100.594 10.1418 99.613 10.1418C98.4552 10.1418 97.5928 9.82279 97.0257 9.18482C96.8366 8.97216 96.6712 8.66499 96.5295 8.2633C96.5058 8.21604 96.494 8.14516 96.494 8.05064C96.494 7.95613 96.5354 7.86752 96.6181 7.78482C96.7126 7.69031 96.813 7.64305 96.9193 7.64305C97.1202 7.64305 97.2797 7.74938 97.3978 7.96203C97.7286 8.77722 98.4257 9.18482 99.489 9.18482C100.517 9.18482 101.184 8.71224 101.491 7.7671C101.574 7.48355 101.616 7.17638 101.616 6.84558C101.616 6.50296 101.574 6.2017 101.491 5.94178C101.409 5.68187 101.285 5.45149 101.119 5.25064C100.753 4.82533 100.281 4.61267 99.7016 4.61267C99.2763 4.61267 98.8805 4.7249 98.5143 4.94938C98.2307 5.12659 98.0358 5.30971 97.9295 5.49874C97.7522 5.81773 97.5337 5.97722 97.2738 5.97722C97.1438 5.97722 97.0316 5.93587 96.9371 5.85317C96.8425 5.75866 96.7953 5.6228 96.7953 5.44558V0.78482C96.7953 0.430389 96.9843 0.253174 97.3624 0.253174H101.917C102.082 0.253174 102.2 0.306339 102.271 0.412668C102.354 0.507183 102.395 0.613512 102.395 0.731655C102.395 0.849799 102.354 0.962035 102.271 1.06836C102.2 1.16288 102.082 1.21014 101.917 1.21014H97.7522L97.7345 4.64811Z" fill="white"/>
<path d="M91.5537 9.1848C92.9596 9.1848 93.6626 7.84978 93.6626 5.17974C93.6626 3.57299 93.4263 2.45063 92.9537 1.81265C92.6111 1.36371 92.1444 1.13923 91.5537 1.13923C90.3014 1.13923 89.6103 2.1789 89.4803 4.25822C89.4685 4.54177 89.4626 4.84303 89.4626 5.16202C89.4626 5.46919 89.4685 5.77046 89.4803 6.06582C89.5039 6.34936 89.5394 6.63881 89.5866 6.93417C89.6339 7.22953 89.7048 7.51307 89.7993 7.7848C89.8938 8.04472 90.0178 8.2751 90.1714 8.47594C90.514 8.94852 90.9748 9.1848 91.5537 9.1848ZM91.5537 0.164551C93.7984 0.164551 94.9208 1.83628 94.9208 5.17974C94.9208 6.1367 94.8499 6.86919 94.7081 7.37721C94.5664 7.88522 94.4128 8.29873 94.2474 8.61771C94.082 8.92489 93.8752 9.19071 93.6271 9.41518C93.0955 9.89957 92.4043 10.1418 91.5537 10.1418C90.325 10.1418 89.433 9.63375 88.8778 8.61771C88.4288 7.80253 88.2043 6.65653 88.2043 5.17974C88.2043 4.21096 88.2693 3.46666 88.3993 2.94683C88.541 2.427 88.6946 2.0135 88.86 1.70632C89.0373 1.38734 89.2499 1.11561 89.498 0.891132C90.0297 0.406744 90.7149 0.164551 91.5537 0.164551Z" fill="white"/>
<path d="M83.8135 0.802541C84.0261 0.436296 84.351 0.253174 84.7882 0.253174C85.1662 0.253174 85.4261 0.40676 85.5679 0.713933C85.6152 0.820262 85.6388 0.944313 85.6388 1.08609V6.93419H86.6844C86.8379 6.93419 86.9502 6.98144 87.0211 7.07596C87.1038 7.17047 87.1451 7.2768 87.1451 7.39495C87.1451 7.51309 87.1038 7.61942 87.0211 7.71393C86.9502 7.79663 86.8379 7.83798 86.6844 7.83798H85.6388V9.45064C85.6388 9.61604 85.5974 9.73419 85.5147 9.80507C85.373 9.93503 85.2194 10 85.054 10C84.8059 10 84.6228 9.89368 84.5046 9.68102C84.4692 9.62195 84.4514 9.54516 84.4514 9.45064V7.83798H80.5173C80.3164 7.83798 80.1569 7.77301 80.0388 7.64305C79.9206 7.51309 79.8616 7.38904 79.8616 7.2709C79.8616 7.05824 79.9029 6.88693 79.9856 6.75697L83.8135 0.802541ZM80.9071 6.93419H84.4514V1.36963L80.9071 6.93419Z" fill="white"/>
<path d="M75.1339 9.6633C75.0393 9.88777 74.8562 10 74.5845 10C74.3246 10 74.1296 9.88777 73.9997 9.6633C73.9524 9.59242 73.9288 9.52153 73.9288 9.45064C73.9288 9.36794 73.9524 9.27934 73.9997 9.18482L77.4731 1.24558H72.8301C72.6647 1.24558 72.5406 1.19832 72.4579 1.10381C72.3752 0.997478 72.3339 0.885241 72.3339 0.767097C72.3339 0.63714 72.3752 0.518997 72.4579 0.412668C72.5406 0.306339 72.6647 0.253174 72.8301 0.253174H78.0579C78.306 0.253174 78.4832 0.312245 78.5896 0.430388C78.7077 0.548532 78.7668 0.690304 78.7668 0.855705C78.7668 1.02111 78.7313 1.1806 78.6604 1.33419L75.1339 9.6633Z" fill="white"/>
<path d="M67.6416 9.1848C69.0475 9.1848 69.7505 7.84978 69.7505 5.17974C69.7505 3.57299 69.5142 2.45063 69.0416 1.81265C68.699 1.36371 68.2323 1.13923 67.6416 1.13923C66.3893 1.13923 65.6981 2.1789 65.5682 4.25822C65.5564 4.54177 65.5505 4.84303 65.5505 5.16202C65.5505 5.46919 65.5564 5.77046 65.5682 6.06582C65.5918 6.34936 65.6273 6.63881 65.6745 6.93417C65.7218 7.22953 65.7927 7.51307 65.8872 7.7848C65.9817 8.04472 66.1057 8.2751 66.2593 8.47594C66.6019 8.94852 67.0627 9.1848 67.6416 9.1848ZM67.6416 0.164551C69.8863 0.164551 71.0087 1.83628 71.0087 5.17974C71.0087 6.1367 70.9378 6.86919 70.796 7.37721C70.6543 7.88522 70.5007 8.29873 70.3353 8.61771C70.1699 8.92489 69.9631 9.19071 69.715 9.41518C69.1834 9.89957 68.4922 10.1418 67.6416 10.1418C66.4129 10.1418 65.5209 9.63375 64.9657 8.61771C64.5167 7.80253 64.2922 6.65653 64.2922 5.17974C64.2922 4.21096 64.3572 3.46666 64.4872 2.94683C64.6289 2.427 64.7825 2.0135 64.9479 1.70632C65.1251 1.38734 65.3378 1.11561 65.5859 0.891132C66.1176 0.406744 66.8028 0.164551 67.6416 0.164551Z" fill="white"/>
<path d="M59.2811 4.55949C59.8837 4.55949 60.3858 4.41771 60.7874 4.13417C61.2364 3.81518 61.4609 3.38396 61.4609 2.8405C61.4609 2.33248 61.2659 1.92489 60.8761 1.61771C60.5216 1.33417 60.0727 1.1924 59.5292 1.1924C59.1393 1.1924 58.7613 1.24556 58.395 1.35189C58.0406 1.45822 57.7866 1.53501 57.633 1.58227C57.4912 1.62953 57.3672 1.65316 57.2609 1.65316C57.1663 1.65316 57.0718 1.59999 56.9773 1.49366C56.8946 1.38734 56.8533 1.28101 56.8533 1.17468C56.8533 0.926575 56.9596 0.761175 57.1723 0.678474C57.9402 0.335859 58.7081 0.164551 59.4761 0.164551C60.3976 0.164551 61.1478 0.383116 61.7267 0.820247C62.3765 1.29282 62.7014 1.96033 62.7014 2.82278C62.7014 3.37805 62.5123 3.85653 62.1343 4.25822C61.7799 4.63628 61.3427 4.87257 60.8229 4.96708V5.00253C61.4372 5.12067 61.9275 5.40421 62.2938 5.85316C62.6718 6.3021 62.8609 6.80421 62.8609 7.35949C62.8609 7.90295 62.7663 8.34599 62.5773 8.6886C62.4001 9.03122 62.1579 9.31476 61.8507 9.53923C61.2955 9.94092 60.5512 10.1418 59.6178 10.1418C59.0744 10.1418 58.5191 10.0532 57.952 9.87594C57.5621 9.7578 57.2963 9.63375 57.1545 9.50379C57.0246 9.36202 56.9596 9.23797 56.9596 9.13164C56.9596 9.0135 57.001 8.90717 57.0837 8.81265C57.1782 8.70632 57.2786 8.65316 57.3849 8.65316C57.4912 8.65316 57.5799 8.67088 57.6507 8.70632C57.7334 8.72995 57.8457 8.7713 57.9874 8.83037C58.141 8.88944 58.3064 8.9367 58.4837 8.97215C58.909 9.07847 59.2752 9.13164 59.5824 9.13164C59.9014 9.13164 60.1849 9.0962 60.433 9.02531C60.6811 8.95442 60.8938 8.84809 61.071 8.70632C61.4254 8.41096 61.6026 8.00337 61.6026 7.48354C61.6026 6.88101 61.3782 6.39662 60.9292 6.03037C60.5275 5.68776 60.0136 5.51645 59.3874 5.51645H58.8735C58.7199 5.51645 58.6018 5.46919 58.5191 5.37468C58.4482 5.26835 58.4128 5.15611 58.4128 5.03797C58.4128 4.91982 58.4482 4.8135 58.5191 4.71898C58.6018 4.62447 58.7199 4.5713 58.8735 4.55949H59.2811Z" fill="white"/>
<path d="M46.1217 2.53925C46.039 2.58651 45.9445 2.61014 45.8381 2.61014C45.7318 2.61014 45.6373 2.56288 45.5546 2.46836C45.4719 2.37385 45.4305 2.28524 45.4305 2.20254C45.4305 2.03714 45.4955 1.90127 45.6255 1.79495L47.9293 0.341782C48.012 0.28271 48.1242 0.253174 48.266 0.253174C48.4078 0.253174 48.5377 0.300432 48.6559 0.394947C48.774 0.489461 48.8331 0.63714 48.8331 0.837984V9.43292C48.8331 9.70465 48.709 9.88187 48.4609 9.96457C48.39 9.9882 48.3132 10 48.2305 10C48.1597 10 48.0888 9.9882 48.0179 9.96457C47.947 9.94094 47.882 9.9055 47.8229 9.85824C47.7048 9.76372 47.6457 9.62195 47.6457 9.43292V1.54684L46.1217 2.53925Z" fill="white"/>
<path d="M38.151 2.53925C38.0683 2.58651 37.9738 2.61014 37.8674 2.61014C37.7611 2.61014 37.6666 2.56288 37.5839 2.46836C37.5012 2.37385 37.4598 2.28524 37.4598 2.20254C37.4598 2.03714 37.5248 1.90127 37.6548 1.79495L39.9586 0.341782C40.0413 0.28271 40.1535 0.253174 40.2953 0.253174C40.4371 0.253174 40.567 0.300432 40.6852 0.394947C40.8033 0.489461 40.8624 0.63714 40.8624 0.837984V9.43292C40.8624 9.70465 40.7383 9.88187 40.4902 9.96457C40.4193 9.9882 40.3425 10 40.2598 10C40.189 10 40.1181 9.9882 40.0472 9.96457C39.9763 9.94094 39.9113 9.9055 39.8522 9.85824C39.7341 9.76372 39.675 9.62195 39.675 9.43292V1.54684L38.151 2.53925Z" fill="white"/>
<path d="M35.3196 4.61265C35.3196 8.29873 34.0023 10.1418 31.3677 10.1418C30.5643 10.1418 29.8672 9.98227 29.2765 9.66329C29.1348 9.60421 29.0639 9.48016 29.0639 9.29113C29.0639 9.05485 29.1584 8.88945 29.3474 8.79493C29.3947 8.75949 29.4419 8.74177 29.4892 8.74177C29.5364 8.74177 29.5837 8.74767 29.631 8.75949C30.2571 9.00759 30.8065 9.13164 31.2791 9.13164C31.7516 9.13164 32.1297 9.07257 32.4132 8.95442C32.6968 8.83628 32.9331 8.67679 33.1221 8.47594C33.3229 8.2751 33.4824 8.03881 33.6006 7.76708C33.7305 7.48354 33.831 7.18227 33.9018 6.86328C34.02 6.33164 34.0791 5.71729 34.0791 5.02025H34.0436C33.7246 5.74092 33.1516 6.19577 32.3246 6.3848C32.0765 6.44388 31.7635 6.47341 31.3854 6.47341C31.0191 6.47341 30.647 6.39662 30.2689 6.24303C29.9027 6.08945 29.5896 5.87679 29.3297 5.60506C28.798 5.04978 28.5322 4.31139 28.5322 3.38987C28.5322 2.45653 28.8158 1.69451 29.3829 1.10379C29.9854 0.477631 30.7651 0.164551 31.7221 0.164551C33.3643 0.164551 34.4571 0.920669 35.0006 2.43291C35.2132 3.02362 35.3196 3.7502 35.3196 4.61265ZM31.8107 1.12151C31.4917 1.12151 31.2023 1.18058 30.9424 1.29873C30.6943 1.40506 30.4816 1.55274 30.3044 1.74177C29.9381 2.15527 29.755 2.68101 29.755 3.31898C29.755 3.95695 29.9086 4.4886 30.2158 4.91392C30.5466 5.37468 31.0369 5.60506 31.6867 5.60506C32.3837 5.60506 32.9331 5.38058 33.3348 4.93164C33.7128 4.50632 33.9018 3.95105 33.9018 3.26582C33.9018 2.6751 33.7069 2.1789 33.317 1.77721C32.9153 1.34008 32.4132 1.12151 31.8107 1.12151Z" fill="white"/>
<path d="M20.335 0.802541C20.5476 0.436296 20.8725 0.253174 21.3096 0.253174C21.6877 0.253174 21.9476 0.40676 22.0894 0.713933C22.1366 0.820262 22.1603 0.944313 22.1603 1.08609V6.93419H23.2058C23.3594 6.93419 23.4717 6.98144 23.5425 7.07596C23.6252 7.17047 23.6666 7.2768 23.6666 7.39495C23.6666 7.51309 23.6252 7.61942 23.5425 7.71393C23.4717 7.79663 23.3594 7.83798 23.2058 7.83798H22.1603V9.45064C22.1603 9.61604 22.1189 9.73419 22.0362 9.80507C21.8944 9.93503 21.7409 10 21.5755 10C21.3274 10 21.1442 9.89368 21.0261 9.68102C20.9907 9.62195 20.9729 9.54516 20.9729 9.45064V7.83798H17.0388C16.8379 7.83798 16.6784 7.77301 16.5603 7.64305C16.4421 7.51309 16.3831 7.38904 16.3831 7.2709C16.3831 7.05824 16.4244 6.88693 16.5071 6.75697L20.335 0.802541ZM17.4286 6.93419H20.9729V1.36963L17.4286 6.93419Z" fill="white"/>
<path d="M10.3439 4.64811C10.9346 4.01014 11.6612 3.69115 12.5236 3.69115C13.4097 3.69115 14.1245 3.99832 14.668 4.61267C15.2114 5.2152 15.4831 5.97132 15.4831 6.88102C15.4831 7.82617 15.1819 8.60592 14.5793 9.22026C13.9886 9.83461 13.203 10.1418 12.2224 10.1418C11.0646 10.1418 10.2021 9.82279 9.63504 9.18482C9.44601 8.97216 9.28061 8.66499 9.13884 8.2633C9.11521 8.21604 9.10339 8.14516 9.10339 8.05064C9.10339 7.95613 9.14474 7.86752 9.22744 7.78482C9.32196 7.69031 9.42238 7.64305 9.52871 7.64305C9.72955 7.64305 9.88905 7.74938 10.0072 7.96203C10.338 8.77722 11.035 9.18482 12.0983 9.18482C13.1262 9.18482 13.7937 8.71224 14.1009 7.7671C14.1836 7.48355 14.2249 7.17638 14.2249 6.84558C14.2249 6.50296 14.1836 6.2017 14.1009 5.94178C14.0182 5.68187 13.8941 5.45149 13.7287 5.25064C13.3625 4.82533 12.8899 4.61267 12.311 4.61267C11.8857 4.61267 11.4899 4.7249 11.1236 4.94938C10.8401 5.12659 10.6452 5.30971 10.5388 5.49874C10.3616 5.81773 10.1431 5.97722 9.88314 5.97722C9.75318 5.97722 9.64095 5.93587 9.54643 5.85317C9.45192 5.75866 9.40466 5.6228 9.40466 5.44558V0.78482C9.40466 0.430389 9.59369 0.253174 9.97175 0.253174H14.5262C14.6916 0.253174 14.8097 0.306339 14.8806 0.412668C14.9633 0.507183 15.0047 0.613512 15.0047 0.731655C15.0047 0.849799 14.9633 0.962035 14.8806 1.06836C14.8097 1.16288 14.6916 1.21014 14.5262 1.21014H10.3616L10.3439 4.64811Z" fill="white"/>
<path d="M4.05061 6.15442H6.60251C6.73247 6.15442 6.84471 6.19577 6.93922 6.27847C7.03374 6.36117 7.08099 6.4675 7.08099 6.59746C7.08099 6.72741 7.03374 6.83965 6.93922 6.93417C6.85652 7.02868 6.74428 7.07594 6.60251 7.07594H4.05061V9.52151C4.05061 9.65146 4.00336 9.75779 3.90884 9.84049C3.81433 9.92319 3.69618 9.96455 3.55441 9.96455C3.42445 9.96455 3.31222 9.92319 3.2177 9.84049C3.135 9.75779 3.09365 9.65146 3.09365 9.52151V7.07594H0.559475C0.429517 7.07594 0.317281 7.02868 0.222766 6.93417C0.128251 6.83965 0.0809937 6.73332 0.0809937 6.61518C0.0809937 6.48522 0.122344 6.37889 0.205044 6.29619C0.299559 6.20168 0.417703 6.15442 0.559475 6.15442H3.09365V3.69113C3.09365 3.56117 3.14091 3.44893 3.23542 3.35442C3.32994 3.2599 3.44218 3.21265 3.57213 3.21265C3.70209 3.21265 3.81433 3.2599 3.90884 3.35442C4.00336 3.43712 4.05061 3.54936 4.05061 3.69113V6.15442Z" fill="white"/>
</svg>
