<svg width="59" height="11" viewBox="0 0 59 11" fill="none" xmlns="http://www.w3.org/2000/svg">
<path d="M51.3926 6.48633C51.3926 5.97135 51.4883 5.49512 51.6797 5.05762C51.8711 4.61556 52.1331 4.23275 52.4658 3.90918C52.8031 3.58561 53.1995 3.33268 53.6553 3.15039C54.111 2.9681 54.6009 2.87695 55.125 2.87695C55.64 2.87695 56.123 2.96354 56.5742 3.13672C57.0299 3.30534 57.4264 3.54688 57.7637 3.86133C58.1009 4.17578 58.3652 4.55859 58.5566 5.00977C58.7526 5.46094 58.8506 5.9668 58.8506 6.52734C58.8506 6.99674 58.7686 7.44792 58.6045 7.88086C58.4404 8.3138 58.1989 8.69661 57.8799 9.0293C57.5609 9.36198 57.1689 9.62858 56.7041 9.8291C56.2438 10.0251 55.7129 10.123 55.1113 10.123C54.6009 10.123 54.1201 10.0387 53.6689 9.87012C53.2178 9.7015 52.8236 9.45996 52.4863 9.14551C52.1491 8.83105 51.8825 8.45052 51.6865 8.00391C51.4906 7.55273 51.3926 7.04688 51.3926 6.48633ZM55.2686 9.62402C55.5921 9.62402 55.8883 9.56022 56.1572 9.43262C56.4307 9.30501 56.6654 9.12044 56.8613 8.87891C57.0573 8.63737 57.21 8.34342 57.3193 7.99707C57.4287 7.65072 57.4834 7.25879 57.4834 6.82129C57.4834 6.3291 57.431 5.87337 57.3262 5.4541C57.2214 5.03027 57.0641 4.66569 56.8545 4.36035C56.6494 4.05046 56.3896 3.80892 56.0752 3.63574C55.7607 3.46257 55.3939 3.37598 54.9746 3.37598C54.651 3.37598 54.3548 3.43978 54.0859 3.56738C53.8171 3.69043 53.5824 3.87044 53.3818 4.10742C53.1859 4.3444 53.0332 4.63607 52.9238 4.98242C52.8145 5.32422 52.7598 5.71387 52.7598 6.15137C52.7598 6.64355 52.8122 7.10156 52.917 7.52539C53.0264 7.94922 53.1859 8.31836 53.3955 8.63281C53.6051 8.94271 53.8649 9.18652 54.1748 9.36426C54.4893 9.53744 54.8538 9.62402 55.2686 9.62402Z" fill="white"/>
<path d="M49.0684 9.59668C49.2051 9.59668 49.3395 9.57161 49.4717 9.52148C49.6084 9.47135 49.7383 9.403 49.8613 9.31641C49.9889 9.22982 50.1097 9.13184 50.2236 9.02246C50.3421 8.90853 50.4515 8.79004 50.5518 8.66699L50.6201 8.70117L50.1758 9.80176C50.1211 9.8291 50.0527 9.86328 49.9707 9.9043C49.8932 9.94075 49.7975 9.97493 49.6836 10.0068C49.5742 10.0433 49.4443 10.0729 49.2939 10.0957C49.1436 10.123 48.9658 10.1367 48.7607 10.1367C48.1501 10.1367 47.6738 9.97266 47.332 9.64453C46.9948 9.31185 46.8262 8.7946 46.8262 8.09277V3.5332L45.6777 3.57422V2.97266C45.819 2.98177 45.9876 2.98861 46.1836 2.99316C46.3796 2.99772 46.5938 3 46.8262 3C46.8216 2.67643 46.8125 2.3916 46.7988 2.14551C46.7897 1.89486 46.776 1.67839 46.7578 1.49609C46.7441 1.30924 46.7259 1.15202 46.7031 1.02441C46.6803 0.89681 46.6576 0.789714 46.6348 0.703125V0.675781H48.2139V0.703125C48.1865 0.789714 48.1615 0.89681 48.1387 1.02441C48.1159 1.15202 48.0954 1.30697 48.0771 1.48926C48.0635 1.67155 48.0498 1.88802 48.0361 2.13867C48.027 2.38477 48.0202 2.67188 48.0156 3C48.3027 2.99544 48.583 2.99089 48.8564 2.98633C49.1344 2.97721 49.3851 2.9681 49.6084 2.95898C49.8363 2.94531 50.0277 2.93392 50.1826 2.9248C50.3421 2.91113 50.4469 2.89974 50.4971 2.89062L50.374 3.58789C50.1416 3.58333 49.8978 3.5765 49.6426 3.56738C49.4238 3.55827 49.1732 3.55143 48.8906 3.54688C48.6081 3.54232 48.3164 3.53776 48.0156 3.5332V8.23633C48.0156 8.51888 48.0452 8.74902 48.1045 8.92676C48.1683 9.09993 48.248 9.23665 48.3438 9.33691C48.444 9.43717 48.5557 9.50553 48.6787 9.54199C48.8063 9.57845 48.9362 9.59668 49.0684 9.59668Z" fill="white"/>
<path d="M45.2061 8.54395L44.7002 9.76074C44.5771 9.81543 44.4359 9.86556 44.2764 9.91113C44.1169 9.95671 43.9505 9.99544 43.7773 10.0273C43.6087 10.0592 43.4378 10.082 43.2646 10.0957C43.0915 10.1139 42.9274 10.123 42.7725 10.123C42.221 10.123 41.7106 10.0433 41.2412 9.88379C40.7764 9.71973 40.373 9.48275 40.0312 9.17285C39.694 8.86296 39.4297 8.48242 39.2383 8.03125C39.0469 7.58008 38.9512 7.0651 38.9512 6.48633C38.9512 5.97135 39.0492 5.49512 39.2451 5.05762C39.4456 4.61556 39.7214 4.23275 40.0723 3.90918C40.4277 3.58561 40.8447 3.33268 41.3232 3.15039C41.8018 2.9681 42.3213 2.87695 42.8818 2.87695C43.137 2.87695 43.4105 2.89974 43.7021 2.94531C43.9938 2.98633 44.2536 3.04102 44.4814 3.10938L44.9668 4.27148L44.8848 4.31934C44.7708 4.17806 44.6341 4.05046 44.4746 3.93652C44.3197 3.81803 44.1465 3.71777 43.9551 3.63574C43.7682 3.55371 43.57 3.48991 43.3604 3.44434C43.1507 3.39876 42.9365 3.37598 42.7178 3.37598C42.3623 3.37598 42.0387 3.43978 41.7471 3.56738C41.4554 3.69043 41.2048 3.87044 40.9951 4.10742C40.7855 4.3444 40.6214 4.63607 40.5029 4.98242C40.389 5.32422 40.332 5.71387 40.332 6.15137C40.332 6.64355 40.3867 7.10156 40.4961 7.52539C40.61 7.94922 40.7764 8.31836 40.9951 8.63281C41.2184 8.94271 41.4964 9.18652 41.8291 9.36426C42.1663 9.53744 42.5605 9.62402 43.0117 9.62402C43.2214 9.62402 43.4287 9.59896 43.6338 9.54883C43.8434 9.49414 44.0394 9.41895 44.2217 9.32324C44.4085 9.22298 44.5794 9.10449 44.7344 8.96777C44.8893 8.83105 45.0192 8.67611 45.124 8.50293L45.2061 8.54395Z" fill="white"/>
<path d="M31.7324 7.9834C31.7324 7.62337 31.8053 7.3112 31.9512 7.04688C32.1016 6.78255 32.2998 6.55697 32.5459 6.37012C32.792 6.18327 33.0723 6.03288 33.3867 5.91895C33.7012 5.80046 34.027 5.70931 34.3643 5.64551C34.7015 5.57715 35.0342 5.53158 35.3623 5.50879C35.6904 5.48145 35.9912 5.46549 36.2646 5.46094V5.1123C36.2646 4.81152 36.2259 4.55176 36.1484 4.33301C36.071 4.11426 35.9616 3.93424 35.8203 3.79297C35.679 3.64714 35.5081 3.54004 35.3076 3.47168C35.1117 3.39876 34.8952 3.3623 34.6582 3.3623C34.4941 3.3623 34.3324 3.37598 34.1729 3.40332C34.0133 3.43066 33.847 3.47624 33.6738 3.54004C33.5052 3.60384 33.3252 3.69043 33.1338 3.7998C32.9469 3.90918 32.7441 4.04818 32.5254 4.2168L32.457 4.17578L32.9219 3.21191C33.0723 3.14355 33.2204 3.08887 33.3662 3.04785C33.512 3.00228 33.6602 2.96582 33.8105 2.93848C33.9609 2.91113 34.1136 2.8929 34.2686 2.88379C34.4281 2.87012 34.5944 2.86328 34.7676 2.86328C35.2461 2.86328 35.654 2.92253 35.9912 3.04102C36.333 3.15495 36.611 3.31445 36.8252 3.51953C37.0439 3.72005 37.2035 3.95703 37.3037 4.23047C37.404 4.49935 37.4541 4.78874 37.4541 5.09863V7.32715C37.4541 7.71452 37.4587 8.05404 37.4678 8.3457C37.4814 8.63281 37.4951 8.88119 37.5088 9.09082C37.527 9.30046 37.5475 9.47591 37.5703 9.61719C37.5977 9.75846 37.625 9.87695 37.6523 9.97266V10H36.1416V9.97266C36.1644 9.89974 36.1803 9.81771 36.1895 9.72656C36.2031 9.63542 36.2145 9.52604 36.2236 9.39844C36.1279 9.48047 36.014 9.56478 35.8818 9.65137C35.7542 9.73796 35.6061 9.81771 35.4375 9.89062C35.2734 9.95898 35.0889 10.0137 34.8838 10.0547C34.6833 10.1003 34.4622 10.123 34.2207 10.123C33.4277 10.123 32.8148 9.93848 32.3818 9.56934C31.9489 9.19564 31.7324 8.66699 31.7324 7.9834ZM36.2646 5.99414C35.8499 5.9987 35.4512 6.02376 35.0684 6.06934C34.6855 6.11035 34.346 6.19922 34.0498 6.33594C33.7581 6.47266 33.5234 6.66862 33.3457 6.92383C33.1725 7.17448 33.0859 7.50944 33.0859 7.92871C33.0859 8.46647 33.2204 8.87663 33.4893 9.15918C33.7581 9.44173 34.1296 9.58301 34.6035 9.58301C34.8223 9.58301 35.0205 9.55339 35.1982 9.49414C35.3805 9.43034 35.54 9.35286 35.6768 9.26172C35.818 9.16602 35.9365 9.06348 36.0322 8.9541C36.1279 8.84017 36.2008 8.73079 36.251 8.62598C36.2601 8.4528 36.2646 8.26139 36.2646 8.05176C36.2646 7.83756 36.2646 7.59603 36.2646 7.32715V5.99414Z" fill="white"/>
<path d="M29.3809 9.59668C29.5176 9.59668 29.652 9.57161 29.7842 9.52148C29.9209 9.47135 30.0508 9.403 30.1738 9.31641C30.3014 9.22982 30.4222 9.13184 30.5361 9.02246C30.6546 8.90853 30.764 8.79004 30.8643 8.66699L30.9326 8.70117L30.4883 9.80176C30.4336 9.8291 30.3652 9.86328 30.2832 9.9043C30.2057 9.94075 30.11 9.97493 29.9961 10.0068C29.8867 10.0433 29.7568 10.0729 29.6064 10.0957C29.4561 10.123 29.2783 10.1367 29.0732 10.1367C28.4626 10.1367 27.9863 9.97266 27.6445 9.64453C27.3073 9.31185 27.1387 8.7946 27.1387 8.09277V3.5332L25.9902 3.57422V2.97266C26.1315 2.98177 26.3001 2.98861 26.4961 2.99316C26.6921 2.99772 26.9062 3 27.1387 3C27.1341 2.67643 27.125 2.3916 27.1113 2.14551C27.1022 1.89486 27.0885 1.67839 27.0703 1.49609C27.0566 1.30924 27.0384 1.15202 27.0156 1.02441C26.9928 0.89681 26.9701 0.789714 26.9473 0.703125V0.675781H28.5264V0.703125C28.499 0.789714 28.474 0.89681 28.4512 1.02441C28.4284 1.15202 28.4079 1.30697 28.3896 1.48926C28.376 1.67155 28.3623 1.88802 28.3486 2.13867C28.3395 2.38477 28.3327 2.67188 28.3281 3C28.6152 2.99544 28.8955 2.99089 29.1689 2.98633C29.4469 2.97721 29.6976 2.9681 29.9209 2.95898C30.1488 2.94531 30.3402 2.93392 30.4951 2.9248C30.6546 2.91113 30.7594 2.89974 30.8096 2.89062L30.6865 3.58789C30.4541 3.58333 30.2103 3.5765 29.9551 3.56738C29.7363 3.55827 29.4857 3.55143 29.2031 3.54688C28.9206 3.54232 28.6289 3.53776 28.3281 3.5332V8.23633C28.3281 8.51888 28.3577 8.74902 28.417 8.92676C28.4808 9.09993 28.5605 9.23665 28.6562 9.33691C28.7565 9.43717 28.8682 9.50553 28.9912 9.54199C29.1188 9.57845 29.2487 9.59668 29.3809 9.59668Z" fill="white"/>
<path d="M23.6523 5.39258C23.6523 4.79102 23.5316 4.34896 23.29 4.06641C23.0485 3.78385 22.7249 3.64258 22.3193 3.64258C22.1735 3.64258 22.0094 3.67448 21.8271 3.73828C21.6449 3.79753 21.458 3.87956 21.2666 3.98438C21.0752 4.08464 20.8838 4.20312 20.6924 4.33984C20.501 4.47656 20.321 4.6224 20.1523 4.77734L20.1387 5.67285V7.32715C20.1387 7.71452 20.1432 8.05404 20.1523 8.3457C20.1615 8.63281 20.1751 8.88119 20.1934 9.09082C20.2116 9.30046 20.2321 9.47591 20.2549 9.61719C20.2777 9.75846 20.3027 9.87695 20.3301 9.97266V10H18.751V9.97266C18.7783 9.87695 18.8034 9.75846 18.8262 9.61719C18.8535 9.47591 18.874 9.30046 18.8877 9.09082C18.9059 8.88119 18.9196 8.63281 18.9287 8.3457C18.9424 8.05404 18.9492 7.71452 18.9492 7.32715V5.67285C18.9492 5.28548 18.9424 4.94824 18.9287 4.66113C18.9196 4.36947 18.9059 4.11882 18.8877 3.90918C18.874 3.69954 18.8535 3.52409 18.8262 3.38281C18.8034 3.24154 18.7783 3.12305 18.751 3.02734V3H20.3301V3.02734C20.2936 3.14128 20.264 3.28711 20.2412 3.46484C20.223 3.63802 20.2025 3.86589 20.1797 4.14844C20.3665 3.99349 20.5671 3.83854 20.7812 3.68359C21 3.52865 21.2256 3.39193 21.458 3.27344C21.6904 3.15039 21.9274 3.05241 22.1689 2.97949C22.4105 2.90202 22.6475 2.86328 22.8799 2.86328C23.2354 2.86328 23.5361 2.9248 23.7822 3.04785C24.0329 3.1709 24.2357 3.33268 24.3906 3.5332C24.5501 3.73372 24.6641 3.96387 24.7324 4.22363C24.8053 4.47884 24.8418 4.73861 24.8418 5.00293V7.32715C24.8418 7.71452 24.8464 8.05404 24.8555 8.3457C24.8646 8.63281 24.8783 8.88119 24.8965 9.09082C24.9147 9.30046 24.9352 9.47591 24.958 9.61719C24.9808 9.75846 25.0059 9.87695 25.0332 9.97266V10H23.4541V9.97266C23.4814 9.87695 23.5065 9.75846 23.5293 9.61719C23.5566 9.47591 23.5771 9.30046 23.5908 9.09082C23.609 8.88119 23.6227 8.63281 23.6318 8.3457C23.6455 8.05404 23.6523 7.71452 23.6523 7.32715V5.39258Z" fill="white"/>
<path d="M9.95312 6.48633C9.95312 5.97135 10.0488 5.49512 10.2402 5.05762C10.4316 4.61556 10.6937 4.23275 11.0264 3.90918C11.3636 3.58561 11.7601 3.33268 12.2158 3.15039C12.6715 2.9681 13.1615 2.87695 13.6855 2.87695C14.2005 2.87695 14.6836 2.96354 15.1348 3.13672C15.5905 3.30534 15.987 3.54688 16.3242 3.86133C16.6615 4.17578 16.9258 4.55859 17.1172 5.00977C17.3132 5.46094 17.4111 5.9668 17.4111 6.52734C17.4111 6.99674 17.3291 7.44792 17.165 7.88086C17.001 8.3138 16.7594 8.69661 16.4404 9.0293C16.1214 9.36198 15.7295 9.62858 15.2646 9.8291C14.8044 10.0251 14.2734 10.123 13.6719 10.123C13.1615 10.123 12.6807 10.0387 12.2295 9.87012C11.7783 9.7015 11.3841 9.45996 11.0469 9.14551C10.7096 8.83105 10.443 8.45052 10.2471 8.00391C10.0511 7.55273 9.95312 7.04688 9.95312 6.48633ZM13.8291 9.62402C14.1527 9.62402 14.4489 9.56022 14.7178 9.43262C14.9912 9.30501 15.2259 9.12044 15.4219 8.87891C15.6178 8.63737 15.7705 8.34342 15.8799 7.99707C15.9893 7.65072 16.0439 7.25879 16.0439 6.82129C16.0439 6.3291 15.9915 5.87337 15.8867 5.4541C15.7819 5.03027 15.6247 4.66569 15.415 4.36035C15.21 4.05046 14.9502 3.80892 14.6357 3.63574C14.3213 3.46257 13.9544 3.37598 13.5352 3.37598C13.2116 3.37598 12.9154 3.43978 12.6465 3.56738C12.3776 3.69043 12.1429 3.87044 11.9424 4.10742C11.7464 4.3444 11.5938 4.63607 11.4844 4.98242C11.375 5.32422 11.3203 5.71387 11.3203 6.15137C11.3203 6.64355 11.3727 7.10156 11.4775 7.52539C11.5869 7.94922 11.7464 8.31836 11.9561 8.63281C12.1657 8.94271 12.4255 9.18652 12.7354 9.36426C13.0498 9.53744 13.4144 9.62402 13.8291 9.62402Z" fill="white"/>
<path d="M8.90723 1.70117L8.8457 1.72852C8.49023 1.40039 8.06185 1.13835 7.56055 0.942383C7.0638 0.746419 6.51693 0.648438 5.91992 0.648438C5.3457 0.648438 4.81934 0.739583 4.34082 0.921875C3.8623 1.09961 3.44987 1.35938 3.10352 1.70117C2.76172 2.04297 2.49512 2.46224 2.30371 2.95898C2.1123 3.45573 2.0166 4.02083 2.0166 4.6543C2.0166 5.35156 2.10775 6.00326 2.29004 6.60938C2.47233 7.21094 2.74349 7.73275 3.10352 8.1748C3.46354 8.61686 3.91243 8.9655 4.4502 9.2207C4.99251 9.47135 5.6237 9.59668 6.34375 9.59668C6.60352 9.59668 6.86328 9.56934 7.12305 9.51465C7.38281 9.45996 7.63119 9.38021 7.86816 9.27539C8.1097 9.16602 8.33529 9.03613 8.54492 8.88574C8.75911 8.73079 8.9528 8.55534 9.12598 8.35938L9.20117 8.40723L8.6543 9.80176C8.3125 9.93392 7.93424 10.0342 7.51953 10.1025C7.10938 10.1755 6.69466 10.2119 6.27539 10.2119C5.43229 10.2119 4.65983 10.0911 3.95801 9.84961C3.26074 9.60352 2.65918 9.25716 2.15332 8.81055C1.65202 8.36393 1.26009 7.82845 0.977539 7.2041C0.699544 6.5752 0.560547 5.87793 0.560547 5.1123C0.560547 4.67936 0.615234 4.25326 0.724609 3.83398C0.838542 3.41471 1.0026 3.01595 1.2168 2.6377C1.43099 2.25944 1.69531 1.91309 2.00977 1.59863C2.32422 1.27962 2.68197 1.00391 3.08301 0.771484C3.48861 0.539062 3.93294 0.359049 4.41602 0.231445C4.90365 0.0992839 5.43001 0.0332031 5.99512 0.0332031C6.87467 0.0332031 7.69043 0.167643 8.44238 0.436523L8.90723 1.70117Z" fill="white"/>
</svg>
