<svg width="186" height="15" viewBox="0 0 186 15" fill="none" xmlns="http://www.w3.org/2000/svg">
<path d="M183.864 5.18987C183.864 4.78481 184.066 4.49789 184.471 4.32911C184.607 4.2616 184.758 4.22784 184.927 4.22784C185.096 4.22784 185.239 4.2616 185.358 4.32911C185.493 4.37974 185.611 4.44725 185.712 4.53164C185.881 4.70042 185.965 4.91983 185.965 5.18987C185.965 5.61181 185.763 5.89873 185.358 6.05063C185.223 6.10126 185.071 6.12658 184.902 6.12658C184.75 6.12658 184.607 6.10126 184.471 6.05063C184.336 6 184.227 5.93249 184.142 5.8481C183.957 5.67932 183.864 5.45991 183.864 5.18987ZM183.915 13.4177C183.881 13.2996 183.864 13.1814 183.864 13.0633C183.864 12.9451 183.881 12.827 183.915 12.7089C183.965 12.5907 184.033 12.4894 184.117 12.4051C184.218 12.3207 184.336 12.2532 184.471 12.2025C184.607 12.135 184.758 12.1013 184.927 12.1013C185.096 12.1013 185.239 12.135 185.358 12.2025C185.493 12.2532 185.602 12.3207 185.687 12.4051C185.788 12.4894 185.855 12.5907 185.889 12.7089C185.94 12.827 185.965 12.9451 185.965 13.0633C185.965 13.1814 185.94 13.2996 185.889 13.4177C185.855 13.519 185.796 13.6118 185.712 13.6962C185.509 13.8987 185.282 14 185.028 14C184.792 14 184.607 13.9747 184.471 13.924C184.336 13.8734 184.218 13.8059 184.117 13.7215C184.033 13.6202 183.965 13.519 183.915 13.4177Z" fill="white"/>
<path d="M177.054 5.31645C175.585 5.31645 174.851 5.78058 174.851 6.70885C174.851 7.11392 175.054 7.43459 175.459 7.67088C175.763 7.82278 176.387 8.01687 177.332 8.25316C178.277 8.47257 178.995 8.65822 179.484 8.81012C179.974 8.96202 180.379 9.2405 180.699 9.64556C181.02 10.0506 181.18 10.5316 181.18 11.0886C181.18 11.6287 181.062 12.1013 180.826 12.5063C180.59 12.8945 180.269 13.2152 179.864 13.4683C179.104 13.9578 178.117 14.2025 176.902 14.2025C175.974 14.2025 175.121 14.0506 174.345 13.7468C173.99 13.5949 173.704 13.4262 173.484 13.2405C173.265 13.0548 173.155 12.8861 173.155 12.7342C173.155 12.5654 173.214 12.4304 173.332 12.3291C173.45 12.211 173.585 12.1519 173.737 12.1519C173.889 12.1519 174.066 12.2025 174.269 12.3038C174.471 12.3882 174.716 12.481 175.003 12.5823C175.779 12.8692 176.412 13.0127 176.902 13.0127C177.391 13.0127 177.78 12.9789 178.066 12.9114C178.353 12.8439 178.615 12.7342 178.851 12.5823C179.358 12.2616 179.611 11.8228 179.611 11.2658C179.611 10.6245 179.163 10.1519 178.269 9.84809C177.931 9.72995 177.569 9.63712 177.18 9.56961C176.792 9.48522 176.412 9.40084 176.041 9.31645C175.67 9.23206 175.315 9.1308 174.978 9.01265C174.657 8.89451 174.362 8.73417 174.092 8.53164C173.535 8.12658 173.256 7.5443 173.256 6.7848C173.256 5.85653 173.653 5.15611 174.446 4.68354C175.104 4.29535 175.99 4.10126 177.104 4.10126C178.185 4.10126 179.062 4.27847 179.737 4.6329C180.294 4.91982 180.573 5.22362 180.573 5.5443C180.573 5.67932 180.514 5.79746 180.396 5.89873C180.277 5.99999 180.159 6.05062 180.041 6.05062C179.822 6.05062 179.636 6.00843 179.484 5.92404C179.349 5.82278 179.197 5.73839 179.028 5.67088C178.877 5.58649 178.699 5.51898 178.497 5.46835C178.109 5.36708 177.628 5.31645 177.054 5.31645Z" fill="white"/>
<path d="M161.554 9.18987C161.554 8.58227 161.647 7.96624 161.833 7.34176C162.035 6.71729 162.339 6.16877 162.744 5.6962C163.622 4.6329 164.837 4.10126 166.39 4.10126C167.909 4.10126 169.124 4.6329 170.035 5.6962C170.828 6.62447 171.225 7.78058 171.225 9.16455C171.225 10.5316 170.828 11.6878 170.035 12.6329C169.141 13.6793 167.925 14.2025 166.39 14.2025C164.82 14.2025 163.605 13.6793 162.744 12.6329C161.951 11.6709 161.554 10.5232 161.554 9.18987ZM163.225 9.18987C163.225 9.59493 163.284 10.0253 163.402 10.481C163.52 10.9367 163.706 11.3502 163.959 11.7215C164.55 12.5823 165.36 13.0127 166.39 13.0127C167.436 13.0127 168.246 12.5823 168.82 11.7215C169.293 10.9958 169.529 10.1435 169.529 9.16455C169.529 8.20252 169.293 7.3502 168.82 6.60759C168.263 5.74683 167.453 5.31645 166.39 5.31645C165.343 5.31645 164.533 5.74683 163.959 6.60759C163.47 7.33333 163.225 8.19408 163.225 9.18987Z" fill="white"/>
<path d="M150.949 5.03797C150.949 4.80168 151.025 4.62446 151.177 4.50632C151.345 4.38818 151.573 4.32911 151.86 4.32911C152.4 4.32911 152.62 4.86075 152.518 5.92404C152.906 5.11392 153.649 4.54852 154.746 4.22784C155.084 4.14345 155.455 4.10126 155.86 4.10126C156.265 4.10126 156.67 4.17721 157.075 4.32911C157.497 4.46413 157.869 4.68354 158.189 4.98734C158.881 5.64556 159.227 6.61603 159.227 7.89873V13.2658C159.227 13.519 159.143 13.7046 158.974 13.8228C158.805 13.9409 158.62 14 158.417 14C158.231 14 158.054 13.9409 157.885 13.8228C157.733 13.6878 157.658 13.5021 157.658 13.2658V7.77214C157.658 6.59071 157.193 5.82278 156.265 5.46835C155.995 5.36708 155.683 5.31645 155.328 5.31645C154.991 5.31645 154.645 5.38396 154.29 5.51898C153.936 5.654 153.632 5.83122 153.379 6.05062C152.805 6.55695 152.518 7.33333 152.518 8.37974V13.2658C152.518 13.519 152.434 13.7046 152.265 13.8228C152.096 13.9409 151.911 14 151.708 14C151.506 14 151.328 13.9409 151.177 13.8228C151.025 13.6878 150.949 13.5021 150.949 13.2658V5.03797Z" fill="white"/>
<path d="M144.87 4.32911C145.36 4.32911 145.604 4.57383 145.604 5.06328V5.92404C146.026 4.70885 146.912 4.10126 148.262 4.10126C148.516 4.10126 148.71 4.17721 148.845 4.32911C148.98 4.46413 149.047 4.61603 149.047 4.7848C149.047 4.95358 148.98 5.10548 148.845 5.2405C148.727 5.37552 148.49 5.44303 148.136 5.44303C147.781 5.44303 147.435 5.51898 147.098 5.67088C146.777 5.8059 146.507 5.99999 146.288 6.25316C145.832 6.81012 145.604 7.55273 145.604 8.481V13.2658C145.604 13.5021 145.52 13.6878 145.351 13.8228C145.182 13.9409 145.022 14 144.87 14C144.718 14 144.592 13.9916 144.49 13.9747C144.406 13.9409 144.33 13.8987 144.262 13.8481C144.111 13.7131 144.035 13.519 144.035 13.2658V5.06328C144.035 4.827 144.111 4.64978 144.262 4.53164C144.431 4.39662 144.634 4.32911 144.87 4.32911Z" fill="white"/>
<path d="M138.441 8.10126L139.555 8.12658V7.29113C139.555 5.97468 138.812 5.31645 137.327 5.31645C136.635 5.31645 136.137 5.37552 135.833 5.49366C135.479 5.62868 135.142 5.78902 134.821 5.97468C134.5 6.14345 134.264 6.22784 134.112 6.22784C133.977 6.22784 133.85 6.17721 133.732 6.07594C133.631 5.9578 133.58 5.82278 133.58 5.67088C133.58 5.51898 133.648 5.38396 133.783 5.26582C134.593 4.48944 135.791 4.10126 137.378 4.10126C139.15 4.10126 140.289 4.70885 140.796 5.92404C140.981 6.34598 141.074 6.84387 141.074 7.41771L141.049 13.3164C141.049 13.5527 140.973 13.7299 140.821 13.8481C140.669 13.9494 140.492 14 140.289 14C140.104 14 139.935 13.9494 139.783 13.8481C139.631 13.7299 139.555 13.5612 139.555 13.3418V12.4304C139.15 13.2911 138.416 13.8481 137.352 14.1013C137.015 14.1688 136.644 14.2025 136.239 14.2025C135.85 14.2025 135.454 14.135 135.049 14C134.644 13.8818 134.289 13.6962 133.985 13.443C133.344 12.9367 133.023 12.2278 133.023 11.3164C133.023 9.17299 134.829 8.10126 138.441 8.10126ZM139.555 9.26582C139.268 9.28269 138.939 9.29113 138.568 9.29113C138.213 9.29113 137.85 9.29957 137.479 9.31645C137.125 9.33333 136.77 9.37552 136.416 9.44303C136.078 9.51054 135.774 9.61181 135.504 9.74683C134.897 10.0844 134.593 10.5907 134.593 11.2658C134.593 11.8059 134.804 12.2447 135.226 12.5823C135.563 12.8354 136.053 12.9789 136.694 13.0127C137.471 13.0127 138.129 12.7679 138.669 12.2785C139.226 11.789 139.521 11.0717 139.555 10.1266V9.26582Z" fill="white"/>
<path d="M127.78 4.32911C128.27 4.32911 128.514 4.57383 128.514 5.06328V5.92404C128.936 4.70885 129.822 4.10126 131.173 4.10126C131.426 4.10126 131.62 4.17721 131.755 4.32911C131.89 4.46413 131.957 4.61603 131.957 4.7848C131.957 4.95358 131.89 5.10548 131.755 5.2405C131.637 5.37552 131.4 5.44303 131.046 5.44303C130.692 5.44303 130.346 5.51898 130.008 5.67088C129.687 5.8059 129.417 5.99999 129.198 6.25316C128.742 6.81012 128.514 7.55273 128.514 8.481V13.2658C128.514 13.5021 128.43 13.6878 128.261 13.8228C128.092 13.9409 127.932 14 127.78 14C127.628 14 127.502 13.9916 127.4 13.9747C127.316 13.9409 127.24 13.8987 127.173 13.8481C127.021 13.7131 126.945 13.519 126.945 13.2658V5.06328C126.945 4.827 127.021 4.64978 127.173 4.53164C127.341 4.39662 127.544 4.32911 127.78 4.32911Z" fill="white"/>
<path d="M125.164 13.4177C125.164 13.9409 124.565 14.2025 123.367 14.2025C122.455 14.2025 121.806 13.9662 121.417 13.4937C121.012 12.9704 120.81 12.1013 120.81 10.8861V5.49366H119.645C119.443 5.49366 119.282 5.43458 119.164 5.31644C119.063 5.1983 119.012 5.06328 119.012 4.91138C119.012 4.75948 119.063 4.62446 119.164 4.50631C119.265 4.38817 119.426 4.3291 119.645 4.3291H120.86L120.987 1.5696C121.004 1.36707 121.088 1.20674 121.24 1.08859C121.392 0.970449 121.552 0.911377 121.721 0.911377C122.16 0.911377 122.379 1.12235 122.379 1.54429V4.3291H124.126C124.329 4.3291 124.481 4.38817 124.582 4.50631C124.7 4.62446 124.759 4.75948 124.759 4.91138C124.759 5.06328 124.7 5.1983 124.582 5.31644C124.481 5.43458 124.329 5.49366 124.126 5.49366H122.379V10.0253C122.379 11.2574 122.422 12.0169 122.506 12.3038C122.607 12.5738 122.734 12.7595 122.886 12.8607C123.054 12.962 123.282 13.0126 123.569 13.0126L124.607 12.9114C124.793 12.9114 124.928 12.9704 125.012 13.0886C125.114 13.2067 125.164 13.3164 125.164 13.4177Z" fill="white"/>
<path d="M108.761 5.03797C108.761 4.80168 108.837 4.62446 108.989 4.50632C109.158 4.38818 109.386 4.32911 109.673 4.32911C110.213 4.32911 110.432 4.86075 110.331 5.92404C110.719 5.11392 111.462 4.54852 112.559 4.22784C112.896 4.14345 113.267 4.10126 113.673 4.10126C114.078 4.10126 114.483 4.17721 114.888 4.32911C115.31 4.46413 115.681 4.68354 116.002 4.98734C116.694 5.64556 117.04 6.61603 117.04 7.89873V13.2658C117.04 13.519 116.955 13.7046 116.786 13.8228C116.618 13.9409 116.432 14 116.23 14C116.044 14 115.867 13.9409 115.698 13.8228C115.546 13.6878 115.47 13.5021 115.47 13.2658V7.77214C115.47 6.59071 115.006 5.82278 114.078 5.46835C113.808 5.36708 113.495 5.31645 113.141 5.31645C112.803 5.31645 112.457 5.38396 112.103 5.51898C111.749 5.654 111.445 5.83122 111.192 6.05062C110.618 6.55695 110.331 7.33333 110.331 8.37974V13.2658C110.331 13.519 110.246 13.7046 110.078 13.8228C109.909 13.9409 109.723 14 109.521 14C109.318 14 109.141 13.9409 108.989 13.8228C108.837 13.6878 108.761 13.5021 108.761 13.2658V5.03797Z" fill="white"/>
<path d="M96.73 9.18987C96.73 8.58227 96.8228 7.96624 97.0085 7.34176C97.211 6.71729 97.5148 6.16877 97.9199 5.6962C98.7975 4.6329 100.013 4.10126 101.565 4.10126C103.084 4.10126 104.3 4.6329 105.211 5.6962C106.004 6.62447 106.401 7.78058 106.401 9.16455C106.401 10.5316 106.004 11.6878 105.211 12.6329C104.316 13.6793 103.101 14.2025 101.565 14.2025C99.9958 14.2025 98.7806 13.6793 97.9199 12.6329C97.1266 11.6709 96.73 10.5232 96.73 9.18987ZM98.4009 9.18987C98.4009 9.59493 98.4599 10.0253 98.5781 10.481C98.6962 10.9367 98.8819 11.3502 99.135 11.7215C99.7258 12.5823 100.536 13.0127 101.565 13.0127C102.612 13.0127 103.422 12.5823 103.996 11.7215C104.468 10.9958 104.705 10.1435 104.705 9.16455C104.705 8.20252 104.468 7.3502 103.996 6.60759C103.439 5.74683 102.629 5.31645 101.565 5.31645C100.519 5.31645 99.7089 5.74683 99.135 6.60759C98.6456 7.33333 98.4009 8.19408 98.4009 9.18987Z" fill="white"/>
<path d="M87.308 9.16455C87.308 7.72995 87.7046 6.54008 88.4979 5.59493C89.3586 4.59915 90.4979 4.10126 91.9156 4.10126C92.6244 4.10126 93.1983 4.18565 93.6371 4.35442C94.4641 4.6751 94.8776 5.01265 94.8776 5.36708C94.8776 5.51898 94.827 5.654 94.7257 5.77214C94.6244 5.89029 94.5063 5.94936 94.3713 5.94936C94.2531 5.94936 94.1519 5.93248 94.0675 5.89873C93.4092 5.52742 92.7932 5.34176 92.2194 5.34176C91.6624 5.32489 91.1898 5.40927 90.8017 5.59493C90.4135 5.78058 90.0844 6.03375 89.8143 6.35442C89.2405 7.06328 88.9536 7.99155 88.9536 9.13923C88.9536 10.1856 89.173 11.0633 89.6118 11.7721C90.135 12.5991 90.9451 13.0127 92.0422 13.0127C92.7004 13.0127 93.4346 12.8017 94.2447 12.3797C94.5316 12.2785 94.7341 12.2954 94.8523 12.4304C94.9873 12.5654 95.0548 12.7257 95.0548 12.9114C95.0548 13.0802 94.9451 13.2489 94.7257 13.4177C94.5063 13.5865 94.2362 13.7299 93.9156 13.8481C92.3966 14.3544 91.0464 14.3375 89.8649 13.7975C88.7679 13.2911 88.0084 12.3966 87.5865 11.1139C87.4008 10.5063 87.308 9.85653 87.308 9.16455Z" fill="white"/>
<path d="M76.6518 5.03797C76.6518 4.80168 76.7277 4.62446 76.8796 4.50632C77.0484 4.38818 77.2763 4.32911 77.5632 4.32911C78.1033 4.32911 78.3227 4.86075 78.2214 5.92404C78.6096 5.11392 79.3522 4.54852 80.4493 4.22784C80.7868 4.14345 81.1581 4.10126 81.5632 4.10126C81.9682 4.10126 82.3733 4.17721 82.7784 4.32911C83.2003 4.46413 83.5716 4.68354 83.8923 4.98734C84.5843 5.64556 84.9303 6.61603 84.9303 7.89873V13.2658C84.9303 13.519 84.8459 13.7046 84.6771 13.8228C84.5083 13.9409 84.3227 14 84.1201 14C83.9345 14 83.7573 13.9409 83.5885 13.8228C83.4366 13.6878 83.3607 13.5021 83.3607 13.2658V7.77214C83.3607 6.59071 82.8965 5.82278 81.9682 5.46835C81.6982 5.36708 81.386 5.31645 81.0315 5.31645C80.694 5.31645 80.348 5.38396 79.9936 5.51898C79.6391 5.654 79.3353 5.83122 79.0822 6.05062C78.5083 6.55695 78.2214 7.33333 78.2214 8.37974V13.2658C78.2214 13.519 78.137 13.7046 77.9682 13.8228C77.7995 13.9409 77.6138 14 77.4113 14C77.2088 14 77.0315 13.9409 76.8796 13.8228C76.7277 13.6878 76.6518 13.5021 76.6518 13.2658V5.03797Z" fill="white"/>
<path d="M74.2749 8.86075C74.2749 9.01265 74.2242 9.14767 74.123 9.26582C74.0217 9.36708 73.8614 9.41771 73.6419 9.41771H66.6546C66.6884 10.6667 67.0175 11.5696 67.6419 12.1266C68.3002 12.7173 69.0597 13.0127 69.9204 13.0127C70.8318 13.0127 71.8023 12.6751 72.8318 12C72.9668 11.8987 73.1019 11.8481 73.2369 11.8481C73.3888 11.8481 73.5069 11.8987 73.5913 12C73.6757 12.1013 73.7179 12.2025 73.7179 12.3038C73.7179 12.5063 73.6504 12.6751 73.5154 12.8101C72.5196 13.7384 71.2791 14.2025 69.7938 14.2025C68.4099 14.2025 67.2875 13.7553 66.4268 12.8608C65.4816 11.8987 65.009 10.6667 65.009 9.16455C65.009 7.76371 65.4057 6.59071 66.1989 5.64556C67.0597 4.61603 68.2073 4.10126 69.6419 4.10126C71.1441 4.10126 72.3002 4.55696 73.1103 5.46835C73.8529 6.31223 74.2411 7.44303 74.2749 8.86075ZM72.7306 8.40506C72.663 7.45991 72.3761 6.70885 71.8698 6.15189C71.3635 5.59493 70.6293 5.31645 69.6673 5.31645C68.8234 5.31645 68.1314 5.62025 67.5913 6.22784C67.0681 6.81856 66.7727 7.5443 66.7052 8.40506H72.7306Z" fill="white"/>
<path d="M57.7514 8.86075C57.7514 9.01265 57.7008 9.14767 57.5995 9.26582C57.4983 9.36708 57.3379 9.41771 57.1185 9.41771H50.1312C50.1649 10.6667 50.494 11.5696 51.1185 12.1266C51.7767 12.7173 52.5362 13.0127 53.397 13.0127C54.3084 13.0127 55.2788 12.6751 56.3084 12C56.4434 11.8987 56.5784 11.8481 56.7134 11.8481C56.8653 11.8481 56.9835 11.8987 57.0679 12C57.1523 12.1013 57.1945 12.2025 57.1945 12.3038C57.1945 12.5063 57.1269 12.6751 56.9919 12.8101C55.9961 13.7384 54.7556 14.2025 53.2704 14.2025C51.8864 14.2025 50.7641 13.7553 49.9033 12.8608C48.9582 11.8987 48.4856 10.6667 48.4856 9.16455C48.4856 7.76371 48.8822 6.59071 49.6755 5.64556C50.5362 4.61603 51.6839 4.10126 53.1185 4.10126C54.6206 4.10126 55.7767 4.55696 56.5869 5.46835C57.3295 6.31223 57.7177 7.44303 57.7514 8.86075ZM56.2071 8.40506C56.1396 7.45991 55.8527 6.70885 55.3464 6.15189C54.84 5.59493 54.1058 5.31645 53.1438 5.31645C52.2999 5.31645 51.608 5.62025 51.0679 6.22784C50.5447 6.81856 50.2493 7.5443 50.1818 8.40506H56.2071Z" fill="white"/>
<path d="M45.467 14C44.9945 14 44.7244 13.7637 44.6569 13.2911V12.3797C44.2012 13.038 43.6864 13.5105 43.1126 13.7974C42.5388 14.0675 41.889 14.2025 41.1632 14.2025C40.4544 14.2025 39.8384 14.059 39.3151 13.7721C38.8088 13.4852 38.3953 13.1055 38.0746 12.6329C37.4333 11.654 37.1126 10.481 37.1126 9.1139C37.1126 7.71306 37.4417 6.55694 38.1 5.64555C38.8088 4.61601 39.8468 4.10124 41.2139 4.10124C42.294 4.10124 43.2308 4.43036 44.024 5.08859C44.2772 5.308 44.4881 5.5696 44.6569 5.87339V0.784788C44.6569 0.548501 44.7329 0.371286 44.8848 0.253143C45.0535 0.135 45.2392 0.0759277 45.4417 0.0759277C45.6443 0.0759277 45.8215 0.143438 45.9734 0.27846C46.1421 0.396602 46.2265 0.565379 46.2265 0.784788V13.2658C46.2265 13.519 46.1421 13.7046 45.9734 13.8228C45.8215 13.9409 45.6527 14 45.467 14ZM43.062 5.62023C42.6738 5.4177 42.2012 5.31643 41.6443 5.31643C41.1042 5.31643 40.6485 5.42614 40.2772 5.64555C39.9059 5.86496 39.6105 6.15188 39.3911 6.50631C38.9692 7.18141 38.7582 8.0253 38.7582 9.03795C38.7582 11.0464 39.3489 12.3122 40.5303 12.8354C40.8004 12.9536 41.1801 13.0126 41.6696 13.0126C42.159 13.0126 42.6063 12.9029 43.0113 12.6835C43.4164 12.4641 43.7371 12.1772 43.9734 11.8228C44.4122 11.1477 44.6316 10.2025 44.6316 8.98732C44.6316 7.29955 44.1084 6.17719 43.062 5.62023Z" fill="white"/>
<path d="M26.4565 5.03797C26.4565 4.80168 26.5324 4.62446 26.6843 4.50632C26.8531 4.38818 27.081 4.32911 27.3679 4.32911C27.908 4.32911 28.1274 4.86075 28.0261 5.92404C28.4143 5.11392 29.1569 4.54852 30.254 4.22784C30.5915 4.14345 30.9628 4.10126 31.3679 4.10126C31.7729 4.10126 32.178 4.17721 32.5831 4.32911C33.005 4.46413 33.3763 4.68354 33.697 4.98734C34.389 5.64556 34.735 6.61603 34.735 7.89873V13.2658C34.735 13.519 34.6506 13.7046 34.4818 13.8228C34.313 13.9409 34.1274 14 33.9248 14C33.7392 14 33.562 13.9409 33.3932 13.8228C33.2413 13.6878 33.1653 13.5021 33.1653 13.2658V7.77214C33.1653 6.59071 32.7012 5.82278 31.7729 5.46835C31.5029 5.36708 31.1907 5.31645 30.8362 5.31645C30.4987 5.31645 30.1527 5.38396 29.7983 5.51898C29.4438 5.654 29.14 5.83122 28.8869 6.05062C28.313 6.55695 28.0261 7.33333 28.0261 8.37974V13.2658C28.0261 13.519 27.9417 13.7046 27.7729 13.8228C27.6042 13.9409 27.4185 14 27.216 14C27.0134 14 26.8362 13.9409 26.6843 13.8228C26.5324 13.6878 26.4565 13.5021 26.4565 13.2658V5.03797Z" fill="white"/>
<path d="M14.4253 9.18987C14.4253 8.58227 14.5181 7.96624 14.7038 7.34176C14.9063 6.71729 15.2101 6.16877 15.6152 5.6962C16.4928 4.6329 17.708 4.10126 19.2607 4.10126C20.7797 4.10126 21.9949 4.6329 22.9063 5.6962C23.6996 6.62447 24.0962 7.78058 24.0962 9.16455C24.0962 10.5316 23.6996 11.6878 22.9063 12.6329C22.0118 13.6793 20.7966 14.2025 19.2607 14.2025C17.6911 14.2025 16.4759 13.6793 15.6152 12.6329C14.8219 11.6709 14.4253 10.5232 14.4253 9.18987ZM16.0962 9.18987C16.0962 9.59493 16.1553 10.0253 16.2734 10.481C16.3915 10.9367 16.5772 11.3502 16.8304 11.7215C17.4211 12.5823 18.2312 13.0127 19.2607 13.0127C20.3071 13.0127 21.1173 12.5823 21.6911 11.7215C22.1637 10.9958 22.4 10.1435 22.4 9.16455C22.4 8.20252 22.1637 7.3502 21.6911 6.60759C21.1342 5.74683 20.324 5.31645 19.2607 5.31645C18.2143 5.31645 17.4042 5.74683 16.8304 6.60759C16.3409 7.33333 16.0962 8.19408 16.0962 9.18987Z" fill="white"/>
<path d="M1.60759 14C1.2194 14 0.957797 13.8312 0.822776 13.4936C0.772143 13.3924 0.746826 13.2827 0.746826 13.1645V0.91137C0.746826 0.523184 0.924041 0.261582 1.27847 0.126561C1.37974 0.0928059 1.48944 0.0759277 1.60759 0.0759277H4.92404C8.62024 0.0759277 10.9494 1.40082 11.9114 4.05061C12.2321 4.92825 12.3924 5.94091 12.3924 7.08859C12.3924 8.21939 12.2236 9.21517 11.8861 10.0759C11.5654 10.9367 11.0844 11.654 10.443 12.2278C9.14345 13.4093 7.32067 14 4.97467 14H1.60759ZM2.46834 12.6329H5.15189C6.99155 12.6329 8.36708 12.1266 9.27847 11.1139C10.1224 10.2025 10.5443 8.84386 10.5443 7.03795C10.5443 5.18141 10.0211 3.77213 8.97467 2.81011C8.01265 1.89871 6.58649 1.44302 4.69619 1.44302H2.46834V12.6329Z" fill="white"/>
</svg>
