<svg width="108" height="12" viewBox="0 0 108 12" fill="none" xmlns="http://www.w3.org/2000/svg">
<path d="M103.956 10.6633C103.862 10.8878 103.678 11 103.407 11C103.147 11 102.952 10.8878 102.822 10.6633C102.775 10.5924 102.751 10.5215 102.751 10.4506C102.751 10.3679 102.775 10.2793 102.822 10.1848L106.295 2.24558H101.652C101.487 2.24558 101.363 2.19832 101.28 2.10381C101.197 1.99748 101.156 1.88524 101.156 1.7671C101.156 1.63714 101.197 1.519 101.28 1.41267C101.363 1.30634 101.487 1.25317 101.652 1.25317H106.88C107.128 1.25317 107.305 1.31225 107.412 1.43039C107.53 1.54853 107.589 1.6903 107.589 1.85571C107.589 2.02111 107.554 2.1806 107.483 2.33419L103.956 10.6633Z" fill="white"/>
<path d="M94.7271 3.53925C94.6444 3.58651 94.5499 3.61014 94.4436 3.61014C94.3373 3.61014 94.2428 3.56288 94.1601 3.46836C94.0774 3.37385 94.036 3.28524 94.036 3.20254C94.036 3.03714 94.101 2.90127 94.2309 2.79495L96.5347 1.34178C96.6174 1.28271 96.7297 1.25317 96.8715 1.25317C97.0132 1.25317 97.1432 1.30043 97.2613 1.39495C97.3795 1.48946 97.4385 1.63714 97.4385 1.83798V10.4329C97.4385 10.7047 97.3145 10.8819 97.0664 10.9646C96.9955 10.9882 96.9187 11 96.836 11C96.7651 11 96.6942 10.9882 96.6234 10.9646C96.5525 10.9409 96.4875 10.9055 96.4284 10.8582C96.3103 10.7637 96.2512 10.622 96.2512 10.4329V2.54684L94.7271 3.53925Z" fill="white"/>
<path d="M89.778 10.5924C89.7544 10.5097 89.7426 10.427 89.7426 10.3443C89.7426 10.2616 89.7544 10.1789 89.778 10.0962C89.8134 10.0135 89.8607 9.94263 89.9198 9.88356C89.9907 9.82448 90.0734 9.77723 90.1679 9.74178C90.2624 9.69453 90.3687 9.6709 90.4869 9.6709C90.605 9.6709 90.7054 9.69453 90.7881 9.74178C90.8826 9.77723 90.9594 9.82448 91.0185 9.88356C91.0894 9.94263 91.1366 10.0135 91.1603 10.0962C91.1957 10.1789 91.2134 10.2616 91.2134 10.3443C91.2134 10.427 91.1957 10.5097 91.1603 10.5924C91.1366 10.6633 91.0953 10.7283 91.0362 10.7874C90.8945 10.9291 90.735 11 90.5577 11C90.3923 11 90.2624 10.9823 90.1679 10.9468C90.0734 10.9114 89.9907 10.8641 89.9198 10.8051C89.8607 10.7342 89.8134 10.6633 89.778 10.5924Z" fill="white"/>
<path d="M84.9755 4.92149C83.9476 4.92149 83.4337 5.24639 83.4337 5.89618C83.4337 6.17972 83.5755 6.40419 83.859 6.5696C84.0717 6.67592 84.5088 6.81179 85.1704 6.97719C85.832 7.13078 86.3341 7.26073 86.6767 7.36706C87.0193 7.47339 87.3029 7.66833 87.5274 7.95187C87.7518 8.23542 87.8641 8.57213 87.8641 8.962C87.8641 9.34006 87.7814 9.67086 87.616 9.9544C87.4506 10.2261 87.2261 10.4506 86.9425 10.6278C86.4109 10.9704 85.7198 11.1417 84.8691 11.1417C84.2193 11.1417 83.6227 11.0354 83.0793 10.8228C82.8312 10.7164 82.6303 10.5983 82.4767 10.4683C82.3231 10.3384 82.2463 10.2202 82.2463 10.1139C82.2463 9.99576 82.2877 9.90124 82.3704 9.83035C82.4531 9.74765 82.5476 9.7063 82.6539 9.7063C82.7603 9.7063 82.8843 9.74175 83.0261 9.81263C83.1679 9.87171 83.3392 9.93668 83.54 10.0076C84.0835 10.2084 84.5265 10.3088 84.8691 10.3088C85.2117 10.3088 85.4835 10.2852 85.6843 10.2379C85.8852 10.1907 86.0683 10.1139 86.2337 10.0076C86.5881 9.7831 86.7653 9.47593 86.7653 9.08605C86.7653 8.63711 86.4522 8.3063 85.8261 8.09365C85.5898 8.01095 85.3358 7.94597 85.0641 7.89871C84.7923 7.83964 84.5265 7.78057 84.2666 7.72149C84.0067 7.66242 83.7586 7.59154 83.5223 7.50884C83.2978 7.42614 83.0911 7.3139 82.902 7.17213C82.5122 6.88858 82.3172 6.48099 82.3172 5.94934C82.3172 5.29955 82.5949 4.80926 83.1501 4.47846C83.6109 4.20673 84.2311 4.07086 85.0109 4.07086C85.767 4.07086 86.3814 4.19491 86.8539 4.44301C87.2438 4.64386 87.4387 4.85652 87.4387 5.08099C87.4387 5.1755 87.3974 5.2582 87.3147 5.32909C87.232 5.39998 87.1493 5.43542 87.0666 5.43542C86.913 5.43542 86.783 5.40588 86.6767 5.34681C86.5822 5.27592 86.4759 5.21685 86.3577 5.1696C86.2514 5.11052 86.1274 5.06327 85.9856 5.02782C85.7139 4.95694 85.3771 4.92149 84.9755 4.92149Z" fill="white"/>
<path d="M79.3389 1.80254C79.3389 1.62533 79.392 1.48946 79.4984 1.39495C79.6165 1.30043 79.7287 1.25317 79.8351 1.25317C79.9414 1.25317 80.0241 1.26499 80.0832 1.28862C80.1422 1.31225 80.1954 1.34769 80.2427 1.39495C80.3608 1.48946 80.4199 1.62533 80.4199 1.80254V10.4506C80.4199 10.6279 80.3608 10.7637 80.2427 10.8582C80.1245 10.9528 79.9946 11 79.8528 11C79.7228 11 79.6047 10.9587 79.4984 10.876C79.392 10.7814 79.3389 10.6397 79.3389 10.4506V1.80254Z" fill="white"/>
<path d="M77.3883 1.87339C77.3883 2.03879 77.3233 2.18647 77.1933 2.31643C77.0634 2.43457 76.8802 2.49364 76.644 2.49364C76.4077 2.49364 76.2246 2.43457 76.0946 2.31643C75.9646 2.18647 75.8997 2.03879 75.8997 1.87339C75.8997 1.70799 75.9646 1.56031 76.0946 1.43035C76.2246 1.30039 76.4077 1.23541 76.644 1.23541C76.8802 1.23541 77.0634 1.30039 77.1933 1.43035C77.3233 1.56031 77.3883 1.70799 77.3883 1.87339ZM76.1123 4.77972C76.1123 4.6025 76.1655 4.46664 76.2718 4.37212C76.39 4.27761 76.5022 4.23035 76.6085 4.23035C76.7148 4.23035 76.7975 4.24216 76.8566 4.26579C76.9157 4.28942 76.9689 4.32486 77.0161 4.37212C77.1343 4.45482 77.1933 4.59069 77.1933 4.77972V10.4506C77.1933 10.6278 77.1343 10.7637 77.0161 10.8582C76.898 10.9527 76.768 11 76.6262 11C76.4963 11 76.3781 10.9586 76.2718 10.8759C76.1655 10.7814 76.1123 10.6396 76.1123 10.4506V4.77972Z" fill="white"/>
<path d="M72.1791 6.87086L72.9589 6.88858V6.30377C72.9589 5.38225 72.439 4.92149 71.3994 4.92149C70.915 4.92149 70.5665 4.96284 70.3538 5.04554C70.1057 5.14006 69.8694 5.2523 69.645 5.38225C69.4205 5.5004 69.2551 5.55947 69.1488 5.55947C69.0542 5.55947 68.9656 5.52403 68.8829 5.45314C68.812 5.37044 68.7766 5.27592 68.7766 5.1696C68.7766 5.06327 68.8239 4.96875 68.9184 4.88605C69.4855 4.34259 70.3243 4.07086 71.4348 4.07086C72.6753 4.07086 73.4728 4.49618 73.8272 5.34681C73.9572 5.64217 74.0222 5.99069 74.0222 6.39238L74.0044 10.5215C74.0044 10.6869 73.9513 10.8109 73.8449 10.8936C73.7386 10.9645 73.6146 11 73.4728 11C73.3428 11 73.2247 10.9645 73.1184 10.8936C73.012 10.8109 72.9589 10.6928 72.9589 10.5392V9.90124C72.6753 10.5038 72.1614 10.8936 71.4171 11.0709C71.1808 11.1181 70.9209 11.1417 70.6374 11.1417C70.3656 11.1417 70.088 11.0945 69.8044 11C69.5209 10.9173 69.2728 10.7873 69.0601 10.6101C68.6112 10.2557 68.3867 9.75947 68.3867 9.12149C68.3867 7.62107 69.6509 6.87086 72.1791 6.87086ZM72.9589 7.68605C72.758 7.69787 72.5277 7.70377 72.2677 7.70377C72.0196 7.70377 71.7656 7.70968 71.5057 7.72149C71.2576 7.73331 71.0095 7.76284 70.7614 7.8101C70.5251 7.85736 70.3125 7.92825 70.1234 8.02276C69.6981 8.25905 69.4855 8.61348 69.4855 9.08605C69.4855 9.46411 69.6331 9.77128 69.9285 10.0076C70.1648 10.1848 70.5074 10.2852 70.9563 10.3088C71.4998 10.3088 71.9606 10.1375 72.3386 9.79491C72.7285 9.4523 72.9352 8.95019 72.9589 8.28858V7.68605Z" fill="white"/>
<path d="M58.8634 2.05064C58.8634 1.82617 58.9225 1.65486 59.0406 1.53672C59.2296 1.34769 59.4128 1.25317 59.59 1.25317C59.8972 1.25317 60.1571 1.38313 60.3697 1.64305L65.5444 9.44052V1.80254C65.5444 1.54263 65.6626 1.37132 65.8988 1.28862C65.9697 1.26499 66.0406 1.25317 66.1115 1.25317C66.1824 1.25317 66.2533 1.26499 66.3242 1.28862C66.395 1.31225 66.4541 1.34769 66.5014 1.39495C66.6195 1.48946 66.6786 1.62533 66.6786 1.80254V10.1848C66.6786 10.5747 66.5132 10.8287 66.1824 10.9468C66.0761 10.9823 65.9638 11 65.8457 11C65.5503 11 65.3081 10.8701 65.1191 10.6101L60.0153 2.919V10.4684C60.0153 10.622 59.968 10.7342 59.8735 10.8051C59.7318 10.935 59.5841 11 59.4305 11C59.2887 11 59.1588 10.9587 59.0406 10.876C58.9225 10.7814 58.8634 10.6456 58.8634 10.4684V2.05064Z" fill="white"/>
<path d="M54.9421 10.5924C54.9184 10.5097 54.9066 10.427 54.9066 10.3443C54.9066 10.2616 54.9184 10.1789 54.9421 10.0962C54.9775 10.0135 55.0248 9.94263 55.0838 9.88356C55.1547 9.82448 55.2374 9.77723 55.3319 9.74178C55.4264 9.69453 55.5328 9.6709 55.6509 9.6709C55.7691 9.6709 55.8695 9.69453 55.9522 9.74178C56.0467 9.77723 56.1235 9.82448 56.1826 9.88356C56.2534 9.94263 56.3007 10.0135 56.3243 10.0962C56.3598 10.1789 56.3775 10.2616 56.3775 10.3443C56.3775 10.427 56.3598 10.5097 56.3243 10.5924C56.3007 10.6633 56.2594 10.7283 56.2003 10.7874C56.0585 10.9291 55.899 11 55.7218 11C55.5564 11 55.4264 10.9823 55.3319 10.9468C55.2374 10.9114 55.1547 10.8641 55.0838 10.8051C55.0248 10.7342 54.9775 10.6633 54.9421 10.5924Z" fill="white"/>
<path d="M47.7472 5.52403C48.3143 4.55525 49.1354 4.07086 50.2105 4.07086C51.3093 4.07086 52.0477 4.53753 52.4257 5.47086C52.5557 5.80166 52.6207 6.20335 52.6207 6.67592V10.4861C52.6207 10.6633 52.5616 10.7932 52.4434 10.8759C52.3253 10.9586 52.1953 11 52.0536 11C51.9236 11 51.7996 10.9586 51.6814 10.8759C51.5751 10.7932 51.5219 10.6633 51.5219 10.4861V6.60504C51.5219 5.76622 51.197 5.23457 50.5472 5.0101C50.3582 4.95103 50.1456 4.92149 49.9093 4.92149C49.6848 4.92149 49.4544 4.96284 49.2181 5.04554C48.9818 5.11643 48.7633 5.23457 48.5624 5.39997C48.1371 5.76622 47.9245 6.31559 47.9245 7.04808V10.4861C47.9245 10.6633 47.8654 10.7932 47.7472 10.8759C47.6291 10.9586 47.4991 11 47.3574 11C47.2274 11 47.1034 10.9586 46.9852 10.8759C46.8789 10.7814 46.8257 10.6515 46.8257 10.4861V6.60504C46.8257 5.76622 46.5008 5.23457 45.851 5.0101C45.662 4.95103 45.4434 4.92149 45.1953 4.92149C44.9591 4.92149 44.7169 4.96875 44.4688 5.06327C44.2325 5.14597 44.0257 5.27592 43.8485 5.45314C43.4468 5.8312 43.246 6.36875 43.246 7.0658V10.4861C43.246 10.6633 43.1869 10.7932 43.0688 10.8759C42.9506 10.9586 42.8207 11 42.6789 11C42.5371 11 42.4072 10.9586 42.289 10.8759C42.1827 10.7932 42.1295 10.6633 42.1295 10.4861V4.72656C42.1295 4.56116 42.1886 4.43711 42.3067 4.35441C42.4249 4.2717 42.5371 4.23035 42.6434 4.23035C42.7498 4.23035 42.8325 4.24217 42.8915 4.2658C42.9506 4.27761 43.0097 4.30124 43.0688 4.33668C43.1869 4.44301 43.246 4.56706 43.246 4.70884V5.34681C43.5059 4.74428 44.0257 4.3485 44.8055 4.15947C45.0418 4.1004 45.278 4.07086 45.5143 4.07086C46.6485 4.07086 47.3928 4.55525 47.7472 5.52403Z" fill="white"/>
<path d="M38.2319 6.87086L39.0116 6.88858V6.30377C39.0116 5.38225 38.4918 4.92149 37.4521 4.92149C36.9677 4.92149 36.6192 4.96284 36.4065 5.04554C36.1584 5.14006 35.9222 5.2523 35.6977 5.38225C35.4732 5.5004 35.3078 5.55947 35.2015 5.55947C35.107 5.55947 35.0184 5.52403 34.9357 5.45314C34.8648 5.37044 34.8293 5.27592 34.8293 5.1696C34.8293 5.06327 34.8766 4.96875 34.9711 4.88605C35.5382 4.34259 36.377 4.07086 37.4876 4.07086C38.7281 4.07086 39.5255 4.49618 39.88 5.34681C40.0099 5.64217 40.0749 5.99069 40.0749 6.39238L40.0572 10.5215C40.0572 10.6869 40.004 10.8109 39.8977 10.8936C39.7914 10.9645 39.6673 11 39.5255 11C39.3956 11 39.2774 10.9645 39.1711 10.8936C39.0648 10.8109 39.0116 10.6928 39.0116 10.5392V9.90124C38.7281 10.5038 38.2141 10.8936 37.4698 11.0709C37.2335 11.1181 36.9736 11.1417 36.6901 11.1417C36.4184 11.1417 36.1407 11.0945 35.8572 11C35.5736 10.9173 35.3255 10.7873 35.1129 10.6101C34.6639 10.2557 34.4395 9.75947 34.4395 9.12149C34.4395 7.62107 35.7036 6.87086 38.2319 6.87086ZM39.0116 7.68605C38.8108 7.69787 38.5804 7.70377 38.3205 7.70377C38.0724 7.70377 37.8184 7.70968 37.5584 7.72149C37.3103 7.73331 37.0622 7.76284 36.8141 7.8101C36.5778 7.85736 36.3652 7.92825 36.1762 8.02276C35.7508 8.25905 35.5382 8.61348 35.5382 9.08605C35.5382 9.46411 35.6859 9.77128 35.9812 10.0076C36.2175 10.1848 36.5601 10.2852 37.0091 10.3088C37.5525 10.3088 38.0133 10.1375 38.3913 9.79491C38.7812 9.4523 38.988 8.95019 39.0116 8.28858V7.68605Z" fill="white"/>
<path d="M33.3603 7.40251C33.3603 7.50884 33.3249 7.60335 33.254 7.68605C33.1831 7.75694 33.0709 7.79238 32.9173 7.79238H28.0262C28.0498 8.66664 28.2802 9.29871 28.7173 9.68858C29.1781 10.1021 29.7097 10.3088 30.3122 10.3088C30.9502 10.3088 31.6295 10.0725 32.3502 9.59998C32.4447 9.52909 32.5392 9.49365 32.6338 9.49365C32.7401 9.49365 32.8228 9.52909 32.8819 9.59998C32.9409 9.67086 32.9705 9.74175 32.9705 9.81263C32.9705 9.95441 32.9232 10.0725 32.8287 10.1671C32.1317 10.8169 31.2633 11.1417 30.2236 11.1417C29.2549 11.1417 28.4692 10.8287 27.8667 10.2025C27.2051 9.52909 26.8743 8.66664 26.8743 7.61516C26.8743 6.63457 27.1519 5.81348 27.7072 5.15187C28.3097 4.4312 29.1131 4.07086 30.1173 4.07086C31.1688 4.07086 31.9781 4.38985 32.5452 5.02782C33.065 5.61854 33.3367 6.4101 33.3603 7.40251ZM32.2793 7.08352C32.2321 6.42192 32.0312 5.89618 31.6768 5.5063C31.3224 5.11643 30.8084 4.92149 30.135 4.92149C29.5443 4.92149 29.0599 5.13415 28.6819 5.55947C28.3156 5.97297 28.1089 6.48099 28.0616 7.08352H32.2793Z" fill="white"/>
<path d="M23.0445 4.23035C23.3871 4.23035 23.5585 4.40166 23.5585 4.74428V5.34681C23.8538 4.49618 24.4741 4.07086 25.4192 4.07086C25.5964 4.07086 25.7323 4.12403 25.8268 4.23035C25.9213 4.32487 25.9686 4.4312 25.9686 4.54934C25.9686 4.66749 25.9213 4.77382 25.8268 4.86833C25.7441 4.96284 25.5787 5.0101 25.3306 5.0101C25.0825 5.0101 24.8403 5.06327 24.604 5.1696C24.3795 5.26411 24.1905 5.39998 24.0369 5.57719C23.7179 5.96706 23.5585 6.4869 23.5585 7.13668V10.4861C23.5585 10.6515 23.4994 10.7814 23.3812 10.8759C23.2631 10.9586 23.1509 11 23.0445 11C22.9382 11 22.8496 10.9941 22.7787 10.9823C22.7196 10.9586 22.6665 10.9291 22.6192 10.8936C22.5129 10.7991 22.4597 10.6633 22.4597 10.4861V4.74428C22.4597 4.57888 22.5129 4.45483 22.6192 4.37213C22.7374 4.27761 22.8791 4.23035 23.0445 4.23035Z" fill="white"/>
<path d="M13.0089 11C12.7372 11 12.5541 10.8819 12.4595 10.6456C12.4241 10.5747 12.4064 10.4979 12.4064 10.4152V1.83798C12.4064 1.56625 12.5304 1.38313 12.7785 1.28862C12.8494 1.26499 12.9262 1.25317 13.0089 1.25317H15.3304C17.9178 1.25317 19.5481 2.1806 20.2216 4.03545C20.446 4.6498 20.5583 5.35866 20.5583 6.16203C20.5583 6.9536 20.4401 7.65064 20.2038 8.25317C19.9794 8.85571 19.6427 9.35781 19.1937 9.7595C18.284 10.5865 17.0081 11 15.3659 11H13.0089ZM13.6114 10.043H15.4899C16.7777 10.043 17.7405 9.68862 18.3785 8.97976C18.9692 8.34178 19.2646 7.39073 19.2646 6.12659C19.2646 4.82701 18.8984 3.84052 18.1659 3.1671C17.4924 2.52912 16.4941 2.21014 15.1709 2.21014H13.6114V10.043Z" fill="white"/>
<path d="M3.96964 5.54175C3.87512 5.76623 3.80424 5.99661 3.75698 6.23289C3.70972 6.45737 3.6861 6.66412 3.6861 6.85315C3.6861 7.03036 3.70972 7.20167 3.75698 7.36707C3.80424 7.52066 3.87512 7.65652 3.96964 7.77466C4.15867 8.03458 4.41858 8.16454 4.74939 8.16454C5.10382 8.16454 5.41099 8.08774 5.67091 7.93416C6.10804 7.66243 6.39749 7.32572 6.53926 6.92403L7.08863 5.22277C7.12407 5.09281 7.14179 4.96285 7.14179 4.83289C7.14179 4.69112 7.10635 4.55526 7.03546 4.4253C6.96458 4.28353 6.87597 4.16538 6.76964 4.07087C6.52154 3.87002 6.26753 3.7696 6.00761 3.7696C5.75951 3.7696 5.53504 3.81686 5.3342 3.91137C5.13335 4.00589 4.94432 4.13585 4.76711 4.30125C4.60171 4.46665 4.44812 4.65568 4.30635 4.86834C4.17639 5.08099 4.06415 5.30547 3.96964 5.54175ZM7.21268 7.93416C7.21268 8.15863 7.34264 8.27087 7.60255 8.27087C7.86247 8.27087 8.11648 8.17635 8.36458 7.98732C8.62449 7.79829 8.84896 7.55019 9.03799 7.24302C9.47512 6.54597 9.69369 5.85483 9.69369 5.1696C9.69369 4.47255 9.59327 3.89956 9.39242 3.45061C9.19158 2.98985 8.92576 2.6118 8.59496 2.31644C7.93335 1.72572 7.10635 1.43036 6.11394 1.43036C5.35782 1.43036 4.60761 1.61348 3.86331 1.97973C2.67006 2.55863 1.88441 3.45652 1.50635 4.6734C1.37639 5.0869 1.31141 5.60082 1.31141 6.21517C1.31141 6.8177 1.42365 7.39661 1.64812 7.95188C1.88441 8.50715 2.19749 8.96791 2.58736 9.33416C3.39074 10.0666 4.40677 10.4329 5.63546 10.4329C6.21437 10.4447 6.81099 10.3561 7.42534 10.1671C7.48441 10.1434 7.55529 10.1316 7.63799 10.1316C7.73251 10.1316 7.8093 10.1671 7.86837 10.238C7.92745 10.3088 7.95698 10.3856 7.95698 10.4683C7.95698 10.6574 7.88019 10.7755 7.7266 10.8228C6.97048 11.0591 6.22618 11.1772 5.49369 11.1772C4.77302 11.1772 4.0996 11.0591 3.47344 10.8228C2.85909 10.5865 2.32154 10.2439 1.86078 9.79492C0.880188 8.83796 0.389893 7.5561 0.389893 5.94935C0.389893 4.89787 0.685251 3.935 1.27597 3.06074C1.77217 2.31644 2.48103 1.72572 3.40255 1.28859C4.27681 0.875086 5.1747 0.668335 6.09622 0.668335C7.34854 0.668335 8.3882 1.01686 9.21521 1.7139C10.1367 2.51728 10.5975 3.62783 10.5975 5.04555C10.5975 5.7426 10.4203 6.41601 10.0658 7.0658C9.75867 7.65652 9.35698 8.14091 8.86078 8.51897C8.35276 8.89703 7.86247 9.08606 7.38989 9.08606C6.97639 9.08606 6.64559 8.9561 6.39749 8.69618C6.31479 8.60167 6.25572 8.48943 6.22027 8.35947C6.00761 8.58395 5.7477 8.76116 5.44053 8.89112C5.13335 9.00926 4.82618 9.06833 4.51901 9.06833C3.92829 9.06833 3.44981 8.86158 3.08356 8.44808C2.72913 8.04639 2.55192 7.54429 2.55192 6.94175C2.55192 6.32741 2.69369 5.69534 2.97723 5.04555C3.44981 4.02952 4.12323 3.3561 4.99749 3.0253C5.29285 2.90715 5.56458 2.84808 5.81268 2.84808C6.07259 2.84808 6.27934 2.8658 6.43293 2.90125C6.58652 2.93669 6.7342 2.98985 6.87597 3.06074C7.17133 3.23796 7.38399 3.46834 7.51394 3.75188L7.58483 3.53922C7.62027 3.42108 7.68525 3.33247 7.77977 3.2734C7.8861 3.21433 7.99242 3.18479 8.09875 3.18479C8.20508 3.18479 8.2996 3.22023 8.3823 3.29112C8.47681 3.35019 8.52407 3.42699 8.52407 3.5215C8.52407 3.6042 8.51226 3.67509 8.48863 3.73416L7.37217 7.18985C7.26584 7.50884 7.21268 7.75694 7.21268 7.93416Z" fill="white"/>
</svg>
