<svg width="132" height="28" viewBox="0 0 132 28" fill="none" xmlns="http://www.w3.org/2000/svg">
<g filter="url(#filter0_d_156_379)">
<path d="M127.955 9.61595L127.739 10.5519C127.467 10.5199 127.115 10.504 126.683 10.504C125.083 10.504 124.283 11.0319 124.283 12.0879C124.283 12.3119 124.603 12.968 125.243 14.056C125.899 15.144 126.227 15.872 126.227 16.24C126.227 17.104 125.931 17.784 125.339 18.28C124.763 18.76 123.987 19 123.011 19C121.667 19 120.587 18.2559 119.771 16.768L120.683 16.1199C120.907 16.2959 121.147 16.512 121.403 16.768C121.659 17.0079 121.851 17.176 121.979 17.2719C122.283 17.544 122.619 17.68 122.987 17.68C123.355 17.68 123.675 17.5519 123.947 17.2959C124.219 17.0239 124.355 16.696 124.355 16.312C124.355 15.912 124.003 15.176 123.299 14.104C122.611 13.032 122.267 12.2799 122.267 11.8479C122.267 11.064 122.595 10.464 123.251 10.0479C123.923 9.63195 124.795 9.42395 125.867 9.42395C126.955 9.42395 127.651 9.48795 127.955 9.61595Z" fill="white"/>
</g>
<g filter="url(#filter1_d_156_379)">
<path d="M117.336 16.696L117.84 17.104C117.296 17.952 116.824 18.568 116.424 18.952C116.04 19.32 115.608 19.504 115.128 19.504C114.648 19.504 114.256 19.312 113.952 18.928C113.648 18.544 113.496 18.064 113.496 17.488C113.496 16.368 114.232 13.96 115.704 10.264C117.176 6.55198 118.688 3.28798 120.24 0.471985L121.296 1.04798C119.728 4.08798 118.312 7.11199 117.048 10.12C115.784 13.112 115.152 15.264 115.152 16.576C115.152 17.328 115.432 17.704 115.992 17.704C116.44 17.704 116.888 17.368 117.336 16.696Z" fill="white"/>
</g>
<g filter="url(#filter2_d_156_379)">
<path d="M112.066 8.824C111.17 8.824 110.722 8.464 110.722 7.744C110.722 7.344 110.834 7.008 111.058 6.736C111.282 6.464 111.57 6.328 111.922 6.328C112.274 6.328 112.562 6.432 112.786 6.64C113.01 6.848 113.122 7.12 113.122 7.456C113.122 7.792 113.026 8.104 112.834 8.392C112.642 8.68 112.386 8.824 112.066 8.824ZM111.754 15.904L112.234 16.312C111.85 17.048 111.338 17.68 110.698 18.208C110.074 18.72 109.506 18.976 108.994 18.976C108.098 18.976 107.65 18.352 107.65 17.104C107.65 15.552 108.29 13.528 109.57 11.032C109.858 10.488 110.026 10.168 110.074 10.072L111.106 10.696C110.77 11.304 110.354 12.272 109.858 13.6C109.378 14.928 109.138 15.784 109.138 16.168C109.138 16.536 109.218 16.8 109.378 16.96C109.538 17.12 109.73 17.2 109.954 17.2C110.386 17.2 110.986 16.768 111.754 15.904Z" fill="white"/>
</g>
<g filter="url(#filter3_d_156_379)">
<path d="M106.216 16.576L106.768 16.984C106.544 17.464 106.128 17.92 105.52 18.352C104.928 18.784 104.384 19 103.888 19C102.944 19 102.472 18.504 102.472 17.512C102.472 17.048 102.592 16.496 102.832 15.856L101.944 16.768C101.08 17.648 100.328 18.24 99.6877 18.544C99.0637 18.848 98.4477 19 97.8397 19C97.2317 19 96.7677 18.832 96.4477 18.496C96.1437 18.144 95.9917 17.664 95.9917 17.056C95.9917 15.936 96.4237 14.832 97.2877 13.744C98.1517 12.64 99.2557 11.744 100.6 11.056C101.944 10.368 103.288 10.016 104.632 10L104.68 10.792L103.672 11.008C102.216 11.328 100.928 11.968 99.8077 12.928C98.7037 13.888 98.1517 14.848 98.1517 15.808C98.1517 16.752 98.5357 17.224 99.3037 17.224C100.024 17.224 100.912 16.72 101.968 15.712C103.024 14.704 103.904 13.52 104.608 12.16L105.616 12.76C104.624 14.76 104.128 16.032 104.128 16.576C104.128 16.8 104.2 16.992 104.344 17.152C104.504 17.296 104.656 17.368 104.8 17.368C104.96 17.368 105.064 17.36 105.112 17.344C105.16 17.328 105.208 17.312 105.256 17.296C105.304 17.264 105.36 17.224 105.424 17.176C105.504 17.128 105.568 17.08 105.616 17.032C105.68 16.984 105.776 16.912 105.904 16.816C106.032 16.72 106.136 16.64 106.216 16.576Z" fill="white"/>
</g>
<g filter="url(#filter4_d_156_379)">
<path d="M94.5365 4.33599L95.9285 4.50399C95.6405 5.75199 95.2485 7.21599 94.7525 8.89599C94.2725 10.56 93.8325 11.912 93.4325 12.952C93.0325 13.976 92.5925 15 92.1125 16.024C91.6485 17.032 91.1525 17.832 90.6245 18.424C90.0965 19 89.5845 19.288 89.0885 19.288C88.5925 19.288 88.2245 19.104 87.9845 18.736C87.7605 18.368 87.6485 17.72 87.6485 16.792C87.6485 15.848 87.7845 13.88 88.0565 10.888C88.3285 7.87999 88.4645 6.24799 88.4645 5.99199C88.4805 5.71999 88.4165 5.58399 88.2725 5.58399C88.0965 5.58399 87.8885 5.83199 87.6485 6.32799C87.4085 6.80799 87.2245 7.17599 87.0965 7.43199C86.7605 8.18399 86.5445 8.71199 86.4485 9.01599C85.5525 11.032 84.7525 12.696 84.0485 14.008C83.3445 15.32 82.5365 16.536 81.6245 17.656C81.3045 18.04 80.8485 18.432 80.2565 18.832C79.6645 19.232 79.1125 19.536 78.6005 19.744L78.0725 18.328C79.4005 17.768 80.6005 16.8 81.6725 15.424C82.7445 14.032 83.8485 12.096 84.9845 9.61599C86.1365 7.13599 86.9605 5.46399 87.4565 4.59999C88.0165 3.68799 88.5845 3.23199 89.1605 3.23199C89.5285 3.23199 89.8165 3.35999 90.0245 3.61599C90.2325 3.87199 90.3365 4.20799 90.3365 4.62399C90.3365 5.02399 90.1925 6.70399 89.9045 9.66399C89.6325 12.624 89.4965 14.52 89.4965 15.352C89.4965 16.184 89.5285 16.728 89.5925 16.984C89.6725 17.224 89.8005 17.344 89.9765 17.344C90.2005 17.344 90.4405 17.104 90.6965 16.624C91.5765 14.912 92.8565 10.816 94.5365 4.33599Z" fill="white"/>
</g>
<g filter="url(#filter5_d_156_379)">
<path d="M65.9489 15.88L66.4529 16.36C65.5409 17.992 64.4929 18.808 63.3089 18.808C62.8289 18.808 62.4529 18.68 62.1809 18.424C61.9249 18.152 61.7969 17.8 61.7969 17.368C61.7969 16.92 62.0609 16.16 62.5889 15.088C63.1169 14.016 63.3969 13.2 63.4289 12.64C63.4449 12.384 63.3649 12.176 63.1889 12.016C63.0289 11.856 62.8049 11.776 62.5169 11.776C62.2289 11.776 61.9329 11.848 61.6289 11.992C61.3409 12.12 61.0529 12.336 60.7649 12.64C60.4929 12.944 60.2369 13.24 59.9969 13.528C59.7729 13.816 59.5169 14.224 59.2289 14.752C58.9569 15.28 58.7249 15.72 58.5329 16.072C58.1969 16.728 57.7169 17.712 57.0929 19.024L55.6529 18.52C55.6529 18.472 55.9169 17.568 56.4449 15.808C56.9729 14.048 57.2369 13 57.2369 12.664C57.2369 12.328 57.1569 12.088 56.9969 11.944C56.8369 11.784 56.6369 11.704 56.3969 11.704C55.6769 11.704 54.6769 12.6 53.3969 14.392C52.1329 16.184 51.3249 17.712 50.9729 18.976L49.6049 18.52C49.6849 17.672 50.0609 16.152 50.7329 13.96C51.4049 11.752 51.9729 10.248 52.4369 9.448L53.5169 9.832C53.0209 10.936 52.6769 11.872 52.4849 12.64C52.2929 13.392 52.1249 14.2 51.9809 15.064C53.3569 13.096 54.5089 11.72 55.4369 10.936C56.3649 10.136 57.2049 9.736 57.9569 9.736C58.7729 9.736 59.1809 10.144 59.1809 10.96C59.1809 11.28 59.0369 11.912 58.7489 12.856C58.4769 13.8 58.2609 14.544 58.1009 15.088C60.3089 11.536 62.2849 9.76 64.0289 9.76C64.4609 9.76 64.8049 9.896 65.0609 10.168C65.3169 10.424 65.4449 10.816 65.4449 11.344C65.4449 11.856 65.1409 12.712 64.5329 13.912C63.9409 15.112 63.6449 15.872 63.6449 16.192C63.6449 16.496 63.7089 16.72 63.8369 16.864C63.9649 17.008 64.1249 17.08 64.3169 17.08C64.7329 17.08 65.2769 16.68 65.9489 15.88Z" fill="white"/>
</g>
<g filter="url(#filter6_d_156_379)">
<path d="M48.7469 16.576L49.299 16.984C49.075 17.464 48.6589 17.92 48.0509 18.352C47.4589 18.784 46.9149 19 46.4189 19C45.4749 19 45.0029 18.504 45.0029 17.512C45.0029 17.048 45.1229 16.496 45.3629 15.856L44.4749 16.768C43.6109 17.648 42.8589 18.24 42.2189 18.544C41.5949 18.848 40.9789 19 40.3709 19C39.7629 19 39.299 18.832 38.979 18.496C38.675 18.144 38.5229 17.664 38.5229 17.056C38.5229 15.936 38.955 14.832 39.819 13.744C40.683 12.64 41.787 11.744 43.131 11.056C44.475 10.368 45.8189 10.016 47.1629 10L47.2109 10.792L46.2029 11.008C44.7469 11.328 43.4589 11.968 42.3389 12.928C41.2349 13.888 40.6829 14.848 40.6829 15.808C40.6829 16.752 41.0669 17.224 41.8349 17.224C42.5549 17.224 43.443 16.72 44.499 15.712C45.555 14.704 46.435 13.52 47.139 12.16L48.1469 12.76C47.1549 14.76 46.659 16.032 46.659 16.576C46.659 16.8 46.731 16.992 46.875 17.152C47.035 17.296 47.1869 17.368 47.3309 17.368C47.4909 17.368 47.5949 17.36 47.6429 17.344C47.6909 17.328 47.7389 17.312 47.7869 17.296C47.8349 17.264 47.8909 17.224 47.9549 17.176C48.0349 17.128 48.0989 17.08 48.1469 17.032C48.2109 16.984 48.3069 16.912 48.4349 16.816C48.5629 16.72 48.6669 16.64 48.7469 16.576Z" fill="white"/>
</g>
<g filter="url(#filter7_d_156_379)">
<path d="M36.8975 16.168L37.4495 16.6C36.9535 17.288 36.2735 17.864 35.4095 18.328C34.5455 18.776 33.7055 19 32.8895 19C32.0735 19 31.4175 18.76 30.9215 18.28C30.4255 17.8 30.1775 17.168 30.1775 16.384C30.1775 14.912 30.9535 13.464 32.5055 12.04C34.0735 10.616 35.6575 9.90399 37.2575 9.90399C38.3135 9.90399 38.8415 10.32 38.8415 11.152C38.8415 12.016 38.2815 12.888 37.1615 13.768C36.0575 14.648 34.4975 15.448 32.4815 16.168C32.6255 16.536 32.8495 16.824 33.1535 17.032C33.4575 17.24 33.7695 17.344 34.0895 17.344C34.7775 17.344 35.7135 16.952 36.8975 16.168ZM32.3615 15.448C33.6575 15 34.7695 14.44 35.6975 13.768C36.6255 13.096 37.0895 12.48 37.0895 11.92C37.0895 11.712 37.0095 11.528 36.8495 11.368C36.6895 11.208 36.5055 11.128 36.2975 11.128C35.5455 11.128 34.7295 11.6 33.8495 12.544C32.9855 13.472 32.4895 14.44 32.3615 15.448Z" fill="white"/>
</g>
<g filter="url(#filter8_d_156_379)">
<path d="M28.3663 10.504C28.7663 10.504 29.0943 10.64 29.3503 10.912C29.6063 11.184 29.7343 11.536 29.7343 11.968C29.7343 12.832 29.2383 13.744 28.2463 14.704L27.6703 14.248C27.8943 13.752 28.0063 13.392 28.0063 13.168C28.0063 12.736 27.7663 12.52 27.2863 12.52C26.8063 12.52 26.3503 12.824 25.9183 13.432C25.4863 14.04 24.9743 14.984 24.3823 16.264C23.8063 17.528 23.3663 18.424 23.0623 18.952L21.6943 18.352C22.5743 16.352 23.0783 15.176 23.2063 14.824C23.6383 13.576 23.8543 11.992 23.8543 10.072L25.1983 9.71198C25.1503 10.752 25.0783 11.56 24.9823 12.136C24.8863 12.696 24.6543 13.616 24.2863 14.896C25.9023 11.968 27.2623 10.504 28.3663 10.504Z" fill="white"/>
</g>
<g filter="url(#filter9_d_156_379)">
<path d="M10.592 3.68799C13.376 3.68799 15.752 4.51199 17.72 6.15999C19.704 7.80799 20.696 9.73599 20.696 11.944C20.696 14.152 20.024 15.896 18.68 17.176C17.336 18.456 15.632 19.08 13.568 19.048C12.464 19.032 11.584 19.024 10.928 19.024H9.80001C9.33601 19.024 9.10401 18.848 9.10401 18.496C9.10401 18.368 9.24001 18.04 9.51201 17.512C10.408 15.72 11.088 13.888 11.552 12.016C9.90401 12.016 8.36001 11.56 6.92001 10.648C5.48001 9.73599 4.76001 8.70399 4.76001 7.55199C4.76001 6.38399 5.30401 5.44799 6.39201 4.74399C7.48001 4.03999 8.88001 3.68799 10.592 3.68799ZM10.496 4.67199C9.44001 4.67199 8.60801 4.89599 8.00001 5.34399C7.39201 5.79199 7.08801 6.45599 7.08801 7.33599C7.08801 8.19999 7.50401 8.97599 8.33601 9.66399C9.18401 10.336 10.312 10.76 11.72 10.936C12.216 8.83999 12.504 7.48799 12.584 6.87999L14.024 7.02399C14.024 8.01599 13.816 9.32799 13.4 10.96C13.528 10.96 14.272 10.88 15.632 10.72L15.752 11.512C15.432 11.624 14.544 11.792 13.088 12.016C12.464 14.032 11.816 15.776 11.144 17.248C12.744 17.376 14.072 17.44 15.128 17.44C16.2 17.44 17.048 17.048 17.672 16.264C18.296 15.464 18.608 14.392 18.608 13.048C18.608 10.728 17.816 8.75199 16.232 7.11999C14.648 5.48799 12.736 4.67199 10.496 4.67199Z" fill="white"/>
</g>
<defs>
<filter id="filter0_d_156_379" x="115.771" y="9.42395" width="16.184" height="17.576" filterUnits="userSpaceOnUse" color-interpolation-filters="sRGB">
<feFlood flood-opacity="0" result="BackgroundImageFix"/>
<feColorMatrix in="SourceAlpha" type="matrix" values="0 0 0 0 0 0 0 0 0 0 0 0 0 0 0 0 0 0 127 0" result="hardAlpha"/>
<feOffset dy="4"/>
<feGaussianBlur stdDeviation="2"/>
<feComposite in2="hardAlpha" operator="out"/>
<feColorMatrix type="matrix" values="0 0 0 0 0 0 0 0 0 0 0 0 0 0 0 0 0 0 0.5 0"/>
<feBlend mode="normal" in2="BackgroundImageFix" result="effect1_dropShadow_156_379"/>
<feBlend mode="normal" in="SourceGraphic" in2="effect1_dropShadow_156_379" result="shape"/>
</filter>
<filter id="filter1_d_156_379" x="109.496" y="0.471985" width="15.8" height="27.032" filterUnits="userSpaceOnUse" color-interpolation-filters="sRGB">
<feFlood flood-opacity="0" result="BackgroundImageFix"/>
<feColorMatrix in="SourceAlpha" type="matrix" values="0 0 0 0 0 0 0 0 0 0 0 0 0 0 0 0 0 0 127 0" result="hardAlpha"/>
<feOffset dy="4"/>
<feGaussianBlur stdDeviation="2"/>
<feComposite in2="hardAlpha" operator="out"/>
<feColorMatrix type="matrix" values="0 0 0 0 0 0 0 0 0 0 0 0 0 0 0 0 0 0 0.5 0"/>
<feBlend mode="normal" in2="BackgroundImageFix" result="effect1_dropShadow_156_379"/>
<feBlend mode="normal" in="SourceGraphic" in2="effect1_dropShadow_156_379" result="shape"/>
</filter>
<filter id="filter2_d_156_379" x="103.65" y="6.328" width="13.472" height="20.648" filterUnits="userSpaceOnUse" color-interpolation-filters="sRGB">
<feFlood flood-opacity="0" result="BackgroundImageFix"/>
<feColorMatrix in="SourceAlpha" type="matrix" values="0 0 0 0 0 0 0 0 0 0 0 0 0 0 0 0 0 0 127 0" result="hardAlpha"/>
<feOffset dy="4"/>
<feGaussianBlur stdDeviation="2"/>
<feComposite in2="hardAlpha" operator="out"/>
<feColorMatrix type="matrix" values="0 0 0 0 0 0 0 0 0 0 0 0 0 0 0 0 0 0 0.5 0"/>
<feBlend mode="normal" in2="BackgroundImageFix" result="effect1_dropShadow_156_379"/>
<feBlend mode="normal" in="SourceGraphic" in2="effect1_dropShadow_156_379" result="shape"/>
</filter>
<filter id="filter3_d_156_379" x="91.9917" y="10" width="18.776" height="17" filterUnits="userSpaceOnUse" color-interpolation-filters="sRGB">
<feFlood flood-opacity="0" result="BackgroundImageFix"/>
<feColorMatrix in="SourceAlpha" type="matrix" values="0 0 0 0 0 0 0 0 0 0 0 0 0 0 0 0 0 0 127 0" result="hardAlpha"/>
<feOffset dy="4"/>
<feGaussianBlur stdDeviation="2"/>
<feComposite in2="hardAlpha" operator="out"/>
<feColorMatrix type="matrix" values="0 0 0 0 0 0 0 0 0 0 0 0 0 0 0 0 0 0 0.5 0"/>
<feBlend mode="normal" in2="BackgroundImageFix" result="effect1_dropShadow_156_379"/>
<feBlend mode="normal" in="SourceGraphic" in2="effect1_dropShadow_156_379" result="shape"/>
</filter>
<filter id="filter4_d_156_379" x="74.0725" y="3.23199" width="25.856" height="24.512" filterUnits="userSpaceOnUse" color-interpolation-filters="sRGB">
<feFlood flood-opacity="0" result="BackgroundImageFix"/>
<feColorMatrix in="SourceAlpha" type="matrix" values="0 0 0 0 0 0 0 0 0 0 0 0 0 0 0 0 0 0 127 0" result="hardAlpha"/>
<feOffset dy="4"/>
<feGaussianBlur stdDeviation="2"/>
<feComposite in2="hardAlpha" operator="out"/>
<feColorMatrix type="matrix" values="0 0 0 0 0 0 0 0 0 0 0 0 0 0 0 0 0 0 0.5 0"/>
<feBlend mode="normal" in2="BackgroundImageFix" result="effect1_dropShadow_156_379"/>
<feBlend mode="normal" in="SourceGraphic" in2="effect1_dropShadow_156_379" result="shape"/>
</filter>
<filter id="filter5_d_156_379" x="45.6049" y="9.448" width="24.848" height="17.576" filterUnits="userSpaceOnUse" color-interpolation-filters="sRGB">
<feFlood flood-opacity="0" result="BackgroundImageFix"/>
<feColorMatrix in="SourceAlpha" type="matrix" values="0 0 0 0 0 0 0 0 0 0 0 0 0 0 0 0 0 0 127 0" result="hardAlpha"/>
<feOffset dy="4"/>
<feGaussianBlur stdDeviation="2"/>
<feComposite in2="hardAlpha" operator="out"/>
<feColorMatrix type="matrix" values="0 0 0 0 0 0 0 0 0 0 0 0 0 0 0 0 0 0 0.5 0"/>
<feBlend mode="normal" in2="BackgroundImageFix" result="effect1_dropShadow_156_379"/>
<feBlend mode="normal" in="SourceGraphic" in2="effect1_dropShadow_156_379" result="shape"/>
</filter>
<filter id="filter6_d_156_379" x="34.5229" y="10" width="18.776" height="17" filterUnits="userSpaceOnUse" color-interpolation-filters="sRGB">
<feFlood flood-opacity="0" result="BackgroundImageFix"/>
<feColorMatrix in="SourceAlpha" type="matrix" values="0 0 0 0 0 0 0 0 0 0 0 0 0 0 0 0 0 0 127 0" result="hardAlpha"/>
<feOffset dy="4"/>
<feGaussianBlur stdDeviation="2"/>
<feComposite in2="hardAlpha" operator="out"/>
<feColorMatrix type="matrix" values="0 0 0 0 0 0 0 0 0 0 0 0 0 0 0 0 0 0 0.5 0"/>
<feBlend mode="normal" in2="BackgroundImageFix" result="effect1_dropShadow_156_379"/>
<feBlend mode="normal" in="SourceGraphic" in2="effect1_dropShadow_156_379" result="shape"/>
</filter>
<filter id="filter7_d_156_379" x="26.1775" y="9.90399" width="16.664" height="17.096" filterUnits="userSpaceOnUse" color-interpolation-filters="sRGB">
<feFlood flood-opacity="0" result="BackgroundImageFix"/>
<feColorMatrix in="SourceAlpha" type="matrix" values="0 0 0 0 0 0 0 0 0 0 0 0 0 0 0 0 0 0 127 0" result="hardAlpha"/>
<feOffset dy="4"/>
<feGaussianBlur stdDeviation="2"/>
<feComposite in2="hardAlpha" operator="out"/>
<feColorMatrix type="matrix" values="0 0 0 0 0 0 0 0 0 0 0 0 0 0 0 0 0 0 0.5 0"/>
<feBlend mode="normal" in2="BackgroundImageFix" result="effect1_dropShadow_156_379"/>
<feBlend mode="normal" in="SourceGraphic" in2="effect1_dropShadow_156_379" result="shape"/>
</filter>
<filter id="filter8_d_156_379" x="17.6943" y="9.71198" width="16.04" height="17.24" filterUnits="userSpaceOnUse" color-interpolation-filters="sRGB">
<feFlood flood-opacity="0" result="BackgroundImageFix"/>
<feColorMatrix in="SourceAlpha" type="matrix" values="0 0 0 0 0 0 0 0 0 0 0 0 0 0 0 0 0 0 127 0" result="hardAlpha"/>
<feOffset dy="4"/>
<feGaussianBlur stdDeviation="2"/>
<feComposite in2="hardAlpha" operator="out"/>
<feColorMatrix type="matrix" values="0 0 0 0 0 0 0 0 0 0 0 0 0 0 0 0 0 0 0.5 0"/>
<feBlend mode="normal" in2="BackgroundImageFix" result="effect1_dropShadow_156_379"/>
<feBlend mode="normal" in="SourceGraphic" in2="effect1_dropShadow_156_379" result="shape"/>
</filter>
<filter id="filter9_d_156_379" x="0.76001" y="3.68799" width="23.936" height="23.3611" filterUnits="userSpaceOnUse" color-interpolation-filters="sRGB">
<feFlood flood-opacity="0" result="BackgroundImageFix"/>
<feColorMatrix in="SourceAlpha" type="matrix" values="0 0 0 0 0 0 0 0 0 0 0 0 0 0 0 0 0 0 127 0" result="hardAlpha"/>
<feOffset dy="4"/>
<feGaussianBlur stdDeviation="2"/>
<feComposite in2="hardAlpha" operator="out"/>
<feColorMatrix type="matrix" values="0 0 0 0 0 0 0 0 0 0 0 0 0 0 0 0 0 0 0.5 0"/>
<feBlend mode="normal" in2="BackgroundImageFix" result="effect1_dropShadow_156_379"/>
<feBlend mode="normal" in="SourceGraphic" in2="effect1_dropShadow_156_379" result="shape"/>
</filter>
</defs>
</svg>
