<svg width="132" height="28" viewBox="0 0 132 28" fill="none" xmlns="http://www.w3.org/2000/svg">
<g filter="url(#filter0_d_157_156)">
<path d="M127.955 9.61607L127.739 10.5521C127.467 10.5201 127.115 10.5041 126.683 10.5041C125.083 10.5041 124.283 11.0321 124.283 12.0881C124.283 12.3121 124.603 12.9681 125.243 14.0561C125.899 15.1441 126.227 15.8721 126.227 16.2401C126.227 17.1041 125.931 17.7841 125.339 18.2801C124.763 18.7601 123.987 19.0001 123.011 19.0001C121.667 19.0001 120.587 18.2561 119.771 16.7681L120.683 16.1201C120.907 16.2961 121.147 16.5121 121.403 16.7681C121.659 17.0081 121.851 17.1761 121.979 17.2721C122.283 17.5441 122.619 17.6801 122.987 17.6801C123.355 17.6801 123.675 17.5521 123.947 17.2961C124.219 17.0241 124.355 16.6961 124.355 16.3121C124.355 15.9121 124.003 15.1761 123.299 14.1041C122.611 13.0321 122.267 12.2801 122.267 11.8481C122.267 11.0641 122.595 10.4641 123.251 10.0481C123.923 9.63207 124.795 9.42407 125.867 9.42407C126.955 9.42407 127.651 9.48807 127.955 9.61607Z" fill="white"/>
</g>
<g filter="url(#filter1_d_157_156)">
<path d="M117.336 16.696L117.84 17.104C117.296 17.952 116.824 18.568 116.424 18.952C116.04 19.32 115.608 19.504 115.128 19.504C114.648 19.504 114.256 19.312 113.952 18.928C113.648 18.544 113.496 18.064 113.496 17.488C113.496 16.368 114.232 13.96 115.704 10.264C117.176 6.55205 118.688 3.28805 120.24 0.472046L121.296 1.04805C119.728 4.08805 118.312 7.11205 117.048 10.12C115.784 13.112 115.152 15.264 115.152 16.576C115.152 17.328 115.432 17.704 115.992 17.704C116.44 17.704 116.888 17.368 117.336 16.696Z" fill="white"/>
</g>
<g filter="url(#filter2_d_157_156)">
<path d="M112.066 8.824C111.17 8.824 110.722 8.464 110.722 7.744C110.722 7.344 110.834 7.008 111.058 6.736C111.282 6.464 111.57 6.328 111.922 6.328C112.274 6.328 112.562 6.432 112.786 6.64C113.01 6.848 113.122 7.12 113.122 7.456C113.122 7.792 113.026 8.104 112.834 8.392C112.642 8.68 112.386 8.824 112.066 8.824ZM111.754 15.904L112.234 16.312C111.85 17.048 111.338 17.68 110.698 18.208C110.074 18.72 109.506 18.976 108.994 18.976C108.098 18.976 107.65 18.352 107.65 17.104C107.65 15.552 108.29 13.528 109.57 11.032C109.858 10.488 110.026 10.168 110.074 10.072L111.106 10.696C110.77 11.304 110.354 12.272 109.858 13.6C109.378 14.928 109.138 15.784 109.138 16.168C109.138 16.536 109.218 16.8 109.378 16.96C109.538 17.12 109.73 17.2 109.954 17.2C110.386 17.2 110.986 16.768 111.754 15.904Z" fill="white"/>
</g>
<g filter="url(#filter3_d_157_156)">
<path d="M106.216 16.576L106.768 16.984C106.544 17.464 106.128 17.92 105.52 18.352C104.928 18.784 104.384 19 103.888 19C102.944 19 102.472 18.504 102.472 17.512C102.472 17.048 102.592 16.496 102.832 15.856L101.944 16.768C101.08 17.648 100.328 18.24 99.6877 18.544C99.0637 18.848 98.4477 19 97.8397 19C97.2317 19 96.7677 18.832 96.4477 18.496C96.1437 18.144 95.9917 17.664 95.9917 17.056C95.9917 15.936 96.4237 14.832 97.2877 13.744C98.1517 12.64 99.2557 11.744 100.6 11.056C101.944 10.368 103.288 10.016 104.632 10L104.68 10.792L103.672 11.008C102.216 11.328 100.928 11.968 99.8077 12.928C98.7037 13.888 98.1517 14.848 98.1517 15.808C98.1517 16.752 98.5357 17.224 99.3037 17.224C100.024 17.224 100.912 16.72 101.968 15.712C103.024 14.704 103.904 13.52 104.608 12.16L105.616 12.76C104.624 14.76 104.128 16.032 104.128 16.576C104.128 16.8 104.2 16.992 104.344 17.152C104.504 17.296 104.656 17.368 104.8 17.368C104.96 17.368 105.064 17.36 105.112 17.344C105.16 17.328 105.208 17.312 105.256 17.296C105.304 17.264 105.36 17.224 105.424 17.176C105.504 17.128 105.568 17.08 105.616 17.032C105.68 16.984 105.776 16.912 105.904 16.816C106.032 16.72 106.136 16.64 106.216 16.576Z" fill="white"/>
</g>
<g filter="url(#filter4_d_157_156)">
<path d="M94.5365 4.33606L95.9285 4.50406C95.6405 5.75206 95.2485 7.21605 94.7525 8.89605C94.2725 10.5601 93.8325 11.9121 93.4325 12.9521C93.0325 13.9761 92.5925 15.0001 92.1125 16.0241C91.6485 17.0321 91.1525 17.8321 90.6245 18.4241C90.0965 19.0001 89.5845 19.2881 89.0885 19.2881C88.5925 19.2881 88.2245 19.1041 87.9845 18.7361C87.7605 18.3681 87.6485 17.7201 87.6485 16.7921C87.6485 15.8481 87.7845 13.8801 88.0565 10.8881C88.3285 7.88006 88.4645 6.24805 88.4645 5.99205C88.4805 5.72006 88.4165 5.58406 88.2725 5.58406C88.0965 5.58406 87.8885 5.83206 87.6485 6.32806C87.4085 6.80806 87.2245 7.17605 87.0965 7.43205C86.7605 8.18405 86.5445 8.71206 86.4485 9.01606C85.5525 11.0321 84.7525 12.6961 84.0485 14.0081C83.3445 15.3201 82.5365 16.5361 81.6245 17.6561C81.3045 18.0401 80.8485 18.4321 80.2565 18.8321C79.6645 19.2321 79.1125 19.5361 78.6005 19.7441L78.0725 18.3281C79.4005 17.7681 80.6005 16.8001 81.6725 15.4241C82.7445 14.0321 83.8485 12.0961 84.9845 9.61606C86.1365 7.13606 86.9605 5.46406 87.4565 4.60006C88.0165 3.68806 88.5845 3.23206 89.1605 3.23206C89.5285 3.23206 89.8165 3.36006 90.0245 3.61606C90.2325 3.87206 90.3365 4.20806 90.3365 4.62405C90.3365 5.02406 90.1925 6.70406 89.9045 9.66406C89.6325 12.6241 89.4965 14.5201 89.4965 15.3521C89.4965 16.1841 89.5285 16.7281 89.5925 16.9841C89.6725 17.2241 89.8005 17.3441 89.9765 17.3441C90.2005 17.3441 90.4405 17.1041 90.6965 16.6241C91.5765 14.9121 92.8565 10.8161 94.5365 4.33606Z" fill="white"/>
</g>
<g filter="url(#filter5_d_157_156)">
<path d="M65.9489 15.88L66.4529 16.36C65.5409 17.992 64.4929 18.808 63.3089 18.808C62.8289 18.808 62.453 18.68 62.181 18.424C61.9249 18.152 61.7969 17.8 61.7969 17.368C61.7969 16.92 62.061 16.16 62.589 15.088C63.117 14.016 63.397 13.2 63.429 12.64C63.445 12.384 63.3649 12.176 63.1889 12.016C63.0289 11.856 62.8049 11.776 62.5169 11.776C62.2289 11.776 61.9329 11.848 61.6289 11.992C61.3409 12.12 61.0529 12.336 60.7649 12.64C60.493 12.944 60.2369 13.24 59.9969 13.528C59.7729 13.816 59.517 14.224 59.229 14.752C58.957 15.28 58.7249 15.72 58.5329 16.072C58.1969 16.728 57.7169 17.712 57.0929 19.024L55.653 18.52C55.653 18.472 55.917 17.568 56.445 15.808C56.9729 14.048 57.2369 13 57.2369 12.664C57.2369 12.328 57.1569 12.088 56.9969 11.944C56.8369 11.784 56.637 11.704 56.3969 11.704C55.6769 11.704 54.6769 12.6 53.3969 14.392C52.1329 16.184 51.3249 17.712 50.9729 18.976L49.6049 18.52C49.6849 17.672 50.0609 16.152 50.7329 13.96C51.4049 11.752 51.973 10.248 52.437 9.448L53.5169 9.832C53.0209 10.936 52.6769 11.872 52.4849 12.64C52.2929 13.392 52.1249 14.2 51.9809 15.064C53.3569 13.096 54.509 11.72 55.437 10.936C56.365 10.136 57.2049 9.736 57.9569 9.736C58.7729 9.736 59.181 10.144 59.181 10.96C59.181 11.28 59.037 11.912 58.749 12.856C58.477 13.8 58.2609 14.544 58.1009 15.088C60.3089 11.536 62.2849 9.76 64.0289 9.76C64.4609 9.76 64.805 9.896 65.061 10.168C65.317 10.424 65.445 10.816 65.445 11.344C65.445 11.856 65.1409 12.712 64.5329 13.912C63.9409 15.112 63.645 15.872 63.645 16.192C63.645 16.496 63.7089 16.72 63.8369 16.864C63.9649 17.008 64.1249 17.08 64.3169 17.08C64.7329 17.08 65.2769 16.68 65.9489 15.88Z" fill="white"/>
</g>
<g filter="url(#filter6_d_157_156)">
<path d="M48.7469 16.576L49.299 16.984C49.075 17.464 48.6589 17.92 48.0509 18.352C47.4589 18.784 46.9149 19 46.4189 19C45.4749 19 45.0029 18.504 45.0029 17.512C45.0029 17.048 45.1229 16.496 45.3629 15.856L44.4749 16.768C43.6109 17.648 42.8589 18.24 42.2189 18.544C41.5949 18.848 40.9789 19 40.3709 19C39.7629 19 39.299 18.832 38.979 18.496C38.675 18.144 38.5229 17.664 38.5229 17.056C38.5229 15.936 38.955 14.832 39.819 13.744C40.683 12.64 41.787 11.744 43.131 11.056C44.475 10.368 45.8189 10.016 47.1629 10L47.2109 10.792L46.2029 11.008C44.7469 11.328 43.4589 11.968 42.3389 12.928C41.2349 13.888 40.6829 14.848 40.6829 15.808C40.6829 16.752 41.0669 17.224 41.8349 17.224C42.5549 17.224 43.443 16.72 44.499 15.712C45.555 14.704 46.435 13.52 47.139 12.16L48.1469 12.76C47.1549 14.76 46.659 16.032 46.659 16.576C46.659 16.8 46.731 16.992 46.875 17.152C47.035 17.296 47.1869 17.368 47.3309 17.368C47.4909 17.368 47.5949 17.36 47.6429 17.344C47.6909 17.328 47.7389 17.312 47.7869 17.296C47.8349 17.264 47.8909 17.224 47.9549 17.176C48.0349 17.128 48.0989 17.08 48.1469 17.032C48.2109 16.984 48.3069 16.912 48.4349 16.816C48.5629 16.72 48.6669 16.64 48.7469 16.576Z" fill="white"/>
</g>
<g filter="url(#filter7_d_157_156)">
<path d="M36.8975 16.1681L37.4495 16.6001C36.9535 17.2881 36.2735 17.8641 35.4095 18.3281C34.5455 18.7761 33.7055 19.0001 32.8895 19.0001C32.0735 19.0001 31.4175 18.7601 30.9215 18.2801C30.4255 17.8001 30.1775 17.1681 30.1775 16.3841C30.1775 14.9121 30.9535 13.4641 32.5055 12.0401C34.0735 10.6161 35.6575 9.90405 37.2575 9.90405C38.3135 9.90405 38.8415 10.3201 38.8415 11.1521C38.8415 12.0161 38.2815 12.8881 37.1615 13.7681C36.0575 14.6481 34.4975 15.4481 32.4815 16.1681C32.6255 16.5361 32.8495 16.8241 33.1535 17.0321C33.4575 17.2401 33.7695 17.3441 34.0895 17.3441C34.7775 17.3441 35.7135 16.9521 36.8975 16.1681ZM32.3615 15.4481C33.6575 15.0001 34.7695 14.4401 35.6975 13.7681C36.6255 13.0961 37.0895 12.4801 37.0895 11.9201C37.0895 11.7121 37.0095 11.5281 36.8495 11.3681C36.6895 11.2081 36.5055 11.1281 36.2975 11.1281C35.5455 11.1281 34.7295 11.6001 33.8495 12.5441C32.9855 13.4721 32.4895 14.4401 32.3615 15.4481Z" fill="white"/>
</g>
<g filter="url(#filter8_d_157_156)">
<path d="M28.3663 10.504C28.7663 10.504 29.0943 10.64 29.3503 10.912C29.6063 11.184 29.7343 11.536 29.7343 11.968C29.7343 12.832 29.2383 13.744 28.2463 14.704L27.6703 14.248C27.8943 13.752 28.0063 13.392 28.0063 13.168C28.0063 12.736 27.7663 12.52 27.2863 12.52C26.8063 12.52 26.3503 12.824 25.9183 13.432C25.4863 14.04 24.9743 14.984 24.3823 16.264C23.8063 17.528 23.3663 18.424 23.0623 18.952L21.6943 18.352C22.5743 16.352 23.0783 15.176 23.2063 14.824C23.6383 13.576 23.8543 11.992 23.8543 10.072L25.1983 9.71204C25.1503 10.752 25.0783 11.56 24.9823 12.136C24.8863 12.696 24.6543 13.616 24.2863 14.896C25.9023 11.968 27.2623 10.504 28.3663 10.504Z" fill="white"/>
</g>
<g filter="url(#filter9_d_157_156)">
<path d="M10.592 3.68799C13.376 3.68799 15.752 4.51199 17.72 6.15999C19.704 7.80799 20.696 9.73599 20.696 11.944C20.696 14.152 20.024 15.896 18.68 17.176C17.336 18.456 15.632 19.08 13.568 19.048C12.464 19.032 11.584 19.024 10.928 19.024H9.80001C9.33601 19.024 9.10401 18.848 9.10401 18.496C9.10401 18.368 9.24001 18.04 9.51201 17.512C10.408 15.72 11.088 13.888 11.552 12.016C9.90401 12.016 8.36001 11.56 6.92001 10.648C5.48001 9.73599 4.76001 8.70399 4.76001 7.55199C4.76001 6.38399 5.30401 5.44799 6.39201 4.74399C7.48001 4.03999 8.88001 3.68799 10.592 3.68799ZM10.496 4.67199C9.44001 4.67199 8.60801 4.89599 8.00001 5.34399C7.39201 5.79199 7.08801 6.45599 7.08801 7.33599C7.08801 8.19999 7.50401 8.97599 8.33601 9.66399C9.18401 10.336 10.312 10.76 11.72 10.936C12.216 8.83999 12.504 7.48799 12.584 6.87999L14.024 7.02399C14.024 8.01599 13.816 9.32799 13.4 10.96C13.528 10.96 14.272 10.88 15.632 10.72L15.752 11.512C15.432 11.624 14.544 11.792 13.088 12.016C12.464 14.032 11.816 15.776 11.144 17.248C12.744 17.376 14.072 17.44 15.128 17.44C16.2 17.44 17.048 17.048 17.672 16.264C18.296 15.464 18.608 14.392 18.608 13.048C18.608 10.728 17.816 8.75199 16.232 7.11999C14.648 5.48799 12.736 4.67199 10.496 4.67199Z" fill="white"/>
</g>
<defs>
<filter id="filter0_d_157_156" x="115.771" y="9.42407" width="16.184" height="17.576" filterUnits="userSpaceOnUse" color-interpolation-filters="sRGB">
<feFlood flood-opacity="0" result="BackgroundImageFix"/>
<feColorMatrix in="SourceAlpha" type="matrix" values="0 0 0 0 0 0 0 0 0 0 0 0 0 0 0 0 0 0 127 0" result="hardAlpha"/>
<feOffset dy="4"/>
<feGaussianBlur stdDeviation="2"/>
<feComposite in2="hardAlpha" operator="out"/>
<feColorMatrix type="matrix" values="0 0 0 0 0 0 0 0 0 0 0 0 0 0 0 0 0 0 0.5 0"/>
<feBlend mode="normal" in2="BackgroundImageFix" result="effect1_dropShadow_157_156"/>
<feBlend mode="normal" in="SourceGraphic" in2="effect1_dropShadow_157_156" result="shape"/>
</filter>
<filter id="filter1_d_157_156" x="109.496" y="0.472046" width="15.8" height="27.032" filterUnits="userSpaceOnUse" color-interpolation-filters="sRGB">
<feFlood flood-opacity="0" result="BackgroundImageFix"/>
<feColorMatrix in="SourceAlpha" type="matrix" values="0 0 0 0 0 0 0 0 0 0 0 0 0 0 0 0 0 0 127 0" result="hardAlpha"/>
<feOffset dy="4"/>
<feGaussianBlur stdDeviation="2"/>
<feComposite in2="hardAlpha" operator="out"/>
<feColorMatrix type="matrix" values="0 0 0 0 0 0 0 0 0 0 0 0 0 0 0 0 0 0 0.5 0"/>
<feBlend mode="normal" in2="BackgroundImageFix" result="effect1_dropShadow_157_156"/>
<feBlend mode="normal" in="SourceGraphic" in2="effect1_dropShadow_157_156" result="shape"/>
</filter>
<filter id="filter2_d_157_156" x="103.65" y="6.328" width="13.472" height="20.6479" filterUnits="userSpaceOnUse" color-interpolation-filters="sRGB">
<feFlood flood-opacity="0" result="BackgroundImageFix"/>
<feColorMatrix in="SourceAlpha" type="matrix" values="0 0 0 0 0 0 0 0 0 0 0 0 0 0 0 0 0 0 127 0" result="hardAlpha"/>
<feOffset dy="4"/>
<feGaussianBlur stdDeviation="2"/>
<feComposite in2="hardAlpha" operator="out"/>
<feColorMatrix type="matrix" values="0 0 0 0 0 0 0 0 0 0 0 0 0 0 0 0 0 0 0.5 0"/>
<feBlend mode="normal" in2="BackgroundImageFix" result="effect1_dropShadow_157_156"/>
<feBlend mode="normal" in="SourceGraphic" in2="effect1_dropShadow_157_156" result="shape"/>
</filter>
<filter id="filter3_d_157_156" x="91.9917" y="10" width="18.776" height="17" filterUnits="userSpaceOnUse" color-interpolation-filters="sRGB">
<feFlood flood-opacity="0" result="BackgroundImageFix"/>
<feColorMatrix in="SourceAlpha" type="matrix" values="0 0 0 0 0 0 0 0 0 0 0 0 0 0 0 0 0 0 127 0" result="hardAlpha"/>
<feOffset dy="4"/>
<feGaussianBlur stdDeviation="2"/>
<feComposite in2="hardAlpha" operator="out"/>
<feColorMatrix type="matrix" values="0 0 0 0 0 0 0 0 0 0 0 0 0 0 0 0 0 0 0.5 0"/>
<feBlend mode="normal" in2="BackgroundImageFix" result="effect1_dropShadow_157_156"/>
<feBlend mode="normal" in="SourceGraphic" in2="effect1_dropShadow_157_156" result="shape"/>
</filter>
<filter id="filter4_d_157_156" x="74.0725" y="3.23206" width="25.856" height="24.512" filterUnits="userSpaceOnUse" color-interpolation-filters="sRGB">
<feFlood flood-opacity="0" result="BackgroundImageFix"/>
<feColorMatrix in="SourceAlpha" type="matrix" values="0 0 0 0 0 0 0 0 0 0 0 0 0 0 0 0 0 0 127 0" result="hardAlpha"/>
<feOffset dy="4"/>
<feGaussianBlur stdDeviation="2"/>
<feComposite in2="hardAlpha" operator="out"/>
<feColorMatrix type="matrix" values="0 0 0 0 0 0 0 0 0 0 0 0 0 0 0 0 0 0 0.5 0"/>
<feBlend mode="normal" in2="BackgroundImageFix" result="effect1_dropShadow_157_156"/>
<feBlend mode="normal" in="SourceGraphic" in2="effect1_dropShadow_157_156" result="shape"/>
</filter>
<filter id="filter5_d_157_156" x="45.6049" y="9.448" width="24.848" height="17.576" filterUnits="userSpaceOnUse" color-interpolation-filters="sRGB">
<feFlood flood-opacity="0" result="BackgroundImageFix"/>
<feColorMatrix in="SourceAlpha" type="matrix" values="0 0 0 0 0 0 0 0 0 0 0 0 0 0 0 0 0 0 127 0" result="hardAlpha"/>
<feOffset dy="4"/>
<feGaussianBlur stdDeviation="2"/>
<feComposite in2="hardAlpha" operator="out"/>
<feColorMatrix type="matrix" values="0 0 0 0 0 0 0 0 0 0 0 0 0 0 0 0 0 0 0.5 0"/>
<feBlend mode="normal" in2="BackgroundImageFix" result="effect1_dropShadow_157_156"/>
<feBlend mode="normal" in="SourceGraphic" in2="effect1_dropShadow_157_156" result="shape"/>
</filter>
<filter id="filter6_d_157_156" x="34.5229" y="10" width="18.776" height="17" filterUnits="userSpaceOnUse" color-interpolation-filters="sRGB">
<feFlood flood-opacity="0" result="BackgroundImageFix"/>
<feColorMatrix in="SourceAlpha" type="matrix" values="0 0 0 0 0 0 0 0 0 0 0 0 0 0 0 0 0 0 127 0" result="hardAlpha"/>
<feOffset dy="4"/>
<feGaussianBlur stdDeviation="2"/>
<feComposite in2="hardAlpha" operator="out"/>
<feColorMatrix type="matrix" values="0 0 0 0 0 0 0 0 0 0 0 0 0 0 0 0 0 0 0.5 0"/>
<feBlend mode="normal" in2="BackgroundImageFix" result="effect1_dropShadow_157_156"/>
<feBlend mode="normal" in="SourceGraphic" in2="effect1_dropShadow_157_156" result="shape"/>
</filter>
<filter id="filter7_d_157_156" x="26.1775" y="9.90405" width="16.664" height="17.0959" filterUnits="userSpaceOnUse" color-interpolation-filters="sRGB">
<feFlood flood-opacity="0" result="BackgroundImageFix"/>
<feColorMatrix in="SourceAlpha" type="matrix" values="0 0 0 0 0 0 0 0 0 0 0 0 0 0 0 0 0 0 127 0" result="hardAlpha"/>
<feOffset dy="4"/>
<feGaussianBlur stdDeviation="2"/>
<feComposite in2="hardAlpha" operator="out"/>
<feColorMatrix type="matrix" values="0 0 0 0 0 0 0 0 0 0 0 0 0 0 0 0 0 0 0.5 0"/>
<feBlend mode="normal" in2="BackgroundImageFix" result="effect1_dropShadow_157_156"/>
<feBlend mode="normal" in="SourceGraphic" in2="effect1_dropShadow_157_156" result="shape"/>
</filter>
<filter id="filter8_d_157_156" x="17.6943" y="9.71204" width="16.04" height="17.24" filterUnits="userSpaceOnUse" color-interpolation-filters="sRGB">
<feFlood flood-opacity="0" result="BackgroundImageFix"/>
<feColorMatrix in="SourceAlpha" type="matrix" values="0 0 0 0 0 0 0 0 0 0 0 0 0 0 0 0 0 0 127 0" result="hardAlpha"/>
<feOffset dy="4"/>
<feGaussianBlur stdDeviation="2"/>
<feComposite in2="hardAlpha" operator="out"/>
<feColorMatrix type="matrix" values="0 0 0 0 0 0 0 0 0 0 0 0 0 0 0 0 0 0 0.5 0"/>
<feBlend mode="normal" in2="BackgroundImageFix" result="effect1_dropShadow_157_156"/>
<feBlend mode="normal" in="SourceGraphic" in2="effect1_dropShadow_157_156" result="shape"/>
</filter>
<filter id="filter9_d_157_156" x="0.76001" y="3.68799" width="23.936" height="23.3612" filterUnits="userSpaceOnUse" color-interpolation-filters="sRGB">
<feFlood flood-opacity="0" result="BackgroundImageFix"/>
<feColorMatrix in="SourceAlpha" type="matrix" values="0 0 0 0 0 0 0 0 0 0 0 0 0 0 0 0 0 0 127 0" result="hardAlpha"/>
<feOffset dy="4"/>
<feGaussianBlur stdDeviation="2"/>
<feComposite in2="hardAlpha" operator="out"/>
<feColorMatrix type="matrix" values="0 0 0 0 0 0 0 0 0 0 0 0 0 0 0 0 0 0 0.5 0"/>
<feBlend mode="normal" in2="BackgroundImageFix" result="effect1_dropShadow_157_156"/>
<feBlend mode="normal" in="SourceGraphic" in2="effect1_dropShadow_157_156" result="shape"/>
</filter>
</defs>
</svg>
