<svg width="70" height="70" viewBox="0 0 70 70" fill="none" xmlns="http://www.w3.org/2000/svg">
<g opacity="0.7">
<path d="M35 32.0833H35.0292V32.1125H35V32.0833Z" stroke="black" stroke-width="3.75" stroke-linejoin="round"/>
<path d="M35 64.1667L51.0417 48.125C54.2142 44.9523 56.3747 40.9101 57.25 36.5095C58.1253 32.1089 57.6759 27.5476 55.9589 23.4023C54.2418 19.2571 51.3341 15.7141 47.6035 13.2214C43.8728 10.7287 39.4868 9.39822 35 9.39822C30.5132 9.39822 26.1272 10.7287 22.3965 13.2214C18.6659 15.7141 15.7582 19.2571 14.0411 23.4023C12.324 27.5476 11.8747 32.1089 12.75 36.5095C13.6252 40.9101 15.7858 44.9523 18.9583 48.125L35 64.1667Z" stroke="black" stroke-width="2.5" stroke-linejoin="round"/>
</g>
</svg>
