<svg width="256" height="13" viewBox="0 0 256 13" fill="none" xmlns="http://www.w3.org/2000/svg">
<path d="M252.101 3.23042C252.444 3.23042 252.615 3.40172 252.615 3.74434V4.34687C252.91 3.49624 253.531 3.07092 254.476 3.07092C254.653 3.07092 254.789 3.12409 254.883 3.23042C254.978 3.32493 255.025 3.43126 255.025 3.5494C255.025 3.66755 254.978 3.77388 254.883 3.86839C254.801 3.96291 254.635 4.01016 254.387 4.01016C254.139 4.01016 253.897 4.06333 253.661 4.16966C253.436 4.26417 253.247 4.40004 253.094 4.57725C252.775 4.96712 252.615 5.48696 252.615 6.13675V9.48611C252.615 9.65151 252.556 9.78147 252.438 9.87599C252.32 9.95869 252.207 10 252.101 10C251.995 10 251.906 9.99413 251.835 9.98232C251.776 9.95869 251.723 9.92915 251.676 9.89371C251.57 9.79919 251.516 9.66333 251.516 9.48611V3.74434C251.516 3.57894 251.57 3.45489 251.676 3.37219C251.794 3.27767 251.936 3.23042 252.101 3.23042Z" fill="white"/>
<path d="M247.601 5.87092L248.381 5.88864V5.30383C248.381 4.38232 247.861 3.92156 246.821 3.92156C246.337 3.92156 245.988 3.96291 245.776 4.04561C245.528 4.14012 245.291 4.25236 245.067 4.38231C244.842 4.50046 244.677 4.55953 244.571 4.55953C244.476 4.55953 244.387 4.52409 244.305 4.4532C244.234 4.3705 244.198 4.27599 244.198 4.16966C244.198 4.06333 244.246 3.96881 244.34 3.88611C244.907 3.34265 245.746 3.07092 246.857 3.07092C248.097 3.07092 248.895 3.49624 249.249 4.34687C249.379 4.64223 249.444 4.99075 249.444 5.39244L249.426 9.52155C249.426 9.68696 249.373 9.81101 249.267 9.89371C249.16 9.96459 249.036 10 248.895 10C248.765 10 248.647 9.96459 248.54 9.89371C248.434 9.81101 248.381 9.69286 248.381 9.53928V8.9013C248.097 9.50383 247.583 9.89371 246.839 10.0709C246.603 10.1182 246.343 10.1418 246.059 10.1418C245.787 10.1418 245.51 10.0946 245.226 10C244.943 9.91734 244.695 9.78738 244.482 9.61016C244.033 9.25573 243.809 8.75953 243.809 8.12156C243.809 6.62113 245.073 5.87092 247.601 5.87092ZM248.381 6.68611C248.18 6.69793 247.95 6.70383 247.69 6.70383C247.442 6.70383 247.187 6.70974 246.928 6.72155C246.679 6.73337 246.431 6.76291 246.183 6.81016C245.947 6.85742 245.734 6.92831 245.545 7.02282C245.12 7.25911 244.907 7.61354 244.907 8.08611C244.907 8.46417 245.055 8.77134 245.35 9.00763C245.587 9.18485 245.929 9.28527 246.378 9.3089C246.922 9.3089 247.382 9.13759 247.76 8.79497C248.15 8.45236 248.357 7.95025 248.381 7.28864V6.68611Z" fill="white"/>
<path d="M239.911 10.1418C238.813 10.1418 237.986 9.69874 237.43 8.81267V9.52153C237.418 9.68693 237.353 9.81098 237.235 9.89368C237.129 9.96457 237.011 10 236.881 10C236.763 10 236.645 9.95866 236.526 9.87596C236.42 9.79326 236.367 9.6633 236.367 9.48609V0.749376C236.367 0.583975 236.426 0.459925 236.544 0.377225C236.662 0.294524 236.786 0.253174 236.916 0.253174C237.058 0.253174 237.182 0.294524 237.288 0.377225C237.407 0.459925 237.466 0.583975 237.466 0.749376V4.32912C237.796 3.72659 238.369 3.33672 239.185 3.1595C239.409 3.10043 239.704 3.0709 240.071 3.0709C240.437 3.0709 240.803 3.17132 241.169 3.37216C241.536 3.56119 241.831 3.82111 242.056 4.15191C242.516 4.78988 242.747 5.59917 242.747 6.57976C242.747 7.57216 242.528 8.38735 242.091 9.02533C241.571 9.76963 240.845 10.1418 239.911 10.1418ZM237.944 4.70128C237.779 4.92575 237.655 5.19748 237.572 5.51647C237.501 5.82364 237.466 6.16035 237.466 6.52659C237.466 6.89284 237.501 7.24727 237.572 7.58988C237.643 7.92069 237.767 8.21604 237.944 8.47596C238.322 9.03123 238.907 9.30887 239.699 9.30887C240.159 9.30887 240.549 9.16119 240.868 8.86583C241.353 8.39326 241.595 7.61351 241.595 6.52659C241.595 5.35697 241.24 4.56541 240.531 4.15191C240.272 3.99832 239.953 3.92153 239.575 3.92153C239.196 3.92153 238.872 3.99241 238.6 4.13419C238.328 4.27596 238.11 4.46499 237.944 4.70128Z" fill="white"/>
<path d="M228.069 6.63295C228.069 6.20763 228.134 5.77641 228.264 5.33928C228.406 4.90215 228.619 4.51818 228.902 4.18738C229.516 3.44307 230.367 3.07092 231.454 3.07092C232.517 3.07092 233.368 3.44307 234.006 4.18738C234.561 4.83717 234.839 5.64645 234.839 6.61523C234.839 7.57219 234.561 8.38147 234.006 9.04307C233.38 9.77556 232.529 10.1418 231.454 10.1418C230.355 10.1418 229.505 9.77556 228.902 9.04307C228.347 8.36966 228.069 7.56628 228.069 6.63295ZM229.239 6.63295C229.239 6.91649 229.28 7.21776 229.363 7.53675C229.446 7.85573 229.576 8.14518 229.753 8.4051C230.166 9.00763 230.733 9.3089 231.454 9.3089C232.187 9.3089 232.754 9.00763 233.155 8.4051C233.486 7.89708 233.651 7.30046 233.651 6.61523C233.651 5.94181 233.486 5.34518 233.155 4.82535C232.765 4.22282 232.198 3.92156 231.454 3.92156C230.722 3.92156 230.154 4.22282 229.753 4.82535C229.41 5.33337 229.239 5.9359 229.239 6.63295Z" fill="white"/>
<path d="M221.474 6.61523C221.474 5.61101 221.751 4.7781 222.307 4.11649C222.909 3.41945 223.707 3.07092 224.699 3.07092C225.195 3.07092 225.597 3.12999 225.904 3.24814C226.483 3.47261 226.772 3.7089 226.772 3.957C226.772 4.06333 226.737 4.15784 226.666 4.24054C226.595 4.32324 226.513 4.36459 226.418 4.36459C226.335 4.36459 226.264 4.35278 226.205 4.32915C225.745 4.06923 225.313 3.93928 224.912 3.93928C224.522 3.92746 224.191 3.98653 223.919 4.11649C223.648 4.24645 223.417 4.42367 223.228 4.64814C222.826 5.14434 222.626 5.79413 222.626 6.5975C222.626 7.32999 222.779 7.94434 223.086 8.44054C223.453 9.01945 224.02 9.3089 224.788 9.3089C225.248 9.3089 225.762 9.16122 226.329 8.86586C226.53 8.79497 226.672 8.80679 226.755 8.9013C226.849 8.99582 226.897 9.10805 226.897 9.23801C226.897 9.35615 226.82 9.4743 226.666 9.59244C226.513 9.71059 226.324 9.81101 226.099 9.89371C225.036 10.2481 224.091 10.2363 223.264 9.85826C222.496 9.50383 221.964 8.87767 221.669 7.97978C221.539 7.55447 221.474 7.09961 221.474 6.61523Z" fill="white"/>
<path d="M217.345 3.92156C216.317 3.92156 215.803 4.24645 215.803 4.89624C215.803 5.17978 215.945 5.40426 216.228 5.56966C216.441 5.67599 216.878 5.81185 217.54 5.97725C218.201 6.13084 218.703 6.2608 219.046 6.36712C219.388 6.47345 219.672 6.66839 219.896 6.95193C220.121 7.23548 220.233 7.57219 220.233 7.96206C220.233 8.34012 220.151 8.67092 219.985 8.95447C219.82 9.2262 219.595 9.45067 219.312 9.62788C218.78 9.9705 218.089 10.1418 217.238 10.1418C216.588 10.1418 215.992 10.0355 215.448 9.82282C215.2 9.71649 214.999 9.59835 214.846 9.46839C214.692 9.33843 214.615 9.22029 214.615 9.11396C214.615 8.99582 214.657 8.9013 214.74 8.83042C214.822 8.74772 214.917 8.70637 215.023 8.70637C215.129 8.70637 215.253 8.74181 215.395 8.81269C215.537 8.87177 215.708 8.93675 215.909 9.00763C216.453 9.20848 216.896 9.3089 217.238 9.3089C217.581 9.3089 217.853 9.28527 218.053 9.23801C218.254 9.19075 218.437 9.11396 218.603 9.00763C218.957 8.78316 219.134 8.47599 219.134 8.08611C219.134 7.63717 218.821 7.30637 218.195 7.09371C217.959 7.01101 217.705 6.94603 217.433 6.89877C217.161 6.8397 216.896 6.78063 216.636 6.72155C216.376 6.66248 216.128 6.5916 215.891 6.5089C215.667 6.4262 215.46 6.31396 215.271 6.17219C214.881 5.88864 214.686 5.48105 214.686 4.9494C214.686 4.29961 214.964 3.80932 215.519 3.47852C215.98 3.20679 216.6 3.07092 217.38 3.07092C218.136 3.07092 218.75 3.19497 219.223 3.44307C219.613 3.64392 219.808 3.85658 219.808 4.08105C219.808 4.17556 219.767 4.25826 219.684 4.32915C219.601 4.40004 219.518 4.43548 219.436 4.43548C219.282 4.43548 219.152 4.40594 219.046 4.34687C218.951 4.27599 218.845 4.21691 218.727 4.16966C218.621 4.11058 218.496 4.06333 218.355 4.02788C218.083 3.957 217.746 3.92156 217.345 3.92156Z" fill="white"/>
<path d="M207.248 10C207 10 206.817 9.87596 206.699 9.62786C206.663 9.55697 206.646 9.48608 206.646 9.4152V0.837984C206.646 0.589883 206.758 0.412668 206.982 0.306339C207.053 0.270896 207.13 0.253174 207.213 0.253174H212.317C212.482 0.253174 212.606 0.306339 212.689 0.412668C212.771 0.507183 212.813 0.619418 212.813 0.749376C212.813 0.879334 212.771 0.997478 212.689 1.10381C212.606 1.19832 212.482 1.24558 212.317 1.24558H207.833V4.48862H212.086C212.263 4.48862 212.393 4.54178 212.476 4.64811C212.559 4.74263 212.6 4.85486 212.6 4.98482C212.6 5.10296 212.553 5.2152 212.458 5.32153C212.376 5.42786 212.252 5.48102 212.086 5.48102H207.833V9.0076H212.494C212.659 9.0076 212.783 9.06077 212.866 9.1671C212.961 9.26161 213.008 9.37385 213.008 9.50381C213.008 9.63377 212.966 9.75191 212.884 9.85824C212.801 9.95275 212.671 10 212.494 10H207.248Z" fill="white"/>
<path d="M200.839 6.40257C200.839 6.5089 200.803 6.60341 200.733 6.68611C200.662 6.757 200.549 6.79244 200.396 6.79244H195.505C195.528 7.6667 195.759 8.29877 196.196 8.68864C196.657 9.10215 197.188 9.3089 197.791 9.3089C198.429 9.3089 199.108 9.07261 199.829 8.60004C199.923 8.52915 200.018 8.49371 200.112 8.49371C200.219 8.49371 200.301 8.52915 200.36 8.60004C200.419 8.67092 200.449 8.74181 200.449 8.81269C200.449 8.95447 200.402 9.07261 200.307 9.16713C199.61 9.81691 198.742 10.1418 197.702 10.1418C196.733 10.1418 195.948 9.82873 195.345 9.20257C194.684 8.52915 194.353 7.6667 194.353 6.61523C194.353 5.63464 194.63 4.81354 195.186 4.15194C195.788 3.43126 196.592 3.07092 197.596 3.07092C198.647 3.07092 199.457 3.38991 200.024 4.02788C200.543 4.6186 200.815 5.41016 200.839 6.40257ZM199.758 6.08358C199.711 5.42198 199.51 4.89624 199.155 4.50637C198.801 4.11649 198.287 3.92156 197.614 3.92156C197.023 3.92156 196.538 4.13421 196.16 4.55953C195.794 4.97303 195.587 5.48105 195.54 6.08358H199.758Z" fill="white"/>
<path d="M192.24 10C191.909 10 191.72 9.83461 191.673 9.50381V8.86583C191.354 9.32659 190.993 9.65739 190.592 9.85824C190.19 10.0473 189.735 10.1418 189.227 10.1418C188.731 10.1418 188.3 10.0414 187.933 9.84052C187.579 9.63967 187.29 9.37385 187.065 9.04305C186.616 8.35781 186.392 7.53672 186.392 6.57976C186.392 5.59917 186.622 4.78988 187.083 4.15191C187.579 3.43123 188.306 3.0709 189.263 3.0709C190.019 3.0709 190.674 3.30128 191.23 3.76203C191.407 3.91562 191.555 4.09874 191.673 4.3114V0.749376C191.673 0.583975 191.726 0.459925 191.832 0.377225C191.95 0.294524 192.08 0.253174 192.222 0.253174C192.364 0.253174 192.488 0.300432 192.594 0.394947C192.712 0.477647 192.771 0.59579 192.771 0.749376V9.48609C192.771 9.6633 192.712 9.79326 192.594 9.87596C192.488 9.95866 192.37 10 192.24 10ZM190.556 4.13419C190.285 3.99241 189.954 3.92153 189.564 3.92153C189.186 3.92153 188.867 3.99832 188.607 4.15191C188.347 4.3055 188.14 4.50634 187.987 4.75444C187.691 5.22701 187.544 5.81773 187.544 6.52659C187.544 7.9325 187.957 8.81858 188.784 9.18482C188.973 9.26752 189.239 9.30887 189.582 9.30887C189.924 9.30887 190.237 9.23208 190.521 9.07849C190.804 8.9249 191.029 8.72406 191.194 8.47596C191.501 8.00339 191.655 7.34178 191.655 6.49115C191.655 5.30971 191.289 4.52406 190.556 4.13419Z" fill="white"/>
<path d="M174.571 6.63295C174.571 6.20763 174.636 5.77641 174.766 5.33928C174.908 4.90215 175.121 4.51818 175.404 4.18738C176.018 3.44307 176.869 3.07092 177.956 3.07092C179.019 3.07092 179.87 3.44307 180.508 4.18738C181.063 4.83717 181.341 5.64645 181.341 6.61523C181.341 7.57219 181.063 8.38147 180.508 9.04307C179.882 9.77556 179.031 10.1418 177.956 10.1418C176.857 10.1418 176.007 9.77556 175.404 9.04307C174.849 8.36966 174.571 7.56628 174.571 6.63295ZM175.741 6.63295C175.741 6.91649 175.782 7.21776 175.865 7.53675C175.948 7.85573 176.077 8.14518 176.255 8.4051C176.668 9.00763 177.235 9.3089 177.956 9.3089C178.688 9.3089 179.256 9.00763 179.657 8.4051C179.988 7.89708 180.153 7.30046 180.153 6.61523C180.153 5.94181 179.988 5.34518 179.657 4.82535C179.267 4.22282 178.7 3.92156 177.956 3.92156C177.223 3.92156 176.656 4.22282 176.255 4.82535C175.912 5.33337 175.741 5.9359 175.741 6.63295Z" fill="white"/>
<path d="M172.511 10C172.181 10 171.991 9.83461 171.944 9.50381V8.86583C171.625 9.32659 171.265 9.65739 170.863 9.85824C170.462 10.0473 170.007 10.1418 169.499 10.1418C169.002 10.1418 168.571 10.0414 168.205 9.84052C167.851 9.63967 167.561 9.37385 167.337 9.04305C166.888 8.35781 166.663 7.53672 166.663 6.57976C166.663 5.59917 166.894 4.78988 167.354 4.15191C167.851 3.43123 168.577 3.0709 169.534 3.0709C170.29 3.0709 170.946 3.30128 171.501 3.76203C171.678 3.91562 171.826 4.09874 171.944 4.3114V0.749376C171.944 0.583975 171.997 0.459925 172.104 0.377225C172.222 0.294524 172.352 0.253174 172.494 0.253174C172.635 0.253174 172.759 0.300432 172.866 0.394947C172.984 0.477647 173.043 0.59579 173.043 0.749376V9.48609C173.043 9.6633 172.984 9.79326 172.866 9.87596C172.759 9.95866 172.641 10 172.511 10ZM170.828 4.13419C170.556 3.99241 170.225 3.92153 169.835 3.92153C169.457 3.92153 169.138 3.99832 168.878 4.15191C168.618 4.3055 168.412 4.50634 168.258 4.75444C167.963 5.22701 167.815 5.81773 167.815 6.52659C167.815 7.9325 168.229 8.81858 169.056 9.18482C169.245 9.26752 169.51 9.30887 169.853 9.30887C170.196 9.30887 170.509 9.23208 170.792 9.07849C171.076 8.9249 171.3 8.72406 171.466 8.47596C171.773 8.00339 171.926 7.34178 171.926 6.49115C171.926 5.30971 171.56 4.52406 170.828 4.13419Z" fill="white"/>
<path d="M165.173 0.873448C165.173 1.03885 165.108 1.18653 164.978 1.31649C164.849 1.43463 164.665 1.4937 164.429 1.4937C164.193 1.4937 164.01 1.43463 163.88 1.31649C163.75 1.18653 163.685 1.03885 163.685 0.873448C163.685 0.708047 163.75 0.560367 163.88 0.430409C164.01 0.300452 164.193 0.235474 164.429 0.235474C164.665 0.235474 164.849 0.300452 164.978 0.430409C165.108 0.560367 165.173 0.708047 165.173 0.873448ZM163.897 3.77978C163.897 3.60256 163.951 3.4667 164.057 3.37218C164.175 3.27767 164.287 3.23041 164.394 3.23041C164.5 3.23041 164.583 3.24222 164.642 3.26585C164.701 3.28948 164.754 3.32492 164.801 3.37218C164.919 3.45488 164.978 3.59075 164.978 3.77978V9.45066C164.978 9.62788 164.919 9.76374 164.801 9.85826C164.683 9.95277 164.553 10 164.411 10C164.281 10 164.163 9.95868 164.057 9.87598C163.951 9.78147 163.897 9.63969 163.897 9.45066V3.77978Z" fill="white"/>
<path d="M162.633 9.59244C162.633 9.95869 162.214 10.1418 161.375 10.1418C160.737 10.1418 160.282 9.97641 160.01 9.64561C159.727 9.27936 159.585 8.67092 159.585 7.82029V4.04561H158.77C158.628 4.04561 158.516 4.00426 158.433 3.92156C158.362 3.83886 158.327 3.74434 158.327 3.63801C158.327 3.53168 158.362 3.43717 158.433 3.35447C158.504 3.27177 158.616 3.23042 158.77 3.23042H159.621L159.709 1.29877C159.721 1.157 159.78 1.04476 159.886 0.962064C159.993 0.879363 160.105 0.838013 160.223 0.838013C160.53 0.838013 160.684 0.985692 160.684 1.28105V3.23042H161.907C162.048 3.23042 162.155 3.27177 162.226 3.35447C162.308 3.43717 162.35 3.53168 162.35 3.63801C162.35 3.74434 162.308 3.83886 162.226 3.92156C162.155 4.00426 162.048 4.04561 161.907 4.04561H160.684V7.21776C160.684 8.08021 160.713 8.61185 160.772 8.8127C160.843 9.00173 160.932 9.13168 161.038 9.20257C161.156 9.27346 161.316 9.3089 161.517 9.3089L162.243 9.23801C162.373 9.23801 162.468 9.27936 162.527 9.36206C162.598 9.44477 162.633 9.52156 162.633 9.59244Z" fill="white"/>
<path d="M154.798 3.23042C155.141 3.23042 155.312 3.40172 155.312 3.74434V4.34687C155.608 3.49624 156.228 3.07092 157.173 3.07092C157.35 3.07092 157.486 3.12409 157.581 3.23042C157.675 3.32493 157.722 3.43126 157.722 3.5494C157.722 3.66755 157.675 3.77388 157.581 3.86839C157.498 3.96291 157.333 4.01016 157.085 4.01016C156.836 4.01016 156.594 4.06333 156.358 4.16966C156.133 4.26417 155.944 4.40004 155.791 4.57725C155.472 4.96712 155.312 5.48696 155.312 6.13675V9.48611C155.312 9.65151 155.253 9.78147 155.135 9.87599C155.017 9.95869 154.905 10 154.798 10C154.692 10 154.603 9.99413 154.533 9.98232C154.474 9.95869 154.42 9.92915 154.373 9.89371C154.267 9.79919 154.214 9.66333 154.214 9.48611V3.74434C154.214 3.57894 154.267 3.45489 154.373 3.37219C154.491 3.27767 154.633 3.23042 154.798 3.23042Z" fill="white"/>
<path d="M150.298 5.87092L151.078 5.88864V5.30383C151.078 4.38232 150.558 3.92156 149.519 3.92156C149.034 3.92156 148.686 3.96291 148.473 4.04561C148.225 4.14012 147.989 4.25236 147.764 4.38231C147.54 4.50046 147.374 4.55953 147.268 4.55953C147.173 4.55953 147.085 4.52409 147.002 4.4532C146.931 4.3705 146.896 4.27599 146.896 4.16966C146.896 4.06333 146.943 3.96881 147.038 3.88611C147.605 3.34265 148.443 3.07092 149.554 3.07092C150.794 3.07092 151.592 3.49624 151.946 4.34687C152.076 4.64223 152.141 4.99075 152.141 5.39244L152.124 9.52155C152.124 9.68696 152.07 9.81101 151.964 9.89371C151.858 9.96459 151.734 10 151.592 10C151.462 10 151.344 9.96459 151.238 9.89371C151.131 9.81101 151.078 9.69286 151.078 9.53928V8.9013C150.794 9.50383 150.281 9.89371 149.536 10.0709C149.3 10.1182 149.04 10.1418 148.756 10.1418C148.485 10.1418 148.207 10.0946 147.924 10C147.64 9.91734 147.392 9.78738 147.179 9.61016C146.73 9.25573 146.506 8.75953 146.506 8.12156C146.506 6.62113 147.77 5.87092 150.298 5.87092ZM151.078 6.68611C150.877 6.69793 150.647 6.70383 150.387 6.70383C150.139 6.70383 149.885 6.70974 149.625 6.72155C149.377 6.73337 149.129 6.76291 148.881 6.81016C148.644 6.85742 148.432 6.92831 148.243 7.02282C147.817 7.25911 147.605 7.61354 147.605 8.08611C147.605 8.46417 147.752 8.77134 148.048 9.00763C148.284 9.18485 148.627 9.28527 149.075 9.3089C149.619 9.3089 150.08 9.13759 150.458 8.79497C150.848 8.45236 151.054 7.95025 151.078 7.28864V6.68611Z" fill="white"/>
<path d="M140.122 4.36459C140.453 3.73843 141.026 3.33674 141.841 3.15953C142.077 3.10046 142.378 3.07092 142.745 3.07092C143.123 3.07092 143.489 3.17725 143.843 3.38991C144.21 3.59075 144.505 3.85658 144.73 4.18738C144.966 4.51818 145.137 4.89624 145.243 5.32156C145.35 5.74687 145.403 6.18991 145.403 6.65067C145.403 7.11143 145.344 7.55447 145.226 7.97978C145.119 8.39329 144.948 8.75953 144.712 9.07852C144.204 9.78738 143.477 10.1418 142.532 10.1418C142.024 10.1418 141.616 10.065 141.309 9.91143C140.789 9.6397 140.394 9.29708 140.122 8.88358V12.0912C140.122 12.2566 140.063 12.3806 139.945 12.4633C139.838 12.546 139.714 12.5874 139.573 12.5874C139.431 12.5874 139.301 12.546 139.183 12.4633C139.076 12.3806 139.023 12.2566 139.023 12.0912V3.72662C139.023 3.56122 139.076 3.43717 139.183 3.35447C139.301 3.27177 139.454 3.23042 139.643 3.23042C140.033 3.23042 140.193 3.60848 140.122 4.36459ZM140.565 4.71902C140.411 4.95531 140.299 5.23885 140.228 5.56966C140.157 5.90046 140.122 6.24898 140.122 6.61523C140.122 6.96966 140.163 7.30637 140.246 7.62535C140.329 7.94434 140.459 8.22789 140.636 8.47599C141.014 9.03126 141.557 9.3089 142.266 9.3089C142.963 9.3089 143.483 9.01945 143.826 8.44054C144.109 7.95615 144.251 7.34181 144.251 6.5975C144.251 5.42788 143.914 4.6186 143.241 4.16966C142.993 4.00426 142.668 3.92156 142.266 3.92156C141.865 3.92156 141.522 3.99244 141.238 4.13421C140.955 4.27599 140.73 4.47092 140.565 4.71902Z" fill="white"/>
<path d="M131.951 11.6482H131.012L131.65 8.74182H132.997L131.951 11.6482Z" fill="white"/>
<path d="M129.28 9.09623C129.433 9.09623 129.546 9.14349 129.617 9.238C129.687 9.33252 129.723 9.43885 129.723 9.55699C129.723 9.67514 129.682 9.78146 129.599 9.87598C129.528 9.95868 129.422 10 129.28 10H125.009C124.82 10 124.672 9.95277 124.566 9.85826C124.471 9.75193 124.424 9.6456 124.424 9.53927C124.424 9.33842 124.477 9.17302 124.584 9.04307L128.412 4.13421H124.956C124.814 4.13421 124.702 4.08695 124.619 3.99243C124.548 3.89792 124.513 3.79159 124.513 3.67345C124.513 3.5553 124.548 3.45488 124.619 3.37218C124.69 3.27767 124.802 3.23041 124.956 3.23041H129.156C129.357 3.23041 129.51 3.27767 129.617 3.37218C129.735 3.46669 129.794 3.57302 129.794 3.69117C129.794 3.85657 129.735 4.02197 129.617 4.18737L125.824 9.09623H129.28Z" fill="white"/>
<path d="M123.709 9.59244C123.709 9.95869 123.29 10.1418 122.451 10.1418C121.813 10.1418 121.358 9.97641 121.087 9.64561C120.803 9.27936 120.661 8.67092 120.661 7.82029V4.04561H119.846C119.704 4.04561 119.592 4.00426 119.509 3.92156C119.439 3.83886 119.403 3.74434 119.403 3.63801C119.403 3.53168 119.439 3.43717 119.509 3.35447C119.58 3.27177 119.693 3.23042 119.846 3.23042H120.697L120.785 1.29877C120.797 1.157 120.856 1.04476 120.963 0.962064C121.069 0.879363 121.181 0.838013 121.299 0.838013C121.607 0.838013 121.76 0.985692 121.76 1.28105V3.23042H122.983C123.125 3.23042 123.231 3.27177 123.302 3.35447C123.385 3.43717 123.426 3.53168 123.426 3.63801C123.426 3.74434 123.385 3.83886 123.302 3.92156C123.231 4.00426 123.125 4.04561 122.983 4.04561H121.76V7.21776C121.76 8.08021 121.79 8.61185 121.849 8.8127C121.92 9.00173 122.008 9.13168 122.115 9.20257C122.233 9.27346 122.392 9.3089 122.593 9.3089L123.32 9.23801C123.45 9.23801 123.544 9.27936 123.603 9.36206C123.674 9.44477 123.709 9.52156 123.709 9.59244Z" fill="white"/>
<path d="M118.197 0.873448C118.197 1.03885 118.132 1.18653 118.002 1.31649C117.872 1.43463 117.689 1.4937 117.452 1.4937C117.216 1.4937 117.033 1.43463 116.903 1.31649C116.773 1.18653 116.708 1.03885 116.708 0.873448C116.708 0.708047 116.773 0.560367 116.903 0.430409C117.033 0.300452 117.216 0.235474 117.452 0.235474C117.689 0.235474 117.872 0.300452 118.002 0.430409C118.132 0.560367 118.197 0.708047 118.197 0.873448ZM116.921 3.77978C116.921 3.60256 116.974 3.4667 117.08 3.37218C117.198 3.27767 117.311 3.23041 117.417 3.23041C117.523 3.23041 117.606 3.24222 117.665 3.26585C117.724 3.28948 117.777 3.32492 117.825 3.37218C117.943 3.45488 118.002 3.59075 118.002 3.77978V9.45066C118.002 9.62788 117.943 9.76374 117.825 9.85826C117.707 9.95277 117.577 10 117.435 10C117.305 10 117.187 9.95868 117.08 9.87598C116.974 9.78147 116.921 9.63969 116.921 9.45066V3.77978Z" fill="white"/>
<path d="M110.011 4.25826L108.114 9.3975C107.984 9.79918 107.725 10 107.335 10C106.968 10 106.732 9.811 106.626 9.43294L104.57 3.93927C104.546 3.85657 104.535 3.78568 104.535 3.72661C104.535 3.65572 104.546 3.59075 104.57 3.53167C104.606 3.4726 104.647 3.41944 104.694 3.37218C104.789 3.27767 104.901 3.23041 105.031 3.23041C105.314 3.23041 105.492 3.35446 105.563 3.60256L107.406 8.81269L109.266 3.76205C109.396 3.40762 109.656 3.23041 110.046 3.23041C110.436 3.23041 110.696 3.40762 110.826 3.76205L112.616 8.75952L114.423 3.60256C114.518 3.35446 114.677 3.23041 114.902 3.23041C115.044 3.23041 115.168 3.27767 115.274 3.37218C115.38 3.46669 115.433 3.56712 115.433 3.67345C115.433 3.76796 115.422 3.85657 115.398 3.93927L113.325 9.43294C113.218 9.811 112.976 10 112.598 10C112.208 10 111.972 9.79918 111.889 9.3975L110.011 4.25826Z" fill="white"/>
<path d="M101.967 5.58735C101.967 4.76035 101.642 4.23461 100.992 4.01014C100.803 3.95106 100.584 3.92153 100.336 3.92153C100.1 3.92153 99.8577 3.96879 99.6096 4.0633C99.3615 4.146 99.1488 4.27596 98.9716 4.45317C98.5699 4.83123 98.3691 5.36879 98.3691 6.06583V9.48609C98.3691 9.6633 98.31 9.79326 98.1918 9.87596C98.0737 9.95866 97.9437 10 97.802 10C97.6602 10 97.5361 9.95866 97.4298 9.87596C97.3235 9.78144 97.2703 9.65149 97.2703 9.48609V0.749376C97.2703 0.583975 97.3235 0.459925 97.4298 0.377225C97.548 0.294524 97.6779 0.253174 97.8197 0.253174C97.9615 0.253174 98.0855 0.294524 98.1918 0.377225C98.31 0.459925 98.3691 0.583975 98.3691 0.749376V4.36457C98.6408 3.76204 99.1606 3.36035 99.9286 3.1595C100.165 3.10043 100.425 3.0709 100.708 3.0709C100.992 3.0709 101.275 3.11815 101.559 3.21267C101.854 3.30718 102.114 3.46077 102.339 3.67343C102.823 4.13419 103.065 4.8017 103.065 5.67596V9.48609C103.065 9.6633 103.006 9.79326 102.888 9.87596C102.77 9.95866 102.64 10 102.498 10C102.368 10 102.244 9.95866 102.126 9.87596C102.02 9.78144 101.967 9.65149 101.967 9.48609V5.58735Z" fill="white"/>
<path d="M90.1964 6.61523C90.1964 5.61101 90.474 4.7781 91.0293 4.11649C91.6319 3.41945 92.4293 3.07092 93.4217 3.07092C93.9179 3.07092 94.3196 3.12999 94.6268 3.24814C95.2057 3.47261 95.4951 3.7089 95.4951 3.957C95.4951 4.06333 95.4597 4.15784 95.3888 4.24054C95.3179 4.32324 95.2352 4.36459 95.1407 4.36459C95.058 4.36459 94.9871 4.35278 94.9281 4.32915C94.4673 4.06923 94.0361 3.93928 93.6344 3.93928C93.2445 3.92746 92.9137 3.98653 92.642 4.11649C92.3703 4.24645 92.1399 4.42367 91.9508 4.64814C91.5492 5.14434 91.3483 5.79413 91.3483 6.5975C91.3483 7.32999 91.5019 7.94434 91.8091 8.44054C92.1753 9.01945 92.7424 9.3089 93.5103 9.3089C93.9711 9.3089 94.485 9.16122 95.0521 8.86586C95.253 8.79497 95.3947 8.80679 95.4774 8.9013C95.5719 8.99582 95.6192 9.10805 95.6192 9.23801C95.6192 9.35615 95.5424 9.4743 95.3888 9.59244C95.2352 9.71059 95.0462 9.81101 94.8217 9.89371C93.7584 10.2481 92.8133 10.2363 91.9863 9.85826C91.2183 9.50383 90.6867 8.87767 90.3913 7.97978C90.2614 7.55447 90.1964 7.09961 90.1964 6.61523Z" fill="white"/>
<path d="M86.0673 3.92156C85.0395 3.92156 84.5255 4.24645 84.5255 4.89624C84.5255 5.17978 84.6673 5.40426 84.9509 5.56966C85.1635 5.67599 85.6006 5.81185 86.2622 5.97725C86.9238 6.13084 87.426 6.2608 87.7686 6.36712C88.1112 6.47345 88.3947 6.66839 88.6192 6.95193C88.8437 7.23548 88.9559 7.57219 88.9559 7.96206C88.9559 8.34012 88.8732 8.67092 88.7078 8.95447C88.5424 9.2262 88.3179 9.45067 88.0344 9.62788C87.5028 9.9705 86.8116 10.1418 85.961 10.1418C85.3112 10.1418 84.7146 10.0355 84.1711 9.82282C83.923 9.71649 83.7222 9.59835 83.5686 9.46839C83.415 9.33843 83.3382 9.22029 83.3382 9.11396C83.3382 8.99582 83.3795 8.9013 83.4622 8.83042C83.545 8.74772 83.6395 8.70637 83.7458 8.70637C83.8521 8.70637 83.9762 8.74181 84.1179 8.81269C84.2597 8.87177 84.431 8.93675 84.6319 9.00763C85.1753 9.20848 85.6184 9.3089 85.961 9.3089C86.3036 9.3089 86.5753 9.28527 86.7762 9.23801C86.977 9.19075 87.1601 9.11396 87.3255 9.00763C87.68 8.78316 87.8572 8.47599 87.8572 8.08611C87.8572 7.63717 87.5441 7.30637 86.9179 7.09371C86.6817 7.01101 86.4277 6.94603 86.1559 6.89877C85.8842 6.8397 85.6184 6.78063 85.3585 6.72155C85.0985 6.66248 84.8504 6.5916 84.6141 6.5089C84.3897 6.4262 84.1829 6.31396 83.9939 6.17219C83.604 5.88864 83.4091 5.48105 83.4091 4.9494C83.4091 4.29961 83.6867 3.80932 84.242 3.47852C84.7028 3.20679 85.323 3.07092 86.1028 3.07092C86.8589 3.07092 87.4732 3.19497 87.9458 3.44307C88.3357 3.64392 88.5306 3.85658 88.5306 4.08105C88.5306 4.17556 88.4893 4.25826 88.4066 4.32915C88.3239 4.40004 88.2411 4.43548 88.1584 4.43548C88.0049 4.43548 87.8749 4.40594 87.7686 4.34687C87.6741 4.27599 87.5677 4.21691 87.4496 4.16966C87.3433 4.11058 87.2192 4.06333 87.0774 4.02788C86.8057 3.957 86.469 3.92156 86.0673 3.92156Z" fill="white"/>
<path d="M79.724 5.87092L80.5037 5.88864V5.30383C80.5037 4.38232 79.9839 3.92156 78.9442 3.92156C78.4599 3.92156 78.1113 3.96291 77.8987 4.04561C77.6506 4.14012 77.4143 4.25236 77.1898 4.38231C76.9653 4.50046 76.7999 4.55953 76.6936 4.55953C76.5991 4.55953 76.5105 4.52409 76.4278 4.4532C76.3569 4.3705 76.3215 4.27599 76.3215 4.16966C76.3215 4.06333 76.3687 3.96881 76.4632 3.88611C77.0303 3.34265 77.8691 3.07092 78.9797 3.07092C80.2202 3.07092 81.0177 3.49624 81.3721 4.34687C81.5021 4.64223 81.567 4.99075 81.567 5.39244L81.5493 9.52155C81.5493 9.68696 81.4961 9.81101 81.3898 9.89371C81.2835 9.96459 81.1594 10 81.0177 10C80.8877 10 80.7696 9.96459 80.6632 9.89371C80.5569 9.81101 80.5037 9.69286 80.5037 9.53928V8.9013C80.2202 9.50383 79.7063 9.89371 78.962 10.0709C78.7257 10.1182 78.4658 10.1418 78.1822 10.1418C77.9105 10.1418 77.6328 10.0946 77.3493 10C77.0658 9.91734 76.8177 9.78738 76.605 9.61016C76.1561 9.25573 75.9316 8.75953 75.9316 8.12156C75.9316 6.62113 77.1957 5.87092 79.724 5.87092ZM80.5037 6.68611C80.3029 6.69793 80.0725 6.70383 79.8126 6.70383C79.5645 6.70383 79.3105 6.70974 79.0506 6.72155C78.8025 6.73337 78.5544 6.76291 78.3063 6.81016C78.07 6.85742 77.8573 6.92831 77.6683 7.02282C77.243 7.25911 77.0303 7.61354 77.0303 8.08611C77.0303 8.46417 77.178 8.77134 77.4734 9.00763C77.7096 9.18485 78.0523 9.28527 78.5012 9.3089C79.0447 9.3089 79.5054 9.13759 79.8835 8.79497C80.2734 8.45236 80.4801 7.95025 80.5037 7.28864V6.68611Z" fill="white"/>
<path d="M68.7944 8.42279L72.0375 1.2633C72.191 0.885242 72.3387 0.63714 72.4805 0.518996C72.6813 0.341781 72.8822 0.253174 73.083 0.253174C73.2957 0.253174 73.4611 0.276803 73.5792 0.32406C73.6974 0.359504 73.7978 0.418575 73.8805 0.501275C74.0695 0.713933 74.164 0.985663 74.164 1.31647V9.46836C74.164 9.64558 74.105 9.78144 73.9868 9.87596C73.8687 9.95866 73.7387 10 73.597 10C73.4552 10 73.3252 9.95866 73.2071 9.87596C73.1007 9.78144 73.0476 9.64558 73.0476 9.46836V1.44052L69.521 9.2557C69.3792 9.59832 69.1311 9.76963 68.7767 9.76963C68.4577 9.76963 68.2155 9.59832 68.0501 9.2557L64.5413 1.49368V9.46836C64.5413 9.64558 64.4822 9.78144 64.364 9.87596C64.2459 9.95866 64.1159 10 63.9742 10C63.8324 10 63.7024 9.95866 63.5843 9.87596C63.478 9.78144 63.4248 9.64558 63.4248 9.46836V1.31647C63.4248 0.784819 63.6197 0.454018 64.0096 0.32406C64.1278 0.276803 64.2518 0.253174 64.3818 0.253174C64.5235 0.253174 64.6476 0.270896 64.7539 0.306339C64.8721 0.329968 64.9784 0.383132 65.0729 0.465832C65.2265 0.583975 65.4037 0.855705 65.6045 1.28102L68.759 8.42279H68.7944Z" fill="white"/>
<path d="M50.8954 6.63295C50.8954 6.20763 50.9604 5.77641 51.0903 5.33928C51.2321 4.90215 51.4448 4.51818 51.7283 4.18738C52.3426 3.44307 53.1933 3.07092 54.2802 3.07092C55.3435 3.07092 56.1941 3.44307 56.8321 4.18738C57.3874 4.83717 57.665 5.64645 57.665 6.61523C57.665 7.57219 57.3874 8.38147 56.8321 9.04307C56.2059 9.77556 55.3553 10.1418 54.2802 10.1418C53.1815 10.1418 52.3308 9.77556 51.7283 9.04307C51.173 8.36966 50.8954 7.56628 50.8954 6.63295ZM52.065 6.63295C52.065 6.91649 52.1064 7.21776 52.1891 7.53675C52.2718 7.85573 52.4017 8.14518 52.5789 8.4051C52.9924 9.00763 53.5595 9.3089 54.2802 9.3089C55.0127 9.3089 55.5798 9.00763 55.9815 8.4051C56.3123 7.89708 56.4777 7.30046 56.4777 6.61523C56.4777 5.94181 56.3123 5.34518 55.9815 4.82535C55.5916 4.22282 55.0245 3.92156 54.2802 3.92156C53.5477 3.92156 52.9806 4.22282 52.5789 4.82535C52.2363 5.33337 52.065 5.9359 52.065 6.63295Z" fill="white"/>
<path d="M47.1188 3.23042C47.4614 3.23042 47.6327 3.40172 47.6327 3.74434V4.34687C47.9281 3.49624 48.5483 3.07092 49.4935 3.07092C49.6707 3.07092 49.8066 3.12409 49.9011 3.23042C49.9956 3.32493 50.0429 3.43126 50.0429 3.5494C50.0429 3.66755 49.9956 3.77388 49.9011 3.86839C49.8184 3.96291 49.653 4.01016 49.4049 4.01016C49.1568 4.01016 48.9146 4.06333 48.6783 4.16966C48.4538 4.26417 48.2648 4.40004 48.1112 4.57725C47.7922 4.96712 47.6327 5.48696 47.6327 6.13675V9.48611C47.6327 9.65151 47.5737 9.78147 47.4555 9.87599C47.3374 9.95869 47.2251 10 47.1188 10C47.0125 10 46.9239 9.99413 46.853 9.98232C46.7939 9.95869 46.7408 9.92915 46.6935 9.89371C46.5872 9.79919 46.534 9.66333 46.534 9.48611V3.74434C46.534 3.57894 46.5872 3.45489 46.6935 3.37219C46.8116 3.27767 46.9534 3.23042 47.1188 3.23042Z" fill="white"/>
<path d="M44.8702 6.40257C44.8702 6.5089 44.8347 6.60341 44.7638 6.68611C44.693 6.757 44.5807 6.79244 44.4271 6.79244H39.536C39.5596 7.6667 39.79 8.29877 40.2271 8.68864C40.6879 9.10215 41.2195 9.3089 41.8221 9.3089C42.46 9.3089 43.1394 9.07261 43.86 8.60004C43.9546 8.52915 44.0491 8.49371 44.1436 8.49371C44.2499 8.49371 44.3326 8.52915 44.3917 8.60004C44.4508 8.67092 44.4803 8.74181 44.4803 8.81269C44.4803 8.95447 44.433 9.07261 44.3385 9.16713C43.6415 9.81691 42.7731 10.1418 41.7335 10.1418C40.7647 10.1418 39.979 9.82873 39.3765 9.20257C38.7149 8.52915 38.3841 7.6667 38.3841 6.61523C38.3841 5.63464 38.6617 4.81354 39.217 4.15194C39.8195 3.43126 40.6229 3.07092 41.6271 3.07092C42.6786 3.07092 43.4879 3.38991 44.055 4.02788C44.5748 4.6186 44.8465 5.41016 44.8702 6.40257ZM43.7892 6.08358C43.7419 5.42198 43.5411 4.89624 43.1866 4.50637C42.8322 4.11649 42.3183 3.92156 41.6449 3.92156C41.0541 3.92156 40.5697 4.13421 40.1917 4.55953C39.8254 4.97303 39.6187 5.48105 39.5714 6.08358H43.7892Z" fill="white"/>
<path d="M36.8765 0.873448C36.8765 1.03885 36.8115 1.18653 36.6815 1.31649C36.5516 1.43463 36.3685 1.4937 36.1322 1.4937C35.8959 1.4937 35.7128 1.43463 35.5828 1.31649C35.4529 1.18653 35.3879 1.03885 35.3879 0.873448C35.3879 0.708047 35.4529 0.560367 35.5828 0.430409C35.7128 0.300452 35.8959 0.235474 36.1322 0.235474C36.3685 0.235474 36.5516 0.300452 36.6815 0.430409C36.8115 0.560367 36.8765 0.708047 36.8765 0.873448ZM35.6005 3.77978C35.6005 3.60256 35.6537 3.4667 35.76 3.37218C35.8782 3.27767 35.9904 3.23041 36.0967 3.23041C36.2031 3.23041 36.2858 3.24222 36.3448 3.26585C36.4039 3.28948 36.4571 3.32492 36.5043 3.37218C36.6225 3.45488 36.6815 3.59075 36.6815 3.77978V9.45066C36.6815 9.62788 36.6225 9.76374 36.5043 9.85826C36.3862 9.95277 36.2562 10 36.1145 10C35.9845 10 35.8664 9.95868 35.76 9.87598C35.6537 9.78147 35.6005 9.63969 35.6005 9.45066V3.77978Z" fill="white"/>
<path d="M27.6805 3.72662C27.6805 3.56122 27.7336 3.43717 27.84 3.35447C27.9581 3.27177 28.1176 3.23042 28.3185 3.23042C28.6965 3.23042 28.8501 3.60257 28.7792 4.34687C29.0509 3.77978 29.5708 3.384 30.3387 3.15953C30.575 3.10046 30.8349 3.07092 31.1185 3.07092C31.402 3.07092 31.6855 3.12409 31.9691 3.23042C32.2644 3.32493 32.5244 3.47852 32.7488 3.69118C33.2332 4.15193 33.4754 4.83126 33.4754 5.72915V9.48611C33.4754 9.66333 33.4163 9.79329 33.2982 9.87599C33.1801 9.95869 33.0501 10 32.9083 10C32.7784 10 32.6543 9.95869 32.5362 9.87599C32.4298 9.78147 32.3767 9.65151 32.3767 9.48611V5.64054C32.3767 4.81354 32.0518 4.27599 31.402 4.02788C31.213 3.957 30.9944 3.92156 30.7463 3.92156C30.51 3.92156 30.2678 3.96881 30.0197 4.06333C29.7716 4.15784 29.559 4.28189 29.3817 4.43548C28.9801 4.78991 28.7792 5.33337 28.7792 6.06586V9.48611C28.7792 9.66333 28.7201 9.79329 28.602 9.87599C28.4839 9.95869 28.3539 10 28.2121 10C28.0704 10 27.9463 9.95869 27.84 9.87599C27.7336 9.78147 27.6805 9.65151 27.6805 9.48611V3.72662Z" fill="white"/>
<path d="M26.0167 6.40257C26.0167 6.5089 25.9812 6.60341 25.9103 6.68611C25.8394 6.757 25.7272 6.79244 25.5736 6.79244H20.6825C20.7061 7.6667 20.9365 8.29877 21.3736 8.68864C21.8344 9.10215 22.366 9.3089 22.9686 9.3089C23.6065 9.3089 24.2859 9.07261 25.0065 8.60004C25.101 8.52915 25.1956 8.49371 25.2901 8.49371C25.3964 8.49371 25.4791 8.52915 25.5382 8.60004C25.5972 8.67092 25.6268 8.74181 25.6268 8.81269C25.6268 8.95447 25.5795 9.07261 25.485 9.16713C24.788 9.81691 23.9196 10.1418 22.8799 10.1418C21.9112 10.1418 21.1255 9.82873 20.523 9.20257C19.8614 8.52915 19.5306 7.6667 19.5306 6.61523C19.5306 5.63464 19.8082 4.81354 20.3635 4.15194C20.966 3.43126 21.7694 3.07092 22.7736 3.07092C23.8251 3.07092 24.6344 3.38991 25.2015 4.02788C25.7213 4.6186 25.993 5.41016 26.0167 6.40257ZM24.9356 6.08358C24.8884 5.42198 24.6875 4.89624 24.3331 4.50637C23.9787 4.11649 23.4648 3.92156 22.7913 3.92156C22.2006 3.92156 21.7162 4.13421 21.3382 4.55953C20.9719 4.97303 20.7652 5.48105 20.7179 6.08358H24.9356Z" fill="white"/>
<path d="M14.7416 3.92156C13.4066 3.92156 12.7391 4.81354 12.7391 6.5975C12.7391 7.44814 12.9459 8.10974 13.3594 8.58232C13.7138 9.00763 14.1745 9.22029 14.7416 9.22029C15.3205 9.22029 15.8108 8.99582 16.2125 8.54687C16.6496 8.0743 16.8682 7.43632 16.8682 6.63295C16.8682 5.41607 16.4961 4.58907 15.7518 4.15194C15.48 3.99835 15.1433 3.92156 14.7416 3.92156ZM14.4581 3.07092C15.6041 3.07092 16.4252 3.52577 16.9214 4.43548V3.69118C16.9332 3.53759 16.9864 3.42535 17.0809 3.35447C17.1872 3.27177 17.3053 3.23042 17.4353 3.23042C17.5653 3.23042 17.6834 3.27177 17.7897 3.35447C17.8961 3.43717 17.9492 3.56122 17.9492 3.72662V10.1418C17.9492 11.5123 17.3172 12.3688 16.053 12.7114C15.6632 12.8178 15.2674 12.8709 14.8657 12.8709C14.464 12.8709 14.1391 12.8473 13.891 12.8C13.6429 12.7646 13.4184 12.7114 13.2176 12.6405C12.8159 12.487 12.5087 12.2861 12.2961 12.038C12.2015 11.9435 12.1543 11.8431 12.1543 11.7367C12.1543 11.6304 12.1897 11.5359 12.2606 11.4532C12.3433 11.3823 12.4319 11.3469 12.5264 11.3469C12.621 11.3469 12.7155 11.3646 12.81 11.4C12.9399 11.4709 13.064 11.5418 13.1821 11.6127C13.3121 11.6836 13.4539 11.7486 13.6075 11.8076C13.9146 11.914 14.2513 11.9671 14.6176 11.9671C14.9956 11.9671 15.3146 11.9376 15.5745 11.8785C15.8463 11.8194 16.0767 11.7249 16.2657 11.595C16.6674 11.3114 16.8682 10.8566 16.8682 10.2304V8.67092C16.5256 9.32071 15.9821 9.74012 15.2378 9.92915C15.0134 9.97641 14.7889 10 14.5644 10C13.5602 10 12.7923 9.66333 12.2606 8.98991C11.788 8.38738 11.5518 7.60763 11.5518 6.65067C11.5518 5.0321 12.0893 3.93928 13.1644 3.37219C13.5307 3.17134 13.9619 3.07092 14.4581 3.07092Z" fill="white"/>
<path d="M4.11017 3.72662C4.11017 3.56122 4.16333 3.43717 4.26966 3.35447C4.38781 3.27177 4.5473 3.23042 4.74814 3.23042C5.1262 3.23042 5.27979 3.60257 5.2089 4.34687C5.48063 3.77978 6.00046 3.384 6.7684 3.15953C7.00468 3.10046 7.2646 3.07092 7.54814 3.07092C7.83169 3.07092 8.11523 3.12409 8.39878 3.23042C8.69413 3.32493 8.95405 3.47852 9.17852 3.69118C9.66291 4.15193 9.90511 4.83126 9.90511 5.72915V9.48611C9.90511 9.66333 9.84603 9.79329 9.72789 9.87599C9.60975 9.95869 9.47979 10 9.33802 10C9.20806 10 9.08401 9.95869 8.96586 9.87599C8.85954 9.78147 8.80637 9.65151 8.80637 9.48611V5.64054C8.80637 4.81354 8.48148 4.27599 7.83169 4.02788C7.64266 3.957 7.42409 3.92156 7.17599 3.92156C6.9397 3.92156 6.69751 3.96881 6.44941 4.06333C6.20131 4.15784 5.98865 4.28189 5.81143 4.43548C5.40975 4.78991 5.2089 5.33337 5.2089 6.06586V9.48611C5.2089 9.66333 5.14983 9.79329 5.03169 9.87599C4.91354 9.95869 4.78359 10 4.64181 10C4.50004 10 4.37599 9.95869 4.26966 9.87599C4.16333 9.78147 4.11017 9.65151 4.11017 9.48611V3.72662Z" fill="white"/>
<path d="M0.417725 0.837984C0.417725 0.55444 0.547682 0.371318 0.807598 0.288617C0.878484 0.264988 0.972999 0.253174 1.09114 0.253174C1.20929 0.253174 1.32743 0.300432 1.44557 0.394947C1.57553 0.489461 1.64051 0.63714 1.64051 0.837984V9.43292C1.64051 9.70465 1.51055 9.88187 1.25064 9.96457C1.17975 9.9882 1.08524 10 0.967092 10C0.848948 10 0.724898 9.95275 0.59494 9.85824C0.476796 9.76372 0.417725 9.62195 0.417725 9.43292V0.837984Z" fill="white"/>
</svg>
