<svg width="53" height="14" viewBox="0 0 53 14" fill="none" xmlns="http://www.w3.org/2000/svg">
<path d="M49.1348 10.123C48.6289 10.123 48.1549 10.0433 47.7129 9.88379C47.2708 9.72428 46.8857 9.49186 46.5576 9.18652C46.2295 8.87663 45.9697 8.49609 45.7783 8.04492C45.5915 7.58919 45.498 7.06966 45.498 6.48633C45.498 5.97135 45.5846 5.49512 45.7578 5.05762C45.931 4.61556 46.1702 4.23275 46.4756 3.90918C46.7809 3.58561 47.1364 3.33268 47.542 3.15039C47.9521 2.9681 48.3942 2.87695 48.8682 2.87695C49.3376 2.87695 49.7728 2.95898 50.1738 3.12305C50.5749 3.28255 50.9212 3.51725 51.2129 3.82715C51.5091 4.13249 51.7415 4.51302 51.9102 4.96875C52.0833 5.41992 52.1768 5.9349 52.1904 6.51367C51.6755 6.50456 51.1605 6.49772 50.6455 6.49316C50.1305 6.48861 49.5951 6.48633 49.0391 6.48633C48.6426 6.48633 48.2552 6.48861 47.877 6.49316C47.5033 6.49772 47.166 6.50456 46.8652 6.51367C46.8926 6.98763 46.9655 7.41602 47.084 7.79883C47.207 8.18164 47.3734 8.50977 47.583 8.7832C47.7972 9.05208 48.0547 9.25944 48.3555 9.40527C48.6608 9.55111 49.0049 9.62402 49.3877 9.62402C49.652 9.62402 49.9004 9.5944 50.1328 9.53516C50.3698 9.47135 50.584 9.38477 50.7754 9.27539C50.9668 9.16602 51.1377 9.03841 51.2881 8.89258C51.4385 8.74219 51.5661 8.5804 51.6709 8.40723L51.7529 8.44824L51.2471 9.66504C51.001 9.79264 50.707 9.90202 50.3652 9.99316C50.0234 10.0798 49.6133 10.123 49.1348 10.123ZM48.2256 5.95312C48.6813 5.95312 49.137 5.95312 49.5928 5.95312C50.0531 5.94857 50.4701 5.93945 50.8438 5.92578C50.8027 5.5293 50.7253 5.17383 50.6113 4.85938C50.4974 4.54492 50.3516 4.27832 50.1738 4.05957C49.9961 3.84082 49.7865 3.6722 49.5449 3.55371C49.3034 3.43522 49.0368 3.37598 48.7451 3.37598C48.4808 3.37598 48.237 3.43522 48.0137 3.55371C47.7949 3.66764 47.6035 3.83398 47.4395 4.05273C47.2754 4.27148 47.1432 4.54036 47.043 4.85938C46.9427 5.17383 46.8835 5.53385 46.8652 5.93945C47.0703 5.94857 47.2868 5.95312 47.5146 5.95312C47.7425 5.95312 47.9795 5.95312 48.2256 5.95312Z" fill="white"/>
<path d="M43.1738 9.59668C43.3105 9.59668 43.445 9.57161 43.5771 9.52148C43.7139 9.47135 43.8438 9.403 43.9668 9.31641C44.0944 9.22982 44.2152 9.13184 44.3291 9.02246C44.4476 8.90853 44.557 8.79004 44.6572 8.66699L44.7256 8.70117L44.2812 9.80176C44.2266 9.8291 44.1582 9.86328 44.0762 9.9043C43.9987 9.94075 43.903 9.97493 43.7891 10.0068C43.6797 10.0433 43.5498 10.0729 43.3994 10.0957C43.249 10.123 43.0713 10.1367 42.8662 10.1367C42.2555 10.1367 41.7793 9.97266 41.4375 9.64453C41.1003 9.31185 40.9316 8.7946 40.9316 8.09277V3.5332L39.7832 3.57422V2.97266C39.9245 2.98177 40.0931 2.98861 40.2891 2.99316C40.485 2.99772 40.6992 3 40.9316 3C40.9271 2.67643 40.918 2.3916 40.9043 2.14551C40.8952 1.89486 40.8815 1.67839 40.8633 1.49609C40.8496 1.30924 40.8314 1.15202 40.8086 1.02441C40.7858 0.89681 40.763 0.789714 40.7402 0.703125V0.675781H42.3193V0.703125C42.292 0.789714 42.2669 0.89681 42.2441 1.02441C42.2214 1.15202 42.2008 1.30697 42.1826 1.48926C42.1689 1.67155 42.1553 1.88802 42.1416 2.13867C42.1325 2.38477 42.1257 2.67188 42.1211 3C42.4082 2.99544 42.6885 2.99089 42.9619 2.98633C43.2399 2.97721 43.4906 2.9681 43.7139 2.95898C43.9417 2.94531 44.1331 2.93392 44.2881 2.9248C44.4476 2.91113 44.5524 2.89974 44.6025 2.89062L44.4795 3.58789C44.2471 3.58333 44.0033 3.5765 43.748 3.56738C43.5293 3.55827 43.2786 3.55143 42.9961 3.54688C42.7135 3.54232 42.4219 3.53776 42.1211 3.5332V8.23633C42.1211 8.51888 42.1507 8.74902 42.21 8.92676C42.2738 9.09993 42.3535 9.23665 42.4492 9.33691C42.5495 9.43717 42.6611 9.50553 42.7842 9.54199C42.9118 9.57845 43.0417 9.59668 43.1738 9.59668Z" fill="white"/>
<path d="M32.9062 7.9834C32.9062 7.62337 32.9792 7.3112 33.125 7.04688C33.2754 6.78255 33.4736 6.55697 33.7197 6.37012C33.9658 6.18327 34.2461 6.03288 34.5605 5.91895C34.875 5.80046 35.2008 5.70931 35.5381 5.64551C35.8753 5.57715 36.208 5.53158 36.5361 5.50879C36.8643 5.48145 37.165 5.46549 37.4385 5.46094V5.1123C37.4385 4.81152 37.3997 4.55176 37.3223 4.33301C37.2448 4.11426 37.1354 3.93424 36.9941 3.79297C36.8529 3.64714 36.682 3.54004 36.4814 3.47168C36.2855 3.39876 36.069 3.3623 35.832 3.3623C35.668 3.3623 35.5062 3.37598 35.3467 3.40332C35.1872 3.43066 35.0208 3.47624 34.8477 3.54004C34.679 3.60384 34.499 3.69043 34.3076 3.7998C34.1208 3.90918 33.918 4.04818 33.6992 4.2168L33.6309 4.17578L34.0957 3.21191C34.2461 3.14355 34.3942 3.08887 34.54 3.04785C34.6859 3.00228 34.834 2.96582 34.9844 2.93848C35.1348 2.91113 35.2874 2.8929 35.4424 2.88379C35.6019 2.87012 35.7682 2.86328 35.9414 2.86328C36.4199 2.86328 36.8278 2.92253 37.165 3.04102C37.5068 3.15495 37.7848 3.31445 37.999 3.51953C38.2178 3.72005 38.3773 3.95703 38.4775 4.23047C38.5778 4.49935 38.6279 4.78874 38.6279 5.09863V7.32715C38.6279 7.71452 38.6325 8.05404 38.6416 8.3457C38.6553 8.63281 38.6689 8.88119 38.6826 9.09082C38.7008 9.30046 38.7214 9.47591 38.7441 9.61719C38.7715 9.75846 38.7988 9.87695 38.8262 9.97266V10H37.3154V9.97266C37.3382 9.89974 37.3542 9.81771 37.3633 9.72656C37.377 9.63542 37.3883 9.52604 37.3975 9.39844C37.3018 9.48047 37.1878 9.56478 37.0557 9.65137C36.9281 9.73796 36.7799 9.81771 36.6113 9.89062C36.4473 9.95898 36.2627 10.0137 36.0576 10.0547C35.8571 10.1003 35.6361 10.123 35.3945 10.123C34.6016 10.123 33.9886 9.93848 33.5557 9.56934C33.1227 9.19564 32.9062 8.66699 32.9062 7.9834ZM37.4385 5.99414C37.0238 5.9987 36.625 6.02376 36.2422 6.06934C35.8594 6.11035 35.5199 6.19922 35.2236 6.33594C34.932 6.47266 34.6973 6.66862 34.5195 6.92383C34.3464 7.17448 34.2598 7.50944 34.2598 7.92871C34.2598 8.46647 34.3942 8.87663 34.6631 9.15918C34.932 9.44173 35.3034 9.58301 35.7773 9.58301C35.9961 9.58301 36.1943 9.55339 36.3721 9.49414C36.5544 9.43034 36.7139 9.35286 36.8506 9.26172C36.9919 9.16602 37.1104 9.06348 37.2061 8.9541C37.3018 8.84017 37.3747 8.73079 37.4248 8.62598C37.4339 8.4528 37.4385 8.26139 37.4385 8.05176C37.4385 7.83756 37.4385 7.59603 37.4385 7.32715V5.99414Z" fill="white"/>
<path d="M28.2441 5.67285C28.2441 5.28548 28.2373 4.94824 28.2236 4.66113C28.2145 4.36947 28.2008 4.11882 28.1826 3.90918C28.1689 3.69954 28.1484 3.52409 28.1211 3.38281C28.0983 3.24154 28.0732 3.12305 28.0459 3.02734V3H29.625V3.02734C29.5885 3.13216 29.5566 3.25977 29.5293 3.41016C29.5065 3.56055 29.4883 3.75423 29.4746 3.99121C29.6432 3.84993 29.8187 3.71094 30.001 3.57422C30.1833 3.4375 30.3701 3.31673 30.5615 3.21191C30.7529 3.1071 30.9466 3.02279 31.1426 2.95898C31.3431 2.89518 31.5436 2.86328 31.7441 2.86328C31.8672 2.86328 31.9743 2.87012 32.0654 2.88379C32.1566 2.8929 32.2386 2.90885 32.3115 2.93164C32.3844 2.94987 32.4505 2.97266 32.5098 3C32.569 3.02279 32.626 3.04557 32.6807 3.06836L32.3457 4.37402L32.2295 4.34668C32.1748 4.14616 32.0723 3.98665 31.9219 3.86816C31.7715 3.74512 31.5664 3.68359 31.3066 3.68359C31.1654 3.68359 31.0173 3.70866 30.8623 3.75879C30.7074 3.80892 30.5501 3.87956 30.3906 3.9707C30.2311 4.05729 30.0716 4.15983 29.9121 4.27832C29.7526 4.39225 29.5977 4.51302 29.4473 4.64062C29.4382 4.77279 29.4336 4.91634 29.4336 5.07129C29.4336 5.22624 29.4336 5.3903 29.4336 5.56348V7.32715C29.4336 7.71452 29.4382 8.05404 29.4473 8.3457C29.4564 8.63281 29.4701 8.88119 29.4883 9.09082C29.5065 9.30046 29.527 9.47591 29.5498 9.61719C29.5726 9.75846 29.5977 9.87695 29.625 9.97266V10H28.0459V9.97266C28.0732 9.87695 28.0983 9.75846 28.1211 9.61719C28.1484 9.47591 28.1689 9.30046 28.1826 9.09082C28.2008 8.88119 28.2145 8.63281 28.2236 8.3457C28.2373 8.05404 28.2441 7.71452 28.2441 7.32715V5.67285Z" fill="white"/>
<path d="M24.9082 5.67285C24.9082 5.28548 24.9014 4.94824 24.8877 4.66113C24.8786 4.36947 24.8649 4.11882 24.8467 3.90918C24.833 3.69954 24.8125 3.52409 24.7852 3.38281C24.7624 3.24154 24.7373 3.12305 24.71 3.02734V3H26.2891V3.02734C26.2617 3.12305 26.2367 3.24154 26.2139 3.38281C26.1911 3.52409 26.1706 3.69954 26.1523 3.90918C26.1341 4.11882 26.1204 4.36947 26.1113 4.66113C26.1022 4.94824 26.0977 5.28548 26.0977 5.67285V7.32715C26.0977 7.71452 26.1022 8.05404 26.1113 8.3457C26.1204 8.63281 26.1341 8.88118 26.1523 9.09082C26.1706 9.30046 26.1911 9.47591 26.2139 9.61719C26.2367 9.75846 26.2617 9.87695 26.2891 9.97266V10H24.71V9.97266C24.7373 9.87695 24.7624 9.75846 24.7852 9.61719C24.8125 9.47591 24.833 9.30046 24.8467 9.09082C24.8649 8.88118 24.8786 8.63281 24.8877 8.3457C24.9014 8.05404 24.9082 7.71452 24.9082 7.32715V5.67285ZM24.7646 0.928711C24.7646 0.828451 24.7829 0.735026 24.8193 0.648438C24.8604 0.557292 24.9128 0.479818 24.9766 0.416016C25.0404 0.347656 25.1156 0.295247 25.2021 0.258789C25.2933 0.217773 25.3913 0.197266 25.4961 0.197266C25.6009 0.197266 25.6966 0.217773 25.7832 0.258789C25.8743 0.295247 25.9518 0.347656 26.0156 0.416016C26.084 0.479818 26.1364 0.557292 26.1729 0.648438C26.2139 0.735026 26.2344 0.828451 26.2344 0.928711C26.2344 1.13835 26.1637 1.3138 26.0225 1.45508C25.8812 1.59635 25.7057 1.66699 25.4961 1.66699C25.3913 1.66699 25.2933 1.64876 25.2021 1.6123C25.1156 1.57129 25.0404 1.51888 24.9766 1.45508C24.9128 1.38672 24.8604 1.30924 24.8193 1.22266C24.7829 1.13151 24.7646 1.03353 24.7646 0.928711Z" fill="white"/>
<path d="M16.6914 5.53613C16.6914 5.14876 16.6846 4.81152 16.6709 4.52441C16.6618 4.23275 16.6481 3.9821 16.6299 3.77246C16.6162 3.56283 16.5957 3.38737 16.5684 3.24609C16.5456 3.10482 16.5205 2.98633 16.4932 2.89062V2.86328H18.0723V2.89062C18.0495 2.95898 18.029 3.03646 18.0107 3.12305C17.9925 3.20964 17.9766 3.30762 17.9629 3.41699C18.2318 3.26204 18.528 3.13216 18.8516 3.02734C19.1797 2.91797 19.542 2.86328 19.9385 2.86328C20.4443 2.86328 20.9046 2.94987 21.3193 3.12305C21.7386 3.29167 22.0964 3.53548 22.3926 3.85449C22.6934 4.1735 22.9258 4.55859 23.0898 5.00977C23.2539 5.46094 23.3359 5.9668 23.3359 6.52734C23.3359 6.99674 23.2539 7.44792 23.0898 7.88086C22.9303 8.3138 22.6934 8.69661 22.3789 9.0293C22.069 9.36198 21.6862 9.62858 21.2305 9.8291C20.7747 10.0251 20.2507 10.123 19.6582 10.123C19.3027 10.123 18.9792 10.0957 18.6875 10.041C18.3958 9.98633 18.127 9.91569 17.8809 9.8291V10.8271C17.8809 11.2145 17.8854 11.5518 17.8945 11.8389C17.9036 12.1305 17.9173 12.3812 17.9355 12.5908C17.9538 12.8005 17.9743 12.9759 17.9971 13.1172C18.0199 13.2585 18.0449 13.377 18.0723 13.4727V13.5H16.4932V13.4727C16.5205 13.377 16.5456 13.2585 16.5684 13.1172C16.5957 12.9759 16.6162 12.8005 16.6299 12.5908C16.6481 12.3812 16.6618 12.1305 16.6709 11.8389C16.6846 11.5518 16.6914 11.2145 16.6914 10.8271V5.53613ZM19.6992 3.37598C19.5443 3.37598 19.3848 3.39648 19.2207 3.4375C19.0612 3.47396 18.9017 3.52865 18.7422 3.60156C18.5872 3.66992 18.4368 3.75879 18.291 3.86816C18.1497 3.97298 18.0221 4.09375 17.9082 4.23047C17.8991 4.40365 17.8923 4.59961 17.8877 4.81836C17.8831 5.03711 17.8809 5.27637 17.8809 5.53613V9.11816C17.972 9.18652 18.0745 9.25033 18.1885 9.30957C18.3024 9.36881 18.43 9.4235 18.5713 9.47363C18.7171 9.51921 18.8789 9.55566 19.0566 9.58301C19.2389 9.61035 19.4395 9.62402 19.6582 9.62402C20.0137 9.62402 20.335 9.56022 20.6221 9.43262C20.9092 9.30501 21.1507 9.12044 21.3467 8.87891C21.5472 8.63737 21.6999 8.34342 21.8047 7.99707C21.9141 7.65072 21.9688 7.25879 21.9688 6.82129C21.9688 6.3291 21.9277 5.87337 21.8457 5.4541C21.7637 5.03027 21.6315 4.66569 21.4492 4.36035C21.2715 4.05046 21.0391 3.80892 20.752 3.63574C20.4648 3.46257 20.1139 3.37598 19.6992 3.37598Z" fill="white"/>
<path d="M14.8184 4.37402L14.7227 4.3877C14.6908 4.28288 14.6383 4.17122 14.5654 4.05273C14.4971 3.93424 14.4059 3.82487 14.292 3.72461C14.1826 3.62435 14.0482 3.54232 13.8887 3.47852C13.7337 3.41016 13.5537 3.37598 13.3486 3.37598C13.2074 3.37598 13.0729 3.39648 12.9453 3.4375C12.8223 3.47852 12.7129 3.54004 12.6172 3.62207C12.526 3.69954 12.4531 3.79753 12.3984 3.91602C12.3438 4.03451 12.3164 4.1735 12.3164 4.33301C12.3164 4.55632 12.3848 4.77051 12.5215 4.97559C12.6628 5.17611 12.8382 5.37663 13.0479 5.57715C13.2575 5.77311 13.4831 5.97135 13.7246 6.17188C13.9707 6.3724 14.1986 6.58203 14.4082 6.80078C14.6178 7.01953 14.791 7.25423 14.9277 7.50488C15.069 7.75098 15.1396 8.01758 15.1396 8.30469C15.1396 8.53711 15.0986 8.76497 15.0166 8.98828C14.9346 9.20703 14.807 9.40299 14.6338 9.57617C14.4652 9.74935 14.2464 9.89062 13.9775 10C13.7132 10.1048 13.3965 10.1572 13.0273 10.1572C12.8086 10.1572 12.6035 10.1367 12.4121 10.0957C12.2253 10.0547 12.0521 10.0046 11.8926 9.94531C11.7376 9.88151 11.5964 9.81315 11.4688 9.74023C11.3457 9.66276 11.2363 9.58984 11.1406 9.52148L11.209 8.22266H11.3184C11.3639 8.43685 11.4323 8.63281 11.5234 8.81055C11.6146 8.98828 11.7262 9.14095 11.8584 9.26855C11.9951 9.3916 12.1501 9.48958 12.3232 9.5625C12.4964 9.63086 12.6855 9.66504 12.8906 9.66504C13.2279 9.66504 13.4945 9.57161 13.6904 9.38477C13.891 9.19792 13.9912 8.9541 13.9912 8.65332C13.9912 8.41178 13.9229 8.19076 13.7861 7.99023C13.654 7.78516 13.4854 7.58919 13.2803 7.40234C13.0752 7.21549 12.8542 7.02865 12.6172 6.8418C12.3848 6.65495 12.166 6.45671 11.9609 6.24707C11.7559 6.03288 11.585 5.80046 11.4482 5.5498C11.3161 5.2946 11.25 5.00521 11.25 4.68164C11.25 4.41732 11.2979 4.17578 11.3936 3.95703C11.4938 3.73372 11.6305 3.5446 11.8037 3.38965C11.9814 3.23014 12.1911 3.1071 12.4326 3.02051C12.6742 2.93392 12.9385 2.89062 13.2256 2.89062C13.6038 2.89062 13.9183 2.93164 14.1689 3.01367C14.4242 3.09115 14.6178 3.16634 14.75 3.23926L14.8184 4.37402Z" fill="white"/>
<path d="M8.47461 5.39258C8.47461 4.79102 8.35384 4.34896 8.1123 4.06641C7.87077 3.78385 7.5472 3.64258 7.1416 3.64258C6.99577 3.64258 6.83171 3.67448 6.64941 3.73828C6.46712 3.79753 6.28027 3.87956 6.08887 3.98438C5.89746 4.08464 5.70605 4.20312 5.51465 4.33984C5.32324 4.47656 5.14323 4.6224 4.97461 4.77734L4.96094 5.67285V7.32715C4.96094 7.71452 4.96549 8.05404 4.97461 8.3457C4.98372 8.63281 4.9974 8.88119 5.01562 9.09082C5.03385 9.30046 5.05436 9.47591 5.07715 9.61719C5.09993 9.75846 5.125 9.87695 5.15234 9.97266V10H3.57324V9.97266C3.60059 9.87695 3.62565 9.75846 3.64844 9.61719C3.67578 9.47591 3.69629 9.30046 3.70996 9.09082C3.72819 8.88119 3.74186 8.63281 3.75098 8.3457C3.76465 8.05404 3.77148 7.71452 3.77148 7.32715V5.67285C3.77148 5.28548 3.76465 4.94824 3.75098 4.66113C3.74186 4.36947 3.72819 4.11882 3.70996 3.90918C3.69629 3.69954 3.67578 3.52409 3.64844 3.38281C3.62565 3.24154 3.60059 3.12305 3.57324 3.02734V3H5.15234V3.02734C5.11589 3.14128 5.08626 3.28711 5.06348 3.46484C5.04525 3.63802 5.02474 3.86589 5.00195 4.14844C5.1888 3.99349 5.38932 3.83854 5.60352 3.68359C5.82227 3.52865 6.04785 3.39193 6.28027 3.27344C6.5127 3.15039 6.74967 3.05241 6.99121 2.97949C7.23275 2.90202 7.46973 2.86328 7.70215 2.86328C8.05762 2.86328 8.3584 2.9248 8.60449 3.04785C8.85514 3.1709 9.05794 3.33268 9.21289 3.5332C9.3724 3.73372 9.48633 3.96387 9.55469 4.22363C9.6276 4.47884 9.66406 4.73861 9.66406 5.00293V7.32715C9.66406 7.71452 9.66862 8.05404 9.67773 8.3457C9.68685 8.63281 9.70052 8.88119 9.71875 9.09082C9.73698 9.30046 9.75749 9.47591 9.78027 9.61719C9.80306 9.75846 9.82812 9.87695 9.85547 9.97266V10H8.27637V9.97266C8.30371 9.87695 8.32878 9.75846 8.35156 9.61719C8.37891 9.47591 8.39941 9.30046 8.41309 9.09082C8.43131 8.88119 8.44499 8.63281 8.4541 8.3457C8.46777 8.05404 8.47461 7.71452 8.47461 7.32715V5.39258Z" fill="white"/>
<path d="M0.0390625 9.97266C0.0664062 9.87695 0.0914714 9.75846 0.114258 9.61719C0.137044 9.47591 0.157552 9.30046 0.175781 9.09082C0.19401 8.88118 0.207682 8.63281 0.216797 8.3457C0.225911 8.05404 0.230469 7.71452 0.230469 7.32715V2.87695C0.230469 2.48958 0.225911 2.15234 0.216797 1.86523C0.207682 1.57357 0.19401 1.32292 0.175781 1.11328C0.157552 0.899089 0.137044 0.721354 0.114258 0.580078C0.0914714 0.438802 0.0664062 0.320312 0.0390625 0.224609V0.197266H1.67285V0.224609C1.64551 0.320312 1.61816 0.438802 1.59082 0.580078C1.56803 0.721354 1.54753 0.899089 1.5293 1.11328C1.51562 1.32292 1.50195 1.57357 1.48828 1.86523C1.47917 2.15234 1.47461 2.48958 1.47461 2.87695V7.32715C1.47461 7.71452 1.47917 8.05404 1.48828 8.3457C1.50195 8.63281 1.51562 8.88118 1.5293 9.09082C1.54753 9.30046 1.56803 9.47591 1.59082 9.61719C1.61816 9.75846 1.64551 9.87695 1.67285 9.97266V10H0.0390625V9.97266Z" fill="white"/>
</svg>
