<svg width="70" height="70" viewBox="0 0 70 70" fill="none" xmlns="http://www.w3.org/2000/svg">
<path d="M22.75 5.83333H47.25C56.5833 5.83333 64.1667 13.4167 64.1667 22.75V47.25C64.1667 51.7366 62.3844 56.0394 59.2119 59.2119C56.0394 62.3844 51.7366 64.1667 47.25 64.1667H22.75C13.4167 64.1667 5.83334 56.5833 5.83334 47.25V22.75C5.83334 18.2634 7.61563 13.9606 10.7881 10.7881C13.9606 7.61562 18.2634 5.83333 22.75 5.83333ZM22.1667 11.6667C19.3819 11.6667 16.7112 12.7729 14.7421 14.742C12.7729 16.7112 11.6667 19.3819 11.6667 22.1667V47.8333C11.6667 53.6375 16.3625 58.3333 22.1667 58.3333H47.8333C50.6181 58.3333 53.2888 57.2271 55.258 55.2579C57.2271 53.2888 58.3333 50.6181 58.3333 47.8333V22.1667C58.3333 16.3625 53.6375 11.6667 47.8333 11.6667H22.1667ZM50.3125 16.0417C51.2794 16.0417 52.2068 16.4258 52.8905 17.1095C53.5742 17.7932 53.9583 18.7206 53.9583 19.6875C53.9583 20.6544 53.5742 21.5818 52.8905 22.2655C52.2068 22.9492 51.2794 23.3333 50.3125 23.3333C49.3456 23.3333 48.4182 22.9492 47.7345 22.2655C47.0508 21.5818 46.6667 20.6544 46.6667 19.6875C46.6667 18.7206 47.0508 17.7932 47.7345 17.1095C48.4182 16.4258 49.3456 16.0417 50.3125 16.0417ZM35 20.4167C38.8677 20.4167 42.5771 21.9531 45.312 24.688C48.0469 27.4229 49.5833 31.1323 49.5833 35C49.5833 38.8677 48.0469 42.5771 45.312 45.312C42.5771 48.0469 38.8677 49.5833 35 49.5833C31.1323 49.5833 27.4229 48.0469 24.688 45.312C21.9531 42.5771 20.4167 38.8677 20.4167 35C20.4167 31.1323 21.9531 27.4229 24.688 24.688C27.4229 21.9531 31.1323 20.4167 35 20.4167ZM35 26.25C32.6794 26.25 30.4538 27.1719 28.8128 28.8128C27.1719 30.4538 26.25 32.6793 26.25 35C26.25 37.3206 27.1719 39.5462 28.8128 41.1872C30.4538 42.8281 32.6794 43.75 35 43.75C37.3207 43.75 39.5463 42.8281 41.1872 41.1872C42.8281 39.5462 43.75 37.3206 43.75 35C43.75 32.6793 42.8281 30.4538 41.1872 28.8128C39.5463 27.1719 37.3207 26.25 35 26.25Z" fill="black"/>
</svg>
