<svg width="105" height="14" viewBox="0 0 105 14" fill="none" xmlns="http://www.w3.org/2000/svg">
<path d="M101.192 9.39844C101.192 9.29818 101.211 9.20475 101.247 9.11816C101.288 9.02702 101.34 8.94954 101.404 8.88574C101.468 8.81738 101.543 8.76497 101.63 8.72852C101.721 8.6875 101.819 8.66699 101.924 8.66699C102.029 8.66699 102.124 8.6875 102.211 8.72852C102.302 8.76497 102.38 8.81738 102.443 8.88574C102.512 8.94954 102.564 9.02702 102.601 9.11816C102.642 9.20475 102.662 9.29818 102.662 9.39844C102.662 9.60807 102.591 9.78353 102.45 9.9248C102.309 10.0661 102.133 10.1367 101.924 10.1367C101.819 10.1367 101.721 10.1162 101.63 10.0752C101.543 10.0387 101.468 9.98861 101.404 9.9248C101.34 9.85645 101.288 9.77897 101.247 9.69238C101.211 9.60124 101.192 9.50325 101.192 9.39844ZM101.979 0.607422C101.732 0.607422 101.507 0.646159 101.302 0.723633C101.097 0.801107 100.919 0.899089 100.769 1.01758C100.618 1.13151 100.493 1.25456 100.393 1.38672C100.297 1.51888 100.233 1.63737 100.201 1.74219H100.071L100.311 0.491211C100.383 0.45931 100.475 0.418294 100.584 0.368164C100.698 0.318034 100.83 0.267904 100.98 0.217773C101.131 0.167643 101.299 0.124349 101.486 0.0878906C101.678 0.0514323 101.887 0.0332031 102.115 0.0332031C102.425 0.0332031 102.733 0.0719401 103.038 0.149414C103.343 0.226888 103.617 0.352214 103.858 0.525391C104.104 0.698568 104.303 0.924154 104.453 1.20215C104.604 1.48014 104.679 1.81738 104.679 2.21387C104.679 2.54655 104.613 2.86328 104.48 3.16406C104.353 3.46029 104.191 3.75195 103.995 4.03906C103.799 4.32161 103.587 4.60417 103.359 4.88672C103.136 5.16471 102.926 5.4541 102.73 5.75488C102.535 6.05111 102.37 6.36556 102.238 6.69824C102.111 7.02637 102.047 7.37956 102.047 7.75781H101.726C101.726 7.33854 101.767 6.95573 101.849 6.60938C101.935 6.26302 102.042 5.93945 102.17 5.63867C102.298 5.33333 102.437 5.04622 102.587 4.77734C102.737 4.50391 102.876 4.23275 103.004 3.96387C103.132 3.69499 103.236 3.41927 103.318 3.13672C103.405 2.85417 103.448 2.55111 103.448 2.22754C103.448 1.93587 103.407 1.6875 103.325 1.48242C103.243 1.27734 103.134 1.111 102.997 0.983398C102.86 0.851237 102.703 0.755534 102.525 0.696289C102.352 0.637044 102.17 0.607422 101.979 0.607422Z" fill="white"/>
<path d="M98.834 4.37402L98.7383 4.3877C98.7064 4.28288 98.654 4.17122 98.5811 4.05273C98.5127 3.93424 98.4215 3.82487 98.3076 3.72461C98.1982 3.62435 98.0638 3.54232 97.9043 3.47852C97.7493 3.41016 97.5693 3.37598 97.3643 3.37598C97.223 3.37598 97.0885 3.39648 96.9609 3.4375C96.8379 3.47852 96.7285 3.54004 96.6328 3.62207C96.5417 3.69954 96.4688 3.79753 96.4141 3.91602C96.3594 4.03451 96.332 4.1735 96.332 4.33301C96.332 4.55632 96.4004 4.77051 96.5371 4.97559C96.6784 5.17611 96.8538 5.37663 97.0635 5.57715C97.2731 5.77311 97.4987 5.97135 97.7402 6.17188C97.9863 6.3724 98.2142 6.58203 98.4238 6.80078C98.6335 7.01953 98.8066 7.25423 98.9434 7.50488C99.0846 7.75098 99.1553 8.01758 99.1553 8.30469C99.1553 8.53711 99.1143 8.76497 99.0322 8.98828C98.9502 9.20703 98.8226 9.40299 98.6494 9.57617C98.4808 9.74935 98.262 9.89062 97.9932 10C97.7288 10.1048 97.4121 10.1572 97.043 10.1572C96.8242 10.1572 96.6191 10.1367 96.4277 10.0957C96.2409 10.0547 96.0677 10.0046 95.9082 9.94531C95.7533 9.88151 95.612 9.81315 95.4844 9.74023C95.3613 9.66276 95.252 9.58984 95.1562 9.52148L95.2246 8.22266H95.334C95.3796 8.43685 95.4479 8.63281 95.5391 8.81055C95.6302 8.98828 95.7419 9.14095 95.874 9.26855C96.0107 9.3916 96.1657 9.48958 96.3389 9.5625C96.512 9.63086 96.7012 9.66504 96.9062 9.66504C97.2435 9.66504 97.5101 9.57161 97.7061 9.38477C97.9066 9.19792 98.0068 8.9541 98.0068 8.65332C98.0068 8.41178 97.9385 8.19076 97.8018 7.99023C97.6696 7.78516 97.501 7.58919 97.2959 7.40234C97.0908 7.21549 96.8698 7.02865 96.6328 6.8418C96.4004 6.65495 96.1816 6.45671 95.9766 6.24707C95.7715 6.03288 95.6006 5.80046 95.4639 5.5498C95.3317 5.2946 95.2656 5.00521 95.2656 4.68164C95.2656 4.41732 95.3135 4.17578 95.4092 3.95703C95.5094 3.73372 95.6462 3.5446 95.8193 3.38965C95.9971 3.23014 96.2067 3.1071 96.4482 3.02051C96.6898 2.93392 96.9541 2.89062 97.2412 2.89062C97.6195 2.89062 97.9339 2.93164 98.1846 3.01367C98.4398 3.09115 98.6335 3.16634 98.7656 3.23926L98.834 4.37402Z" fill="white"/>
<path d="M86.748 6.48633C86.748 5.97135 86.8438 5.49512 87.0352 5.05762C87.2266 4.61556 87.4886 4.23275 87.8213 3.90918C88.1585 3.58561 88.555 3.33268 89.0107 3.15039C89.4665 2.9681 89.9564 2.87695 90.4805 2.87695C90.9954 2.87695 91.4785 2.96354 91.9297 3.13672C92.3854 3.30534 92.7819 3.54688 93.1191 3.86133C93.4564 4.17578 93.7207 4.55859 93.9121 5.00977C94.1081 5.46094 94.2061 5.9668 94.2061 6.52734C94.2061 6.99674 94.124 7.44792 93.96 7.88086C93.7959 8.3138 93.5544 8.69661 93.2354 9.0293C92.9163 9.36198 92.5244 9.62858 92.0596 9.8291C91.5993 10.0251 91.0684 10.123 90.4668 10.123C89.9564 10.123 89.4756 10.0387 89.0244 9.87012C88.5732 9.7015 88.179 9.45996 87.8418 9.14551C87.5046 8.83105 87.238 8.45052 87.042 8.00391C86.846 7.55273 86.748 7.04688 86.748 6.48633ZM90.624 9.62402C90.9476 9.62402 91.2438 9.56022 91.5127 9.43262C91.7861 9.30501 92.0208 9.12044 92.2168 8.87891C92.4128 8.63737 92.5654 8.34342 92.6748 7.99707C92.7842 7.65072 92.8389 7.25879 92.8389 6.82129C92.8389 6.3291 92.7865 5.87337 92.6816 5.4541C92.5768 5.03027 92.4196 4.66569 92.21 4.36035C92.0049 4.05046 91.7451 3.80892 91.4307 3.63574C91.1162 3.46257 90.7493 3.37598 90.3301 3.37598C90.0065 3.37598 89.7103 3.43978 89.4414 3.56738C89.1725 3.69043 88.9378 3.87044 88.7373 4.10742C88.5413 4.3444 88.3887 4.63607 88.2793 4.98242C88.1699 5.32422 88.1152 5.71387 88.1152 6.15137C88.1152 6.64355 88.1676 7.10156 88.2725 7.52539C88.3818 7.94922 88.5413 8.31836 88.751 8.63281C88.9606 8.94271 89.2204 9.18652 89.5303 9.36426C89.8447 9.53744 90.2093 9.62402 90.624 9.62402Z" fill="white"/>
<path d="M79.5088 5.39258C79.5088 5.0918 79.4769 4.83203 79.4131 4.61328C79.3538 4.39453 79.265 4.21452 79.1465 4.07324C79.0326 3.92741 78.8936 3.82031 78.7295 3.75195C78.5654 3.67904 78.3831 3.64258 78.1826 3.64258C78.0459 3.64258 77.8932 3.66992 77.7246 3.72461C77.556 3.7793 77.3805 3.85449 77.1982 3.9502C77.0205 4.04134 76.8405 4.14844 76.6582 4.27148C76.4805 4.39453 76.3118 4.52669 76.1523 4.66797C76.1432 4.8138 76.1387 4.97103 76.1387 5.13965C76.1387 5.30371 76.1387 5.48145 76.1387 5.67285V7.32715C76.1387 7.71452 76.1432 8.05404 76.1523 8.3457C76.1615 8.63281 76.1751 8.88119 76.1934 9.09082C76.2116 9.30046 76.2321 9.47591 76.2549 9.61719C76.2777 9.75846 76.3027 9.87695 76.3301 9.97266V10H74.751V9.97266C74.7783 9.87695 74.8034 9.75846 74.8262 9.61719C74.8535 9.47591 74.874 9.30046 74.8877 9.09082C74.9059 8.88119 74.9196 8.63281 74.9287 8.3457C74.9424 8.05404 74.9492 7.71452 74.9492 7.32715V5.67285C74.9492 5.28548 74.9424 4.94824 74.9287 4.66113C74.9196 4.36947 74.9059 4.11882 74.8877 3.90918C74.874 3.69954 74.8535 3.52409 74.8262 3.38281C74.8034 3.24154 74.7783 3.12305 74.751 3.02734V3H76.3301V3.02734C76.2936 3.13216 76.264 3.2666 76.2412 3.43066C76.223 3.59017 76.2025 3.79297 76.1797 4.03906C76.362 3.89323 76.5579 3.74967 76.7676 3.6084C76.9772 3.46712 77.1914 3.3418 77.4102 3.23242C77.6335 3.12305 77.8568 3.03418 78.0801 2.96582C78.3034 2.89746 78.5244 2.86328 78.7432 2.86328C79.0029 2.86328 79.2331 2.89746 79.4336 2.96582C79.6341 3.03418 79.8096 3.1276 79.96 3.24609C80.1104 3.36458 80.2357 3.50358 80.3359 3.66309C80.4408 3.82259 80.5205 3.99349 80.5752 4.17578C80.762 4.01628 80.9648 3.85905 81.1836 3.7041C81.4069 3.5446 81.6348 3.40332 81.8672 3.28027C82.1042 3.15723 82.3434 3.05697 82.585 2.97949C82.8311 2.90202 83.0703 2.86328 83.3027 2.86328C83.6582 2.86328 83.959 2.9248 84.2051 3.04785C84.4557 3.1709 84.6585 3.33268 84.8135 3.5332C84.973 3.73372 85.0869 3.96387 85.1553 4.22363C85.2282 4.47884 85.2646 4.73861 85.2646 5.00293V7.32715C85.2646 7.71452 85.2692 8.05404 85.2783 8.3457C85.2874 8.63281 85.3011 8.88119 85.3193 9.09082C85.3376 9.30046 85.3581 9.47591 85.3809 9.61719C85.4082 9.75846 85.4355 9.87695 85.4629 9.97266V10H83.877V9.97266C83.9043 9.87695 83.9294 9.75846 83.9521 9.61719C83.9795 9.47591 84.0023 9.30046 84.0205 9.09082C84.0387 8.88119 84.0524 8.63281 84.0615 8.3457C84.0706 8.05404 84.0752 7.71452 84.0752 7.32715V5.39258C84.0752 4.79102 83.9544 4.34896 83.7129 4.06641C83.4714 3.78385 83.1478 3.64258 82.7422 3.64258C82.6009 3.64258 82.4437 3.66992 82.2705 3.72461C82.1019 3.7793 81.9264 3.85449 81.7441 3.9502C81.5618 4.0459 81.3796 4.15755 81.1973 4.28516C81.015 4.4082 80.8441 4.54036 80.6846 4.68164C80.6937 4.73633 80.6982 4.79102 80.6982 4.8457C80.6982 4.90039 80.6982 4.9528 80.6982 5.00293V7.32715C80.6982 7.71452 80.7028 8.05404 80.7119 8.3457C80.7256 8.63281 80.7393 8.88119 80.7529 9.09082C80.7712 9.30046 80.7917 9.47591 80.8145 9.61719C80.8418 9.75846 80.8691 9.87695 80.8965 9.97266V10H79.3174V9.97266C79.3447 9.87695 79.3698 9.75846 79.3926 9.61719C79.4154 9.47591 79.4359 9.30046 79.4541 9.09082C79.4723 8.88119 79.486 8.63281 79.4951 8.3457C79.5042 8.05404 79.5088 7.71452 79.5088 7.32715V5.39258Z" fill="white"/>
<path d="M65.9531 6.48633C65.9531 5.97135 66.0488 5.49512 66.2402 5.05762C66.4316 4.61556 66.6937 4.23275 67.0264 3.90918C67.3636 3.58561 67.7601 3.33268 68.2158 3.15039C68.6715 2.9681 69.1615 2.87695 69.6855 2.87695C70.2005 2.87695 70.6836 2.96354 71.1348 3.13672C71.5905 3.30534 71.987 3.54688 72.3242 3.86133C72.6615 4.17578 72.9258 4.55859 73.1172 5.00977C73.3132 5.46094 73.4111 5.9668 73.4111 6.52734C73.4111 6.99674 73.3291 7.44792 73.165 7.88086C73.001 8.3138 72.7594 8.69661 72.4404 9.0293C72.1214 9.36198 71.7295 9.62858 71.2646 9.8291C70.8044 10.0251 70.2734 10.123 69.6719 10.123C69.1615 10.123 68.6807 10.0387 68.2295 9.87012C67.7783 9.7015 67.3841 9.45996 67.0469 9.14551C66.7096 8.83105 66.443 8.45052 66.2471 8.00391C66.0511 7.55273 65.9531 7.04688 65.9531 6.48633ZM69.8291 9.62402C70.1527 9.62402 70.4489 9.56022 70.7178 9.43262C70.9912 9.30501 71.2259 9.12044 71.4219 8.87891C71.6178 8.63737 71.7705 8.34342 71.8799 7.99707C71.9893 7.65072 72.0439 7.25879 72.0439 6.82129C72.0439 6.3291 71.9915 5.87337 71.8867 5.4541C71.7819 5.03027 71.6247 4.66569 71.415 4.36035C71.21 4.05046 70.9502 3.80892 70.6357 3.63574C70.3213 3.46257 69.9544 3.37598 69.5352 3.37598C69.2116 3.37598 68.9154 3.43978 68.6465 3.56738C68.3776 3.69043 68.1429 3.87044 67.9424 4.10742C67.7464 4.3444 67.5938 4.63607 67.4844 4.98242C67.375 5.32422 67.3203 5.71387 67.3203 6.15137C67.3203 6.64355 67.3727 7.10156 67.4775 7.52539C67.5869 7.94922 67.7464 8.31836 67.9561 8.63281C68.1657 8.94271 68.4255 9.18652 68.7354 9.36426C69.0498 9.53744 69.4144 9.62402 69.8291 9.62402Z" fill="white"/>
<path d="M64.6543 4.37402L64.5586 4.3877C64.5267 4.28288 64.4743 4.17122 64.4014 4.05273C64.333 3.93424 64.2419 3.82487 64.1279 3.72461C64.0186 3.62435 63.8841 3.54232 63.7246 3.47852C63.5697 3.41016 63.3896 3.37598 63.1846 3.37598C63.0433 3.37598 62.9089 3.39648 62.7812 3.4375C62.6582 3.47852 62.5488 3.54004 62.4531 3.62207C62.362 3.69954 62.2891 3.79753 62.2344 3.91602C62.1797 4.03451 62.1523 4.1735 62.1523 4.33301C62.1523 4.55632 62.2207 4.77051 62.3574 4.97559C62.4987 5.17611 62.6742 5.37663 62.8838 5.57715C63.0934 5.77311 63.319 5.97135 63.5605 6.17188C63.8066 6.3724 64.0345 6.58203 64.2441 6.80078C64.4538 7.01953 64.627 7.25423 64.7637 7.50488C64.9049 7.75098 64.9756 8.01758 64.9756 8.30469C64.9756 8.53711 64.9346 8.76497 64.8525 8.98828C64.7705 9.20703 64.6429 9.40299 64.4697 9.57617C64.3011 9.74935 64.0824 9.89062 63.8135 10C63.5492 10.1048 63.2324 10.1572 62.8633 10.1572C62.6445 10.1572 62.4395 10.1367 62.248 10.0957C62.0612 10.0547 61.888 10.0046 61.7285 9.94531C61.5736 9.88151 61.4323 9.81315 61.3047 9.74023C61.1816 9.66276 61.0723 9.58984 60.9766 9.52148L61.0449 8.22266H61.1543C61.1999 8.43685 61.2682 8.63281 61.3594 8.81055C61.4505 8.98828 61.5622 9.14095 61.6943 9.26855C61.8311 9.3916 61.986 9.48958 62.1592 9.5625C62.3324 9.63086 62.5215 9.66504 62.7266 9.66504C63.0638 9.66504 63.3304 9.57161 63.5264 9.38477C63.7269 9.19792 63.8271 8.9541 63.8271 8.65332C63.8271 8.41178 63.7588 8.19076 63.6221 7.99023C63.4899 7.78516 63.3213 7.58919 63.1162 7.40234C62.9111 7.21549 62.6901 7.02865 62.4531 6.8418C62.2207 6.65495 62.002 6.45671 61.7969 6.24707C61.5918 6.03288 61.4209 5.80046 61.2842 5.5498C61.152 5.2946 61.0859 5.00521 61.0859 4.68164C61.0859 4.41732 61.1338 4.17578 61.2295 3.95703C61.3298 3.73372 61.4665 3.5446 61.6396 3.38965C61.8174 3.23014 62.027 3.1071 62.2686 3.02051C62.5101 2.93392 62.7744 2.89062 63.0615 2.89062C63.4398 2.89062 63.7542 2.93164 64.0049 3.01367C64.2601 3.09115 64.4538 3.16634 64.5859 3.23926L64.6543 4.37402Z" fill="white"/>
<path d="M55.4941 4.37402L55.3984 4.3877C55.3665 4.28288 55.3141 4.17122 55.2412 4.05273C55.1729 3.93424 55.0817 3.82487 54.9678 3.72461C54.8584 3.62435 54.724 3.54232 54.5645 3.47852C54.4095 3.41016 54.2295 3.37598 54.0244 3.37598C53.8831 3.37598 53.7487 3.39648 53.6211 3.4375C53.498 3.47852 53.3887 3.54004 53.293 3.62207C53.2018 3.69954 53.1289 3.79753 53.0742 3.91602C53.0195 4.03451 52.9922 4.1735 52.9922 4.33301C52.9922 4.55632 53.0605 4.77051 53.1973 4.97559C53.3385 5.17611 53.514 5.37663 53.7236 5.57715C53.9333 5.77311 54.1589 5.97135 54.4004 6.17188C54.6465 6.3724 54.8743 6.58203 55.084 6.80078C55.2936 7.01953 55.4668 7.25423 55.6035 7.50488C55.7448 7.75098 55.8154 8.01758 55.8154 8.30469C55.8154 8.53711 55.7744 8.76497 55.6924 8.98828C55.6104 9.20703 55.4827 9.40299 55.3096 9.57617C55.141 9.74935 54.9222 9.89062 54.6533 10C54.389 10.1048 54.0723 10.1572 53.7031 10.1572C53.4844 10.1572 53.2793 10.1367 53.0879 10.0957C52.901 10.0547 52.7279 10.0046 52.5684 9.94531C52.4134 9.88151 52.2721 9.81315 52.1445 9.74023C52.0215 9.66276 51.9121 9.58984 51.8164 9.52148L51.8848 8.22266H51.9941C52.0397 8.43685 52.1081 8.63281 52.1992 8.81055C52.2904 8.98828 52.402 9.14095 52.5342 9.26855C52.6709 9.3916 52.8258 9.48958 52.999 9.5625C53.1722 9.63086 53.3613 9.66504 53.5664 9.66504C53.9036 9.66504 54.1702 9.57161 54.3662 9.38477C54.5667 9.19792 54.667 8.9541 54.667 8.65332C54.667 8.41178 54.5986 8.19076 54.4619 7.99023C54.3298 7.78516 54.1611 7.58919 53.9561 7.40234C53.751 7.21549 53.5299 7.02865 53.293 6.8418C53.0605 6.65495 52.8418 6.45671 52.6367 6.24707C52.4316 6.03288 52.2607 5.80046 52.124 5.5498C51.9919 5.2946 51.9258 5.00521 51.9258 4.68164C51.9258 4.41732 51.9736 4.17578 52.0693 3.95703C52.1696 3.73372 52.3063 3.5446 52.4795 3.38965C52.6572 3.23014 52.8669 3.1071 53.1084 3.02051C53.3499 2.93392 53.6143 2.89062 53.9014 2.89062C54.2796 2.89062 54.5941 2.93164 54.8447 3.01367C55.0999 3.09115 55.2936 3.16634 55.4258 3.23926L55.4941 4.37402Z" fill="white"/>
<path d="M47.8789 10.123C47.373 10.123 46.8991 10.0433 46.457 9.88379C46.015 9.72428 45.6299 9.49186 45.3018 9.18652C44.9736 8.87663 44.7139 8.49609 44.5225 8.04492C44.3356 7.58919 44.2422 7.06966 44.2422 6.48633C44.2422 5.97135 44.3288 5.49512 44.502 5.05762C44.6751 4.61556 44.9144 4.23275 45.2197 3.90918C45.5251 3.58561 45.8805 3.33268 46.2861 3.15039C46.6963 2.9681 47.1383 2.87695 47.6123 2.87695C48.0817 2.87695 48.5169 2.95898 48.918 3.12305C49.319 3.28255 49.6654 3.51725 49.957 3.82715C50.2533 4.13249 50.4857 4.51302 50.6543 4.96875C50.8275 5.41992 50.9209 5.9349 50.9346 6.51367C50.4196 6.50456 49.9046 6.49772 49.3896 6.49316C48.8747 6.48861 48.3392 6.48633 47.7832 6.48633C47.3867 6.48633 46.9993 6.48861 46.6211 6.49316C46.2474 6.49772 45.9102 6.50456 45.6094 6.51367C45.6367 6.98763 45.7096 7.41602 45.8281 7.79883C45.9512 8.18164 46.1175 8.50977 46.3271 8.7832C46.5413 9.05208 46.7988 9.25944 47.0996 9.40527C47.4049 9.55111 47.749 9.62402 48.1318 9.62402C48.3962 9.62402 48.6445 9.5944 48.877 9.53516C49.1139 9.47135 49.3281 9.38477 49.5195 9.27539C49.7109 9.16602 49.8818 9.03841 50.0322 8.89258C50.1826 8.74219 50.3102 8.5804 50.415 8.40723L50.4971 8.44824L49.9912 9.66504C49.7451 9.79264 49.4512 9.90202 49.1094 9.99316C48.7676 10.0798 48.3574 10.123 47.8789 10.123ZM46.9697 5.95312C47.4255 5.95312 47.8812 5.95312 48.3369 5.95312C48.7972 5.94857 49.2142 5.93945 49.5879 5.92578C49.5469 5.5293 49.4694 5.17383 49.3555 4.85938C49.2415 4.54492 49.0957 4.27832 48.918 4.05957C48.7402 3.84082 48.5306 3.6722 48.2891 3.55371C48.0475 3.43522 47.7809 3.37598 47.4893 3.37598C47.2249 3.37598 46.9811 3.43522 46.7578 3.55371C46.5391 3.66764 46.3477 3.83398 46.1836 4.05273C46.0195 4.27148 45.8874 4.54036 45.7871 4.85938C45.6868 5.17383 45.6276 5.53385 45.6094 5.93945C45.8145 5.94857 46.0309 5.95312 46.2588 5.95312C46.4867 5.95312 46.7236 5.95312 46.9697 5.95312Z" fill="white"/>
<path d="M41.5625 5.39258C41.5625 4.79102 41.4417 4.34896 41.2002 4.06641C40.9587 3.78385 40.6351 3.64258 40.2295 3.64258C40.0837 3.64258 39.9196 3.67448 39.7373 3.73828C39.555 3.79753 39.3682 3.87956 39.1768 3.98438C38.9854 4.08464 38.7939 4.20312 38.6025 4.33984C38.4111 4.47656 38.2311 4.6224 38.0625 4.77734L38.0488 5.67285V7.32715C38.0488 7.71452 38.0534 8.05404 38.0625 8.3457C38.0716 8.63281 38.0853 8.88119 38.1035 9.09082C38.1217 9.30046 38.1423 9.47591 38.165 9.61719C38.1878 9.75846 38.2129 9.87695 38.2402 9.97266V10H36.6611V9.97266C36.6885 9.87695 36.7135 9.75846 36.7363 9.61719C36.7637 9.47591 36.7842 9.30046 36.7979 9.09082C36.8161 8.88119 36.8298 8.63281 36.8389 8.3457C36.8525 8.05404 36.8594 7.71452 36.8594 7.32715V5.67285C36.8594 5.28548 36.8525 4.94824 36.8389 4.66113C36.8298 4.36947 36.8161 4.11882 36.7979 3.90918C36.7842 3.69954 36.7637 3.52409 36.7363 3.38281C36.7135 3.24154 36.6885 3.12305 36.6611 3.02734V3H38.2402V3.02734C38.2038 3.14128 38.1742 3.28711 38.1514 3.46484C38.1331 3.63802 38.1126 3.86589 38.0898 4.14844C38.2767 3.99349 38.4772 3.83854 38.6914 3.68359C38.9102 3.52865 39.1357 3.39193 39.3682 3.27344C39.6006 3.15039 39.8376 3.05241 40.0791 2.97949C40.3206 2.90202 40.5576 2.86328 40.79 2.86328C41.1455 2.86328 41.4463 2.9248 41.6924 3.04785C41.943 3.1709 42.1458 3.33268 42.3008 3.5332C42.4603 3.73372 42.5742 3.96387 42.6426 4.22363C42.7155 4.47884 42.752 4.73861 42.752 5.00293V7.32715C42.752 7.71452 42.7565 8.05404 42.7656 8.3457C42.7747 8.63281 42.7884 8.88119 42.8066 9.09082C42.8249 9.30046 42.8454 9.47591 42.8682 9.61719C42.891 9.75846 42.916 9.87695 42.9434 9.97266V10H41.3643V9.97266C41.3916 9.87695 41.4167 9.75846 41.4395 9.61719C41.4668 9.47591 41.4873 9.30046 41.501 9.09082C41.5192 8.88119 41.5329 8.63281 41.542 8.3457C41.5557 8.05404 41.5625 7.71452 41.5625 7.32715V5.39258Z" fill="white"/>
<path d="M32.334 10.123C31.8281 10.123 31.3542 10.0433 30.9121 9.88379C30.4701 9.72428 30.085 9.49186 29.7568 9.18652C29.4287 8.87663 29.1689 8.49609 28.9775 8.04492C28.7907 7.58919 28.6973 7.06966 28.6973 6.48633C28.6973 5.97135 28.7839 5.49512 28.957 5.05762C29.1302 4.61556 29.3695 4.23275 29.6748 3.90918C29.9801 3.58561 30.3356 3.33268 30.7412 3.15039C31.1514 2.9681 31.5934 2.87695 32.0674 2.87695C32.5368 2.87695 32.972 2.95898 33.373 3.12305C33.7741 3.28255 34.1204 3.51725 34.4121 3.82715C34.7083 4.13249 34.9408 4.51302 35.1094 4.96875C35.2826 5.41992 35.376 5.9349 35.3896 6.51367C34.8747 6.50456 34.3597 6.49772 33.8447 6.49316C33.3298 6.48861 32.7943 6.48633 32.2383 6.48633C31.8418 6.48633 31.4544 6.48861 31.0762 6.49316C30.7025 6.49772 30.3652 6.50456 30.0645 6.51367C30.0918 6.98763 30.1647 7.41602 30.2832 7.79883C30.4062 8.18164 30.5726 8.50977 30.7822 8.7832C30.9964 9.05208 31.2539 9.25944 31.5547 9.40527C31.86 9.55111 32.2041 9.62402 32.5869 9.62402C32.8512 9.62402 33.0996 9.5944 33.332 9.53516C33.569 9.47135 33.7832 9.38477 33.9746 9.27539C34.166 9.16602 34.3369 9.03841 34.4873 8.89258C34.6377 8.74219 34.7653 8.5804 34.8701 8.40723L34.9521 8.44824L34.4463 9.66504C34.2002 9.79264 33.9062 9.90202 33.5645 9.99316C33.2227 10.0798 32.8125 10.123 32.334 10.123ZM31.4248 5.95312C31.8805 5.95312 32.3363 5.95312 32.792 5.95312C33.2523 5.94857 33.6693 5.93945 34.043 5.92578C34.002 5.5293 33.9245 5.17383 33.8105 4.85938C33.6966 4.54492 33.5508 4.27832 33.373 4.05957C33.1953 3.84082 32.9857 3.6722 32.7441 3.55371C32.5026 3.43522 32.236 3.37598 31.9443 3.37598C31.68 3.37598 31.4362 3.43522 31.2129 3.55371C30.9941 3.66764 30.8027 3.83398 30.6387 4.05273C30.4746 4.27148 30.3424 4.54036 30.2422 4.85938C30.1419 5.17383 30.0827 5.53385 30.0645 5.93945C30.2695 5.94857 30.486 5.95312 30.7139 5.95312C30.9417 5.95312 31.1787 5.95312 31.4248 5.95312Z" fill="white"/>
<path d="M25.9355 5.67285C25.9355 5.28548 25.9287 4.94824 25.915 4.66113C25.9059 4.36947 25.8923 4.11882 25.874 3.90918C25.8604 3.69954 25.8398 3.52409 25.8125 3.38281C25.7897 3.24154 25.7646 3.12305 25.7373 3.02734V3H27.3164V3.02734C27.2891 3.12305 27.264 3.24154 27.2412 3.38281C27.2184 3.52409 27.1979 3.69954 27.1797 3.90918C27.1615 4.11882 27.1478 4.36947 27.1387 4.66113C27.1296 4.94824 27.125 5.28548 27.125 5.67285V7.32715C27.125 7.71452 27.1296 8.05404 27.1387 8.3457C27.1478 8.63281 27.1615 8.88118 27.1797 9.09082C27.1979 9.30046 27.2184 9.47591 27.2412 9.61719C27.264 9.75846 27.2891 9.87695 27.3164 9.97266V10H25.7373V9.97266C25.7646 9.87695 25.7897 9.75846 25.8125 9.61719C25.8398 9.47591 25.8604 9.30046 25.874 9.09082C25.8923 8.88118 25.9059 8.63281 25.915 8.3457C25.9287 8.05404 25.9355 7.71452 25.9355 7.32715V5.67285ZM25.792 0.928711C25.792 0.828451 25.8102 0.735026 25.8467 0.648438C25.8877 0.557292 25.9401 0.479818 26.0039 0.416016C26.0677 0.347656 26.1429 0.295247 26.2295 0.258789C26.3206 0.217773 26.4186 0.197266 26.5234 0.197266C26.6283 0.197266 26.724 0.217773 26.8105 0.258789C26.9017 0.295247 26.9792 0.347656 27.043 0.416016C27.1113 0.479818 27.1637 0.557292 27.2002 0.648438C27.2412 0.735026 27.2617 0.828451 27.2617 0.928711C27.2617 1.13835 27.1911 1.3138 27.0498 1.45508C26.9085 1.59635 26.7331 1.66699 26.5234 1.66699C26.4186 1.66699 26.3206 1.64876 26.2295 1.6123C26.1429 1.57129 26.0677 1.51888 26.0039 1.45508C25.9401 1.38672 25.8877 1.30924 25.8467 1.22266C25.8102 1.13151 25.792 1.03353 25.792 0.928711Z" fill="white"/>
<path d="M19.0859 7.60742C19.0859 8.20898 19.2044 8.65104 19.4414 8.93359C19.6829 9.21615 20.0065 9.35742 20.4121 9.35742C20.5579 9.35742 20.722 9.3278 20.9043 9.26855C21.0866 9.20475 21.2734 9.12272 21.4648 9.02246C21.6608 8.91764 21.8545 8.79688 22.0459 8.66016C22.2419 8.52344 22.4219 8.3776 22.5859 8.22266C22.5951 8.09049 22.5996 7.9515 22.5996 7.80566C22.5996 7.65527 22.5996 7.49577 22.5996 7.32715V5.67285C22.5996 5.28548 22.5928 4.94824 22.5791 4.66113C22.57 4.36947 22.5563 4.11882 22.5381 3.90918C22.5244 3.69954 22.5039 3.52409 22.4766 3.38281C22.4538 3.24154 22.4287 3.12305 22.4014 3.02734V3H23.9805V3.02734C23.9531 3.12305 23.9281 3.24154 23.9053 3.38281C23.8825 3.52409 23.862 3.69954 23.8438 3.90918C23.8255 4.11882 23.8118 4.36947 23.8027 4.66113C23.7936 4.94824 23.7891 5.28548 23.7891 5.67285V7.32715C23.7891 7.71452 23.7936 8.05404 23.8027 8.3457C23.8118 8.63281 23.8255 8.88119 23.8438 9.09082C23.862 9.30046 23.8825 9.47591 23.9053 9.61719C23.9281 9.75846 23.9531 9.87695 23.9805 9.97266V10H22.4014V9.97266C22.4287 9.85872 22.4561 9.71289 22.4834 9.53516C22.5153 9.35742 22.5381 9.125 22.5518 8.83789C22.3649 8.9974 22.1621 9.15462 21.9434 9.30957C21.7292 9.46452 21.5036 9.60352 21.2666 9.72656C21.0342 9.84961 20.7972 9.94759 20.5557 10.0205C20.3187 10.098 20.084 10.1367 19.8516 10.1367C19.4961 10.1367 19.193 10.0752 18.9424 9.95215C18.6963 9.8291 18.4935 9.66732 18.334 9.4668C18.179 9.26628 18.0651 9.03841 17.9922 8.7832C17.9238 8.52799 17.8896 8.26595 17.8896 7.99707V5.67285C17.8896 5.28548 17.8851 4.94824 17.876 4.66113C17.8669 4.36947 17.8532 4.11882 17.835 3.90918C17.8167 3.69954 17.7962 3.52409 17.7734 3.38281C17.7507 3.24154 17.7256 3.12305 17.6982 3.02734V3H19.2773V3.02734C19.25 3.12305 19.2249 3.24154 19.2021 3.38281C19.1794 3.52409 19.1589 3.69954 19.1406 3.90918C19.1224 4.11882 19.1087 4.36947 19.0996 4.66113C19.0905 4.94824 19.0859 5.28548 19.0859 5.67285V7.60742Z" fill="white"/>
<path d="M11.04 0.0332031C11.8011 0.0332031 12.5029 0.158529 13.1455 0.40918C13.7926 0.655273 14.3509 1.00391 14.8203 1.45508C15.2897 1.90169 15.6566 2.43945 15.9209 3.06836C16.1852 3.69727 16.3174 4.39225 16.3174 5.15332C16.3174 5.66829 16.2467 6.17188 16.1055 6.66406C15.9642 7.15169 15.7591 7.60742 15.4902 8.03125C15.2214 8.45052 14.891 8.82422 14.499 9.15234C14.1117 9.47591 13.6719 9.73112 13.1797 9.91797C13.3164 10.1732 13.4577 10.4329 13.6035 10.6973C13.7539 10.9661 13.9202 11.2282 14.1025 11.4834C14.2894 11.7432 14.5013 11.9915 14.7383 12.2285C14.9753 12.4655 15.2487 12.682 15.5586 12.8779C15.8685 13.0739 16.224 13.2471 16.625 13.3975C17.026 13.5479 17.484 13.6618 17.999 13.7393C17.9945 13.7529 17.9876 13.7689 17.9785 13.7871C17.9694 13.8053 17.9603 13.8236 17.9512 13.8418C17.9421 13.8646 17.9329 13.8896 17.9238 13.917C17.3268 13.8988 16.7731 13.8236 16.2627 13.6914C15.7568 13.5638 15.2897 13.3975 14.8613 13.1924C14.4375 12.9919 14.0501 12.764 13.6992 12.5088C13.3483 12.2536 13.0316 11.9915 12.749 11.7227C12.471 11.4583 12.2249 11.194 12.0107 10.9297C11.7965 10.6699 11.612 10.4307 11.457 10.2119C10.6868 10.2119 9.97819 10.0911 9.33105 9.84961C8.68392 9.60352 8.12337 9.25716 7.64941 8.81055C7.18001 8.36393 6.81315 7.82845 6.54883 7.2041C6.28451 6.5752 6.15234 5.87793 6.15234 5.1123C6.15234 4.67936 6.20247 4.25326 6.30273 3.83398C6.40299 3.41471 6.54883 3.01595 6.74023 2.6377C6.9362 2.25944 7.17318 1.91309 7.45117 1.59863C7.73372 1.27962 8.05501 1.00391 8.41504 0.771484C8.77962 0.539062 9.18066 0.359049 9.61816 0.231445C10.0602 0.0992839 10.5342 0.0332031 11.04 0.0332031ZM11.4297 9.59668C11.9355 9.59668 12.3981 9.50553 12.8174 9.32324C13.2367 9.14095 13.5967 8.87663 13.8975 8.53027C14.2028 8.18392 14.4398 7.76237 14.6084 7.26562C14.777 6.76432 14.8613 6.19694 14.8613 5.56348C14.8613 4.86165 14.7793 4.21224 14.6152 3.61523C14.4557 3.01367 14.2165 2.49414 13.8975 2.05664C13.5785 1.61458 13.1797 1.27051 12.7012 1.02441C12.2272 0.773763 11.6735 0.648438 11.04 0.648438C10.5342 0.648438 10.0716 0.739583 9.65234 0.921875C9.23307 1.09961 8.87077 1.35938 8.56543 1.70117C8.26465 2.04297 8.02995 2.46224 7.86133 2.95898C7.69271 3.45573 7.6084 4.02083 7.6084 4.6543C7.6084 5.35156 7.68815 6.00326 7.84766 6.60938C8.00716 7.21094 8.24642 7.73275 8.56543 8.1748C8.88444 8.61686 9.2832 8.9655 9.76172 9.2207C10.2402 9.47135 10.7962 9.59668 11.4297 9.59668Z" fill="white"/>
<path d="M4.04688 0.84668C4.04688 0.94694 4.02637 1.04264 3.98535 1.13379C3.94889 1.22038 3.89876 1.29557 3.83496 1.35938C3.77116 1.42318 3.69368 1.47559 3.60254 1.5166C3.51139 1.55306 3.41569 1.57129 3.31543 1.57129C3.21061 1.57129 3.11263 1.55306 3.02148 1.5166C2.9349 1.47559 2.85742 1.42318 2.78906 1.35938C2.72526 1.29557 2.67285 1.22038 2.63184 1.13379C2.59538 1.04264 2.57715 0.94694 2.57715 0.84668C2.57715 0.632487 2.64779 0.454753 2.78906 0.313477C2.93034 0.172201 3.10579 0.101562 3.31543 0.101562C3.41569 0.101562 3.51139 0.12207 3.60254 0.163086C3.69368 0.199544 3.77116 0.251953 3.83496 0.320312C3.89876 0.384115 3.94889 0.461589 3.98535 0.552734C4.02637 0.64388 4.04688 0.741862 4.04688 0.84668ZM3.26074 9.6377C3.51139 9.6377 3.73698 9.59896 3.9375 9.52148C4.14258 9.43945 4.32031 9.34147 4.4707 9.22754C4.62109 9.10905 4.74414 8.986 4.83984 8.8584C4.93555 8.72624 5.00163 8.60775 5.03809 8.50293H5.16797L4.92871 9.74707C4.85579 9.77897 4.76237 9.82227 4.64844 9.87695C4.53906 9.92708 4.40918 9.97721 4.25879 10.0273C4.1084 10.0775 3.9375 10.1208 3.74609 10.1572C3.55924 10.1937 3.35189 10.2119 3.12402 10.2119C2.81413 10.2119 2.50651 10.1732 2.20117 10.0957C1.89583 10.0182 1.62012 9.8929 1.37402 9.71973C1.13249 9.54655 0.936523 9.32096 0.786133 9.04297C0.635742 8.76497 0.560547 8.42546 0.560547 8.02441C0.560547 7.69173 0.624349 7.37728 0.751953 7.08105C0.884115 6.78027 1.04818 6.48861 1.24414 6.20605C1.4401 5.91895 1.64974 5.63639 1.87305 5.3584C2.10091 5.07585 2.31283 4.78646 2.50879 4.49023C2.70475 4.18945 2.86654 3.875 2.99414 3.54688C3.1263 3.21419 3.19238 2.85872 3.19238 2.48047H3.51367C3.51367 2.89974 3.47038 3.28483 3.38379 3.63574C3.30176 3.9821 3.19694 4.30566 3.06934 4.60645C2.94173 4.90723 2.80273 5.19434 2.65234 5.46777C2.50195 5.74121 2.36296 6.01237 2.23535 6.28125C2.10775 6.55013 2.00065 6.82585 1.91406 7.1084C1.83203 7.39095 1.79102 7.69173 1.79102 8.01074C1.79102 8.30241 1.83203 8.55078 1.91406 8.75586C1.99609 8.96094 2.10547 9.12956 2.24219 9.26172C2.37891 9.38932 2.53613 9.48503 2.71387 9.54883C2.8916 9.60807 3.07389 9.6377 3.26074 9.6377Z" fill="white"/>
</svg>
