<svg width="53" height="11" viewBox="0 0 53 11" fill="none" xmlns="http://www.w3.org/2000/svg">
<path d="M52.5137 4.37402L52.418 4.3877C52.3861 4.28288 52.3337 4.17122 52.2607 4.05273C52.1924 3.93424 52.1012 3.82487 51.9873 3.72461C51.8779 3.62435 51.7435 3.54232 51.584 3.47852C51.429 3.41016 51.249 3.37598 51.0439 3.37598C50.9027 3.37598 50.7682 3.39648 50.6406 3.4375C50.5176 3.47852 50.4082 3.54004 50.3125 3.62207C50.2214 3.69954 50.1484 3.79753 50.0938 3.91602C50.0391 4.03451 50.0117 4.1735 50.0117 4.33301C50.0117 4.55632 50.0801 4.77051 50.2168 4.97559C50.3581 5.17611 50.5335 5.37663 50.7432 5.57715C50.9528 5.77311 51.1784 5.97135 51.4199 6.17188C51.666 6.3724 51.8939 6.58203 52.1035 6.80078C52.3132 7.01953 52.4863 7.25423 52.623 7.50488C52.7643 7.75098 52.835 8.01758 52.835 8.30469C52.835 8.53711 52.7939 8.76497 52.7119 8.98828C52.6299 9.20703 52.5023 9.40299 52.3291 9.57617C52.1605 9.74935 51.9417 9.89062 51.6729 10C51.4085 10.1048 51.0918 10.1572 50.7227 10.1572C50.5039 10.1572 50.2988 10.1367 50.1074 10.0957C49.9206 10.0547 49.7474 10.0046 49.5879 9.94531C49.4329 9.88151 49.2917 9.81315 49.1641 9.74023C49.041 9.66276 48.9316 9.58984 48.8359 9.52148L48.9043 8.22266H49.0137C49.0592 8.43685 49.1276 8.63281 49.2188 8.81055C49.3099 8.98828 49.4215 9.14095 49.5537 9.26855C49.6904 9.3916 49.8454 9.48958 50.0186 9.5625C50.1917 9.63086 50.3809 9.66504 50.5859 9.66504C50.9232 9.66504 51.1898 9.57161 51.3857 9.38477C51.5863 9.19792 51.6865 8.9541 51.6865 8.65332C51.6865 8.41178 51.6182 8.19076 51.4814 7.99023C51.3493 7.78516 51.1807 7.58919 50.9756 7.40234C50.7705 7.21549 50.5495 7.02865 50.3125 6.8418C50.0801 6.65495 49.8613 6.45671 49.6562 6.24707C49.4512 6.03288 49.2803 5.80046 49.1436 5.5498C49.0114 5.2946 48.9453 5.00521 48.9453 4.68164C48.9453 4.41732 48.9932 4.17578 49.0889 3.95703C49.1891 3.73372 49.3258 3.5446 49.499 3.38965C49.6768 3.23014 49.8864 3.1071 50.1279 3.02051C50.3695 2.93392 50.6338 2.89062 50.9209 2.89062C51.2992 2.89062 51.6136 2.93164 51.8643 3.01367C52.1195 3.09115 52.3132 3.16634 52.4453 3.23926L52.5137 4.37402Z" fill="white"/>
<path d="M40.4277 6.48633C40.4277 5.97135 40.5234 5.49512 40.7148 5.05762C40.9062 4.61556 41.1683 4.23275 41.501 3.90918C41.8382 3.58561 42.2347 3.33268 42.6904 3.15039C43.1462 2.9681 43.6361 2.87695 44.1602 2.87695C44.6751 2.87695 45.1582 2.96354 45.6094 3.13672C46.0651 3.30534 46.4616 3.54688 46.7988 3.86133C47.1361 4.17578 47.4004 4.55859 47.5918 5.00977C47.7878 5.46094 47.8857 5.9668 47.8857 6.52734C47.8857 6.99674 47.8037 7.44792 47.6396 7.88086C47.4756 8.3138 47.234 8.69661 46.915 9.0293C46.596 9.36198 46.2041 9.62858 45.7393 9.8291C45.279 10.0251 44.748 10.123 44.1465 10.123C43.6361 10.123 43.1553 10.0387 42.7041 9.87012C42.2529 9.7015 41.8587 9.45996 41.5215 9.14551C41.1842 8.83105 40.9176 8.45052 40.7217 8.00391C40.5257 7.55273 40.4277 7.04688 40.4277 6.48633ZM44.3037 9.62402C44.6273 9.62402 44.9235 9.56022 45.1924 9.43262C45.4658 9.30501 45.7005 9.12044 45.8965 8.87891C46.0924 8.63737 46.2451 8.34342 46.3545 7.99707C46.4639 7.65072 46.5186 7.25879 46.5186 6.82129C46.5186 6.3291 46.4661 5.87337 46.3613 5.4541C46.2565 5.03027 46.0993 4.66569 45.8896 4.36035C45.6846 4.05046 45.4248 3.80892 45.1104 3.63574C44.7959 3.46257 44.429 3.37598 44.0098 3.37598C43.6862 3.37598 43.39 3.43978 43.1211 3.56738C42.8522 3.69043 42.6175 3.87044 42.417 4.10742C42.221 4.3444 42.0684 4.63607 41.959 4.98242C41.8496 5.32422 41.7949 5.71387 41.7949 6.15137C41.7949 6.64355 41.8473 7.10156 41.9521 7.52539C42.0615 7.94922 42.221 8.31836 42.4307 8.63281C42.6403 8.94271 42.9001 9.18652 43.21 9.36426C43.5244 9.53744 43.889 9.62402 44.3037 9.62402Z" fill="white"/>
<path d="M37.666 5.67285C37.666 5.28548 37.6592 4.94824 37.6455 4.66113C37.6364 4.36947 37.6227 4.11882 37.6045 3.90918C37.5908 3.69954 37.5703 3.52409 37.543 3.38281C37.5202 3.24154 37.4951 3.12305 37.4678 3.02734V3H39.0469V3.02734C39.0195 3.12305 38.9945 3.24154 38.9717 3.38281C38.9489 3.52409 38.9284 3.69954 38.9102 3.90918C38.8919 4.11882 38.8783 4.36947 38.8691 4.66113C38.86 4.94824 38.8555 5.28548 38.8555 5.67285V7.32715C38.8555 7.71452 38.86 8.05404 38.8691 8.3457C38.8783 8.63281 38.8919 8.88118 38.9102 9.09082C38.9284 9.30046 38.9489 9.47591 38.9717 9.61719C38.9945 9.75846 39.0195 9.87695 39.0469 9.97266V10H37.4678V9.97266C37.4951 9.87695 37.5202 9.75846 37.543 9.61719C37.5703 9.47591 37.5908 9.30046 37.6045 9.09082C37.6227 8.88118 37.6364 8.63281 37.6455 8.3457C37.6592 8.05404 37.666 7.71452 37.666 7.32715V5.67285ZM37.5225 0.928711C37.5225 0.828451 37.5407 0.735026 37.5771 0.648438C37.6182 0.557292 37.6706 0.479818 37.7344 0.416016C37.7982 0.347656 37.8734 0.295247 37.96 0.258789C38.0511 0.217773 38.1491 0.197266 38.2539 0.197266C38.3587 0.197266 38.4544 0.217773 38.541 0.258789C38.6322 0.295247 38.7096 0.347656 38.7734 0.416016C38.8418 0.479818 38.8942 0.557292 38.9307 0.648438C38.9717 0.735026 38.9922 0.828451 38.9922 0.928711C38.9922 1.13835 38.9215 1.3138 38.7803 1.45508C38.639 1.59635 38.4635 1.66699 38.2539 1.66699C38.1491 1.66699 38.0511 1.64876 37.96 1.6123C37.8734 1.57129 37.7982 1.51888 37.7344 1.45508C37.6706 1.38672 37.6182 1.30924 37.5771 1.22266C37.5407 1.13151 37.5225 1.03353 37.5225 0.928711Z" fill="white"/>
<path d="M36.2373 8.54395L35.7314 9.76074C35.6084 9.81543 35.4671 9.86556 35.3076 9.91113C35.1481 9.95671 34.9818 9.99544 34.8086 10.0273C34.64 10.0592 34.4691 10.082 34.2959 10.0957C34.1227 10.1139 33.9587 10.123 33.8037 10.123C33.2523 10.123 32.7419 10.0433 32.2725 9.88379C31.8076 9.71973 31.4043 9.48275 31.0625 9.17285C30.7253 8.86296 30.4609 8.48242 30.2695 8.03125C30.0781 7.58008 29.9824 7.0651 29.9824 6.48633C29.9824 5.97135 30.0804 5.49512 30.2764 5.05762C30.4769 4.61556 30.7526 4.23275 31.1035 3.90918C31.459 3.58561 31.876 3.33268 32.3545 3.15039C32.833 2.9681 33.3525 2.87695 33.9131 2.87695C34.1683 2.87695 34.4417 2.89974 34.7334 2.94531C35.0251 2.98633 35.2848 3.04102 35.5127 3.10938L35.998 4.27148L35.916 4.31934C35.8021 4.17806 35.6654 4.05046 35.5059 3.93652C35.3509 3.81803 35.1777 3.71777 34.9863 3.63574C34.7995 3.55371 34.6012 3.48991 34.3916 3.44434C34.182 3.39876 33.9678 3.37598 33.749 3.37598C33.3936 3.37598 33.07 3.43978 32.7783 3.56738C32.4867 3.69043 32.236 3.87044 32.0264 4.10742C31.8167 4.3444 31.6527 4.63607 31.5342 4.98242C31.4202 5.32422 31.3633 5.71387 31.3633 6.15137C31.3633 6.64355 31.418 7.10156 31.5273 7.52539C31.6413 7.94922 31.8076 8.31836 32.0264 8.63281C32.2497 8.94271 32.5277 9.18652 32.8604 9.36426C33.1976 9.53744 33.5918 9.62402 34.043 9.62402C34.2526 9.62402 34.46 9.59896 34.665 9.54883C34.8747 9.49414 35.0706 9.41895 35.2529 9.32324C35.4398 9.22298 35.6107 9.10449 35.7656 8.96777C35.9206 8.83105 36.0505 8.67611 36.1553 8.50293L36.2373 8.54395Z" fill="white"/>
<path d="M27.2207 5.67285C27.2207 5.28548 27.2139 4.94824 27.2002 4.66113C27.1911 4.36947 27.1774 4.11882 27.1592 3.90918C27.1455 3.69954 27.125 3.52409 27.0977 3.38281C27.0749 3.24154 27.0498 3.12305 27.0225 3.02734V3H28.6016V3.02734C28.5742 3.12305 28.5492 3.24154 28.5264 3.38281C28.5036 3.52409 28.4831 3.69954 28.4648 3.90918C28.4466 4.11882 28.4329 4.36947 28.4238 4.66113C28.4147 4.94824 28.4102 5.28548 28.4102 5.67285V7.32715C28.4102 7.71452 28.4147 8.05404 28.4238 8.3457C28.4329 8.63281 28.4466 8.88118 28.4648 9.09082C28.4831 9.30046 28.5036 9.47591 28.5264 9.61719C28.5492 9.75846 28.5742 9.87695 28.6016 9.97266V10H27.0225V9.97266C27.0498 9.87695 27.0749 9.75846 27.0977 9.61719C27.125 9.47591 27.1455 9.30046 27.1592 9.09082C27.1774 8.88118 27.1911 8.63281 27.2002 8.3457C27.2139 8.05404 27.2207 7.71452 27.2207 7.32715V5.67285ZM27.0771 0.928711C27.0771 0.828451 27.0954 0.735026 27.1318 0.648438C27.1729 0.557292 27.2253 0.479818 27.2891 0.416016C27.3529 0.347656 27.4281 0.295247 27.5146 0.258789C27.6058 0.217773 27.7038 0.197266 27.8086 0.197266C27.9134 0.197266 28.0091 0.217773 28.0957 0.258789C28.1868 0.295247 28.2643 0.347656 28.3281 0.416016C28.3965 0.479818 28.4489 0.557292 28.4854 0.648438C28.5264 0.735026 28.5469 0.828451 28.5469 0.928711C28.5469 1.13835 28.4762 1.3138 28.335 1.45508C28.1937 1.59635 28.0182 1.66699 27.8086 1.66699C27.7038 1.66699 27.6058 1.64876 27.5146 1.6123C27.4281 1.57129 27.3529 1.51888 27.2891 1.45508C27.2253 1.38672 27.1729 1.30924 27.1318 1.22266C27.0954 1.13151 27.0771 1.03353 27.0771 0.928711Z" fill="white"/>
<path d="M21.1504 3V3.02734C21.1413 3.05013 21.1344 3.08431 21.1299 3.12988C21.1253 3.17546 21.123 3.21647 21.123 3.25293C21.123 3.39421 21.1436 3.55143 21.1846 3.72461C21.2256 3.89323 21.2985 4.10514 21.4033 4.36035L23.0371 8.25L24.6914 4.41504C24.7598 4.24642 24.8327 4.06185 24.9102 3.86133C24.9876 3.66081 25.0264 3.45801 25.0264 3.25293C25.0264 3.19368 25.0218 3.14583 25.0127 3.10938C25.0036 3.06836 24.9945 3.04102 24.9854 3.02734V3H26.2158V3.02734C26.1338 3.11393 26.029 3.26888 25.9014 3.49219C25.7783 3.71094 25.6462 3.98665 25.5049 4.31934L22.9824 10.0957H22.5791L20.2412 4.6543C20.1592 4.45378 20.0703 4.26237 19.9746 4.08008C19.8835 3.89323 19.7946 3.72689 19.708 3.58105C19.626 3.43522 19.5531 3.31445 19.4893 3.21875C19.4255 3.11849 19.3822 3.05469 19.3594 3.02734V3H21.1504Z" fill="white"/>
<path d="M15.0117 5.67285C15.0117 5.28548 15.0049 4.94824 14.9912 4.66113C14.9821 4.36947 14.9684 4.11882 14.9502 3.90918C14.9365 3.69954 14.916 3.52409 14.8887 3.38281C14.8659 3.24154 14.8408 3.12305 14.8135 3.02734V3H16.3926V3.02734C16.3561 3.13216 16.3242 3.25977 16.2969 3.41016C16.2741 3.56055 16.2559 3.75423 16.2422 3.99121C16.4108 3.84993 16.5863 3.71094 16.7686 3.57422C16.9508 3.4375 17.1377 3.31673 17.3291 3.21191C17.5205 3.1071 17.7142 3.02279 17.9102 2.95898C18.1107 2.89518 18.3112 2.86328 18.5117 2.86328C18.6348 2.86328 18.7419 2.87012 18.833 2.88379C18.9242 2.8929 19.0062 2.90885 19.0791 2.93164C19.152 2.94987 19.2181 2.97266 19.2773 3C19.3366 3.02279 19.3936 3.04557 19.4482 3.06836L19.1133 4.37402L18.9971 4.34668C18.9424 4.14616 18.8398 3.98665 18.6895 3.86816C18.5391 3.74512 18.334 3.68359 18.0742 3.68359C17.9329 3.68359 17.7848 3.70866 17.6299 3.75879C17.4749 3.80892 17.3177 3.87956 17.1582 3.9707C16.9987 4.05729 16.8392 4.15983 16.6797 4.27832C16.5202 4.39225 16.3652 4.51302 16.2148 4.64062C16.2057 4.77279 16.2012 4.91634 16.2012 5.07129C16.2012 5.22624 16.2012 5.3903 16.2012 5.56348V7.32715C16.2012 7.71452 16.2057 8.05404 16.2148 8.3457C16.224 8.63281 16.2376 8.88119 16.2559 9.09082C16.2741 9.30046 16.2946 9.47591 16.3174 9.61719C16.3402 9.75846 16.3652 9.87695 16.3926 9.97266V10H14.8135V9.97266C14.8408 9.87695 14.8659 9.75846 14.8887 9.61719C14.916 9.47591 14.9365 9.30046 14.9502 9.09082C14.9684 8.88119 14.9821 8.63281 14.9912 8.3457C15.0049 8.05404 15.0117 7.71452 15.0117 7.32715V5.67285Z" fill="white"/>
<path d="M10.4863 10.123C9.98047 10.123 9.50651 10.0433 9.06445 9.88379C8.6224 9.72428 8.2373 9.49186 7.90918 9.18652C7.58105 8.87663 7.32129 8.49609 7.12988 8.04492C6.94303 7.58919 6.84961 7.06966 6.84961 6.48633C6.84961 5.97135 6.9362 5.49512 7.10938 5.05762C7.28255 4.61556 7.52181 4.23275 7.82715 3.90918C8.13249 3.58561 8.48796 3.33268 8.89355 3.15039C9.30371 2.9681 9.74577 2.87695 10.2197 2.87695C10.6891 2.87695 11.1243 2.95898 11.5254 3.12305C11.9264 3.28255 12.2728 3.51725 12.5645 3.82715C12.8607 4.13249 13.0931 4.51302 13.2617 4.96875C13.4349 5.41992 13.5283 5.9349 13.542 6.51367C13.027 6.50456 12.512 6.49772 11.9971 6.49316C11.4821 6.48861 10.9466 6.48633 10.3906 6.48633C9.99414 6.48633 9.60677 6.48861 9.22852 6.49316C8.85482 6.49772 8.51758 6.50456 8.2168 6.51367C8.24414 6.98763 8.31706 7.41602 8.43555 7.79883C8.55859 8.18164 8.72493 8.50977 8.93457 8.7832C9.14876 9.05208 9.40625 9.25944 9.70703 9.40527C10.0124 9.55111 10.3564 9.62402 10.7393 9.62402C11.0036 9.62402 11.252 9.5944 11.4844 9.53516C11.7214 9.47135 11.9355 9.38477 12.127 9.27539C12.3184 9.16602 12.4893 9.03841 12.6396 8.89258C12.79 8.74219 12.9176 8.5804 13.0225 8.40723L13.1045 8.44824L12.5986 9.66504C12.3525 9.79264 12.0586 9.90202 11.7168 9.99316C11.375 10.0798 10.9648 10.123 10.4863 10.123ZM9.57715 5.95312C10.0329 5.95312 10.4886 5.95312 10.9443 5.95312C11.4046 5.94857 11.8216 5.93945 12.1953 5.92578C12.1543 5.5293 12.0768 5.17383 11.9629 4.85938C11.849 4.54492 11.7031 4.27832 11.5254 4.05957C11.3477 3.84082 11.138 3.6722 10.8965 3.55371C10.6549 3.43522 10.3883 3.37598 10.0967 3.37598C9.83236 3.37598 9.58854 3.43522 9.36523 3.55371C9.14648 3.66764 8.95508 3.83398 8.79102 4.05273C8.62695 4.27148 8.49479 4.54036 8.39453 4.85938C8.29427 5.17383 8.23503 5.53385 8.2168 5.93945C8.42188 5.94857 8.63835 5.95312 8.86621 5.95312C9.09408 5.95312 9.33105 5.95312 9.57715 5.95312Z" fill="white"/>
<path d="M5.06543 1.75586H4.91504C4.87858 1.65104 4.81934 1.53255 4.7373 1.40039C4.65983 1.26823 4.55501 1.14518 4.42285 1.03125C4.29525 0.91276 4.13802 0.814779 3.95117 0.737305C3.76888 0.659831 3.55241 0.621094 3.30176 0.621094C3.07845 0.621094 2.88021 0.655273 2.70703 0.723633C2.53385 0.791992 2.38802 0.887695 2.26953 1.01074C2.1556 1.13379 2.06901 1.27962 2.00977 1.44824C1.95052 1.61686 1.9209 1.80371 1.9209 2.00879C1.9209 2.33691 2.01204 2.65137 2.19434 2.95215C2.38118 3.24837 2.61361 3.54232 2.8916 3.83398C3.1696 4.12565 3.47038 4.41732 3.79395 4.70898C4.11751 5.00065 4.41829 5.30371 4.69629 5.61816C4.97428 5.93262 5.20443 6.26302 5.38672 6.60938C5.57357 6.95117 5.66699 7.32031 5.66699 7.7168C5.66699 8.01302 5.61458 8.31152 5.50977 8.6123C5.40951 8.90853 5.25228 9.17513 5.03809 9.41211C4.82389 9.64909 4.54818 9.84277 4.21094 9.99316C3.8737 10.139 3.47266 10.2119 3.00781 10.2119C2.74805 10.2119 2.49967 10.1868 2.2627 10.1367C2.03027 10.0911 1.8138 10.0342 1.61328 9.96582C1.41732 9.8929 1.23958 9.81543 1.08008 9.7334C0.92513 9.65137 0.797526 9.57617 0.697266 9.50781L0.854492 7.99707H1.02539C1.07552 8.21126 1.15755 8.41634 1.27148 8.6123C1.38542 8.80371 1.52441 8.97461 1.68848 9.125C1.8571 9.27083 2.0485 9.38932 2.2627 9.48047C2.47689 9.56706 2.71159 9.61035 2.9668 9.61035C3.19922 9.61035 3.40658 9.57617 3.58887 9.50781C3.77572 9.4349 3.93522 9.33691 4.06738 9.21387C4.19954 9.08626 4.2998 8.93587 4.36816 8.7627C4.44108 8.58952 4.47754 8.40039 4.47754 8.19531C4.47754 7.9082 4.42513 7.64388 4.32031 7.40234C4.21549 7.15625 4.0765 6.92383 3.90332 6.70508C3.7347 6.48633 3.54102 6.27441 3.32227 6.06934C3.10807 5.86426 2.88704 5.65918 2.65918 5.4541C2.43132 5.24447 2.20801 5.03027 1.98926 4.81152C1.77507 4.59277 1.58138 4.36035 1.4082 4.11426C1.23958 3.86361 1.10286 3.59701 0.998047 3.31445C0.893229 3.02734 0.84082 2.71289 0.84082 2.37109C0.84082 2.01107 0.90918 1.6875 1.0459 1.40039C1.18717 1.10872 1.37174 0.860352 1.59961 0.655273C1.83203 0.450195 2.09408 0.292969 2.38574 0.183594C2.67741 0.0742188 2.97819 0.0195312 3.28809 0.0195312C3.51595 0.0195312 3.72559 0.0377604 3.91699 0.0742188C4.1084 0.110677 4.2793 0.153971 4.42969 0.204102C4.58464 0.254232 4.71908 0.304362 4.83301 0.354492C4.94694 0.404622 5.04036 0.445638 5.11328 0.477539L5.06543 1.75586Z" fill="white"/>
</svg>
